<?xml version="1.0" encoding="utf-8" standalone="no"?>
<!DOCTYPE svg PUBLIC "-//W3C//DTD SVG 1.1//EN"
  "http://www.w3.org/Graphics/SVG/1.1/DTD/svg11.dtd">
<svg xmlns:xlink="http://www.w3.org/1999/xlink" width="432pt" height="288pt" viewBox="0 0 432 288" xmlns="http://www.w3.org/2000/svg" version="1.1">
 <metadata>
  <rdf:RDF xmlns:dc="http://purl.org/dc/elements/1.1/" xmlns:cc="http://creativecommons.org/ns#" xmlns:rdf="http://www.w3.org/1999/02/22-rdf-syntax-ns#">
   <cc:Work>
    <dc:type rdf:resource="http://purl.org/dc/dcmitype/StillImage"/>
    <dc:date>2022-07-01T09:14:11.617171</dc:date>
    <dc:format>image/svg+xml</dc:format>
    <dc:creator>
     <cc:Agent>
      <dc:title>Matplotlib v3.5.1, https://matplotlib.org/</dc:title>
     </cc:Agent>
    </dc:creator>
   </cc:Work>
  </rdf:RDF>
 </metadata>
 <defs>
  <style type="text/css">*{stroke-linejoin: round; stroke-linecap: butt}</style>
 </defs>
 <g id="figure_1">
  <g id="patch_1">
   <path d="M 0 288 
L 432 288 
L 432 0 
L 0 0 
z
" style="fill: #ffffff"/>
  </g>
  <g id="axes_1">
   <g id="patch_2">
    <path d="M 54 252 
L 388.8 252 
L 388.8 34.56 
L 54 34.56 
z
" style="fill: #eaeaf2"/>
   </g>
   <g id="matplotlib.axis_1">
    <g id="xtick_1">
     <g id="text_1">
      <!-- Control -->
      <g style="fill: #262626" transform="translate(119.971094 269.373594)scale(0.11 -0.11)">
       <defs>
        <path id="ArialMT-43" d="M 3763 1606 
L 4369 1453 
Q 4178 706 3683 314 
Q 3188 -78 2472 -78 
Q 1731 -78 1267 223 
Q 803 525 561 1097 
Q 319 1669 319 2325 
Q 319 3041 592 3573 
Q 866 4106 1370 4382 
Q 1875 4659 2481 4659 
Q 3169 4659 3637 4309 
Q 4106 3959 4291 3325 
L 3694 3184 
Q 3534 3684 3231 3912 
Q 2928 4141 2469 4141 
Q 1941 4141 1586 3887 
Q 1231 3634 1087 3207 
Q 944 2781 944 2328 
Q 944 1744 1114 1308 
Q 1284 872 1643 656 
Q 2003 441 2422 441 
Q 2931 441 3284 734 
Q 3638 1028 3763 1606 
z
" transform="scale(0.015625)"/>
        <path id="ArialMT-6f" d="M 213 1659 
Q 213 2581 725 3025 
Q 1153 3394 1769 3394 
Q 2453 3394 2887 2945 
Q 3322 2497 3322 1706 
Q 3322 1066 3130 698 
Q 2938 331 2570 128 
Q 2203 -75 1769 -75 
Q 1072 -75 642 372 
Q 213 819 213 1659 
z
M 791 1659 
Q 791 1022 1069 705 
Q 1347 388 1769 388 
Q 2188 388 2466 706 
Q 2744 1025 2744 1678 
Q 2744 2294 2464 2611 
Q 2184 2928 1769 2928 
Q 1347 2928 1069 2612 
Q 791 2297 791 1659 
z
" transform="scale(0.015625)"/>
        <path id="ArialMT-6e" d="M 422 0 
L 422 3319 
L 928 3319 
L 928 2847 
Q 1294 3394 1984 3394 
Q 2284 3394 2536 3286 
Q 2788 3178 2913 3003 
Q 3038 2828 3088 2588 
Q 3119 2431 3119 2041 
L 3119 0 
L 2556 0 
L 2556 2019 
Q 2556 2363 2490 2533 
Q 2425 2703 2258 2804 
Q 2091 2906 1866 2906 
Q 1506 2906 1245 2678 
Q 984 2450 984 1813 
L 984 0 
L 422 0 
z
" transform="scale(0.015625)"/>
        <path id="ArialMT-74" d="M 1650 503 
L 1731 6 
Q 1494 -44 1306 -44 
Q 1000 -44 831 53 
Q 663 150 594 308 
Q 525 466 525 972 
L 525 2881 
L 113 2881 
L 113 3319 
L 525 3319 
L 525 4141 
L 1084 4478 
L 1084 3319 
L 1650 3319 
L 1650 2881 
L 1084 2881 
L 1084 941 
Q 1084 700 1114 631 
Q 1144 563 1211 522 
Q 1278 481 1403 481 
Q 1497 481 1650 503 
z
" transform="scale(0.015625)"/>
        <path id="ArialMT-72" d="M 416 0 
L 416 3319 
L 922 3319 
L 922 2816 
Q 1116 3169 1280 3281 
Q 1444 3394 1641 3394 
Q 1925 3394 2219 3213 
L 2025 2691 
Q 1819 2813 1613 2813 
Q 1428 2813 1281 2702 
Q 1134 2591 1072 2394 
Q 978 2094 978 1738 
L 978 0 
L 416 0 
z
" transform="scale(0.015625)"/>
        <path id="ArialMT-6c" d="M 409 0 
L 409 4581 
L 972 4581 
L 972 0 
L 409 0 
z
" transform="scale(0.015625)"/>
       </defs>
       <use xlink:href="#ArialMT-43"/>
       <use xlink:href="#ArialMT-6f" x="72.216797"/>
       <use xlink:href="#ArialMT-6e" x="127.832031"/>
       <use xlink:href="#ArialMT-74" x="183.447266"/>
       <use xlink:href="#ArialMT-72" x="211.230469"/>
       <use xlink:href="#ArialMT-6f" x="244.53125"/>
       <use xlink:href="#ArialMT-6c" x="300.146484"/>
      </g>
     </g>
    </g>
    <g id="xtick_2">
     <g id="text_2">
      <!-- DFO -->
      <g style="fill: #262626" transform="translate(293.490703 269.373594)scale(0.11 -0.11)">
       <defs>
        <path id="ArialMT-44" d="M 494 0 
L 494 4581 
L 2072 4581 
Q 2606 4581 2888 4516 
Q 3281 4425 3559 4188 
Q 3922 3881 4101 3404 
Q 4281 2928 4281 2316 
Q 4281 1794 4159 1391 
Q 4038 988 3847 723 
Q 3656 459 3429 307 
Q 3203 156 2883 78 
Q 2563 0 2147 0 
L 494 0 
z
M 1100 541 
L 2078 541 
Q 2531 541 2789 625 
Q 3047 709 3200 863 
Q 3416 1078 3536 1442 
Q 3656 1806 3656 2325 
Q 3656 3044 3420 3430 
Q 3184 3816 2847 3947 
Q 2603 4041 2063 4041 
L 1100 4041 
L 1100 541 
z
" transform="scale(0.015625)"/>
        <path id="ArialMT-46" d="M 525 0 
L 525 4581 
L 3616 4581 
L 3616 4041 
L 1131 4041 
L 1131 2622 
L 3281 2622 
L 3281 2081 
L 1131 2081 
L 1131 0 
L 525 0 
z
" transform="scale(0.015625)"/>
        <path id="ArialMT-4f" d="M 309 2231 
Q 309 3372 921 4017 
Q 1534 4663 2503 4663 
Q 3138 4663 3647 4359 
Q 4156 4056 4423 3514 
Q 4691 2972 4691 2284 
Q 4691 1588 4409 1038 
Q 4128 488 3612 205 
Q 3097 -78 2500 -78 
Q 1853 -78 1343 234 
Q 834 547 571 1087 
Q 309 1628 309 2231 
z
M 934 2222 
Q 934 1394 1379 917 
Q 1825 441 2497 441 
Q 3181 441 3623 922 
Q 4066 1403 4066 2288 
Q 4066 2847 3877 3264 
Q 3688 3681 3323 3911 
Q 2959 4141 2506 4141 
Q 1863 4141 1398 3698 
Q 934 3256 934 2222 
z
" transform="scale(0.015625)"/>
       </defs>
       <use xlink:href="#ArialMT-44"/>
       <use xlink:href="#ArialMT-46" x="72.216797"/>
       <use xlink:href="#ArialMT-4f" x="133.300781"/>
      </g>
     </g>
    </g>
   </g>
   <g id="matplotlib.axis_2">
    <g id="ytick_1">
     <g id="line2d_1">
      <path d="M 54 251.64276 
L 388.8 251.64276 
" clip-path="url(#p8d60862d8b)" style="fill: none; stroke: #ffffff; stroke-linecap: round"/>
     </g>
     <g id="text_3">
      <!-- 0 -->
      <g style="fill: #262626" transform="translate(38.382969 255.579557)scale(0.11 -0.11)">
       <defs>
        <path id="ArialMT-30" d="M 266 2259 
Q 266 3072 433 3567 
Q 600 4063 929 4331 
Q 1259 4600 1759 4600 
Q 2128 4600 2406 4451 
Q 2684 4303 2865 4023 
Q 3047 3744 3150 3342 
Q 3253 2941 3253 2259 
Q 3253 1453 3087 958 
Q 2922 463 2592 192 
Q 2263 -78 1759 -78 
Q 1097 -78 719 397 
Q 266 969 266 2259 
z
M 844 2259 
Q 844 1131 1108 757 
Q 1372 384 1759 384 
Q 2147 384 2411 759 
Q 2675 1134 2675 2259 
Q 2675 3391 2411 3762 
Q 2147 4134 1753 4134 
Q 1366 4134 1134 3806 
Q 844 3388 844 2259 
z
" transform="scale(0.015625)"/>
       </defs>
       <use xlink:href="#ArialMT-30"/>
      </g>
     </g>
    </g>
    <g id="ytick_2">
     <g id="line2d_2">
      <path d="M 54 204.010778 
L 388.8 204.010778 
" clip-path="url(#p8d60862d8b)" style="fill: none; stroke: #ffffff; stroke-linecap: round"/>
     </g>
     <g id="text_4">
      <!-- 20 -->
      <g style="fill: #262626" transform="translate(32.265937 207.947575)scale(0.11 -0.11)">
       <defs>
        <path id="ArialMT-32" d="M 3222 541 
L 3222 0 
L 194 0 
Q 188 203 259 391 
Q 375 700 629 1000 
Q 884 1300 1366 1694 
Q 2113 2306 2375 2664 
Q 2638 3022 2638 3341 
Q 2638 3675 2398 3904 
Q 2159 4134 1775 4134 
Q 1369 4134 1125 3890 
Q 881 3647 878 3216 
L 300 3275 
Q 359 3922 746 4261 
Q 1134 4600 1788 4600 
Q 2447 4600 2831 4234 
Q 3216 3869 3216 3328 
Q 3216 3053 3103 2787 
Q 2991 2522 2730 2228 
Q 2469 1934 1863 1422 
Q 1356 997 1212 845 
Q 1069 694 975 541 
L 3222 541 
z
" transform="scale(0.015625)"/>
       </defs>
       <use xlink:href="#ArialMT-32"/>
       <use xlink:href="#ArialMT-30" x="55.615234"/>
      </g>
     </g>
    </g>
    <g id="ytick_3">
     <g id="line2d_3">
      <path d="M 54 156.378795 
L 388.8 156.378795 
" clip-path="url(#p8d60862d8b)" style="fill: none; stroke: #ffffff; stroke-linecap: round"/>
     </g>
     <g id="text_5">
      <!-- 40 -->
      <g style="fill: #262626" transform="translate(32.265937 160.315592)scale(0.11 -0.11)">
       <defs>
        <path id="ArialMT-34" d="M 2069 0 
L 2069 1097 
L 81 1097 
L 81 1613 
L 2172 4581 
L 2631 4581 
L 2631 1613 
L 3250 1613 
L 3250 1097 
L 2631 1097 
L 2631 0 
L 2069 0 
z
M 2069 1613 
L 2069 3678 
L 634 1613 
L 2069 1613 
z
" transform="scale(0.015625)"/>
       </defs>
       <use xlink:href="#ArialMT-34"/>
       <use xlink:href="#ArialMT-30" x="55.615234"/>
      </g>
     </g>
    </g>
    <g id="ytick_4">
     <g id="line2d_4">
      <path d="M 54 108.746813 
L 388.8 108.746813 
" clip-path="url(#p8d60862d8b)" style="fill: none; stroke: #ffffff; stroke-linecap: round"/>
     </g>
     <g id="text_6">
      <!-- 60 -->
      <g style="fill: #262626" transform="translate(32.265937 112.68361)scale(0.11 -0.11)">
       <defs>
        <path id="ArialMT-36" d="M 3184 3459 
L 2625 3416 
Q 2550 3747 2413 3897 
Q 2184 4138 1850 4138 
Q 1581 4138 1378 3988 
Q 1113 3794 959 3422 
Q 806 3050 800 2363 
Q 1003 2672 1297 2822 
Q 1591 2972 1913 2972 
Q 2475 2972 2870 2558 
Q 3266 2144 3266 1488 
Q 3266 1056 3080 686 
Q 2894 316 2569 119 
Q 2244 -78 1831 -78 
Q 1128 -78 684 439 
Q 241 956 241 2144 
Q 241 3472 731 4075 
Q 1159 4600 1884 4600 
Q 2425 4600 2770 4297 
Q 3116 3994 3184 3459 
z
M 888 1484 
Q 888 1194 1011 928 
Q 1134 663 1356 523 
Q 1578 384 1822 384 
Q 2178 384 2434 671 
Q 2691 959 2691 1453 
Q 2691 1928 2437 2201 
Q 2184 2475 1800 2475 
Q 1419 2475 1153 2201 
Q 888 1928 888 1484 
z
" transform="scale(0.015625)"/>
       </defs>
       <use xlink:href="#ArialMT-36"/>
       <use xlink:href="#ArialMT-30" x="55.615234"/>
      </g>
     </g>
    </g>
    <g id="ytick_5">
     <g id="line2d_5">
      <path d="M 54 61.11483 
L 388.8 61.11483 
" clip-path="url(#p8d60862d8b)" style="fill: none; stroke: #ffffff; stroke-linecap: round"/>
     </g>
     <g id="text_7">
      <!-- 80 -->
      <g style="fill: #262626" transform="translate(32.265937 65.051627)scale(0.11 -0.11)">
       <defs>
        <path id="ArialMT-38" d="M 1131 2484 
Q 781 2613 612 2850 
Q 444 3088 444 3419 
Q 444 3919 803 4259 
Q 1163 4600 1759 4600 
Q 2359 4600 2725 4251 
Q 3091 3903 3091 3403 
Q 3091 3084 2923 2848 
Q 2756 2613 2416 2484 
Q 2838 2347 3058 2040 
Q 3278 1734 3278 1309 
Q 3278 722 2862 322 
Q 2447 -78 1769 -78 
Q 1091 -78 675 323 
Q 259 725 259 1325 
Q 259 1772 486 2073 
Q 713 2375 1131 2484 
z
M 1019 3438 
Q 1019 3113 1228 2906 
Q 1438 2700 1772 2700 
Q 2097 2700 2305 2904 
Q 2513 3109 2513 3406 
Q 2513 3716 2298 3927 
Q 2084 4138 1766 4138 
Q 1444 4138 1231 3931 
Q 1019 3725 1019 3438 
z
M 838 1322 
Q 838 1081 952 856 
Q 1066 631 1291 507 
Q 1516 384 1775 384 
Q 2178 384 2440 643 
Q 2703 903 2703 1303 
Q 2703 1709 2433 1975 
Q 2163 2241 1756 2241 
Q 1359 2241 1098 1978 
Q 838 1716 838 1322 
z
" transform="scale(0.015625)"/>
       </defs>
       <use xlink:href="#ArialMT-38"/>
       <use xlink:href="#ArialMT-30" x="55.615234"/>
      </g>
     </g>
    </g>
    <g id="text_8">
     <!-- Num Branches -->
     <g style="fill: #262626" transform="translate(25.880937 182.960625)rotate(-90)scale(0.12 -0.12)">
      <defs>
       <path id="ArialMT-4e" d="M 488 0 
L 488 4581 
L 1109 4581 
L 3516 984 
L 3516 4581 
L 4097 4581 
L 4097 0 
L 3475 0 
L 1069 3600 
L 1069 0 
L 488 0 
z
" transform="scale(0.015625)"/>
       <path id="ArialMT-75" d="M 2597 0 
L 2597 488 
Q 2209 -75 1544 -75 
Q 1250 -75 995 37 
Q 741 150 617 320 
Q 494 491 444 738 
Q 409 903 409 1263 
L 409 3319 
L 972 3319 
L 972 1478 
Q 972 1038 1006 884 
Q 1059 663 1231 536 
Q 1403 409 1656 409 
Q 1909 409 2131 539 
Q 2353 669 2445 892 
Q 2538 1116 2538 1541 
L 2538 3319 
L 3100 3319 
L 3100 0 
L 2597 0 
z
" transform="scale(0.015625)"/>
       <path id="ArialMT-6d" d="M 422 0 
L 422 3319 
L 925 3319 
L 925 2853 
Q 1081 3097 1340 3245 
Q 1600 3394 1931 3394 
Q 2300 3394 2536 3241 
Q 2772 3088 2869 2813 
Q 3263 3394 3894 3394 
Q 4388 3394 4653 3120 
Q 4919 2847 4919 2278 
L 4919 0 
L 4359 0 
L 4359 2091 
Q 4359 2428 4304 2576 
Q 4250 2725 4106 2815 
Q 3963 2906 3769 2906 
Q 3419 2906 3187 2673 
Q 2956 2441 2956 1928 
L 2956 0 
L 2394 0 
L 2394 2156 
Q 2394 2531 2256 2718 
Q 2119 2906 1806 2906 
Q 1569 2906 1367 2781 
Q 1166 2656 1075 2415 
Q 984 2175 984 1722 
L 984 0 
L 422 0 
z
" transform="scale(0.015625)"/>
       <path id="ArialMT-20" transform="scale(0.015625)"/>
       <path id="ArialMT-42" d="M 469 0 
L 469 4581 
L 2188 4581 
Q 2713 4581 3030 4442 
Q 3347 4303 3526 4014 
Q 3706 3725 3706 3409 
Q 3706 3116 3547 2856 
Q 3388 2597 3066 2438 
Q 3481 2316 3704 2022 
Q 3928 1728 3928 1328 
Q 3928 1006 3792 729 
Q 3656 453 3456 303 
Q 3256 153 2954 76 
Q 2653 0 2216 0 
L 469 0 
z
M 1075 2656 
L 2066 2656 
Q 2469 2656 2644 2709 
Q 2875 2778 2992 2937 
Q 3109 3097 3109 3338 
Q 3109 3566 3000 3739 
Q 2891 3913 2687 3977 
Q 2484 4041 1991 4041 
L 1075 4041 
L 1075 2656 
z
M 1075 541 
L 2216 541 
Q 2509 541 2628 563 
Q 2838 600 2978 687 
Q 3119 775 3209 942 
Q 3300 1109 3300 1328 
Q 3300 1584 3169 1773 
Q 3038 1963 2805 2039 
Q 2572 2116 2134 2116 
L 1075 2116 
L 1075 541 
z
" transform="scale(0.015625)"/>
       <path id="ArialMT-61" d="M 2588 409 
Q 2275 144 1986 34 
Q 1697 -75 1366 -75 
Q 819 -75 525 192 
Q 231 459 231 875 
Q 231 1119 342 1320 
Q 453 1522 633 1644 
Q 813 1766 1038 1828 
Q 1203 1872 1538 1913 
Q 2219 1994 2541 2106 
Q 2544 2222 2544 2253 
Q 2544 2597 2384 2738 
Q 2169 2928 1744 2928 
Q 1347 2928 1158 2789 
Q 969 2650 878 2297 
L 328 2372 
Q 403 2725 575 2942 
Q 747 3159 1072 3276 
Q 1397 3394 1825 3394 
Q 2250 3394 2515 3294 
Q 2781 3194 2906 3042 
Q 3031 2891 3081 2659 
Q 3109 2516 3109 2141 
L 3109 1391 
Q 3109 606 3145 398 
Q 3181 191 3288 0 
L 2700 0 
Q 2613 175 2588 409 
z
M 2541 1666 
Q 2234 1541 1622 1453 
Q 1275 1403 1131 1340 
Q 988 1278 909 1158 
Q 831 1038 831 891 
Q 831 666 1001 516 
Q 1172 366 1500 366 
Q 1825 366 2078 508 
Q 2331 650 2450 897 
Q 2541 1088 2541 1459 
L 2541 1666 
z
" transform="scale(0.015625)"/>
       <path id="ArialMT-63" d="M 2588 1216 
L 3141 1144 
Q 3050 572 2676 248 
Q 2303 -75 1759 -75 
Q 1078 -75 664 370 
Q 250 816 250 1647 
Q 250 2184 428 2587 
Q 606 2991 970 3192 
Q 1334 3394 1763 3394 
Q 2303 3394 2647 3120 
Q 2991 2847 3088 2344 
L 2541 2259 
Q 2463 2594 2264 2762 
Q 2066 2931 1784 2931 
Q 1359 2931 1093 2626 
Q 828 2322 828 1663 
Q 828 994 1084 691 
Q 1341 388 1753 388 
Q 2084 388 2306 591 
Q 2528 794 2588 1216 
z
" transform="scale(0.015625)"/>
       <path id="ArialMT-68" d="M 422 0 
L 422 4581 
L 984 4581 
L 984 2938 
Q 1378 3394 1978 3394 
Q 2347 3394 2619 3248 
Q 2891 3103 3008 2847 
Q 3125 2591 3125 2103 
L 3125 0 
L 2563 0 
L 2563 2103 
Q 2563 2525 2380 2717 
Q 2197 2909 1863 2909 
Q 1613 2909 1392 2779 
Q 1172 2650 1078 2428 
Q 984 2206 984 1816 
L 984 0 
L 422 0 
z
" transform="scale(0.015625)"/>
       <path id="ArialMT-65" d="M 2694 1069 
L 3275 997 
Q 3138 488 2766 206 
Q 2394 -75 1816 -75 
Q 1088 -75 661 373 
Q 234 822 234 1631 
Q 234 2469 665 2931 
Q 1097 3394 1784 3394 
Q 2450 3394 2872 2941 
Q 3294 2488 3294 1666 
Q 3294 1616 3291 1516 
L 816 1516 
Q 847 969 1125 678 
Q 1403 388 1819 388 
Q 2128 388 2347 550 
Q 2566 713 2694 1069 
z
M 847 1978 
L 2700 1978 
Q 2663 2397 2488 2606 
Q 2219 2931 1791 2931 
Q 1403 2931 1139 2672 
Q 875 2413 847 1978 
z
" transform="scale(0.015625)"/>
       <path id="ArialMT-73" d="M 197 991 
L 753 1078 
Q 800 744 1014 566 
Q 1228 388 1613 388 
Q 2000 388 2187 545 
Q 2375 703 2375 916 
Q 2375 1106 2209 1216 
Q 2094 1291 1634 1406 
Q 1016 1563 777 1677 
Q 538 1791 414 1992 
Q 291 2194 291 2438 
Q 291 2659 392 2848 
Q 494 3038 669 3163 
Q 800 3259 1026 3326 
Q 1253 3394 1513 3394 
Q 1903 3394 2198 3281 
Q 2494 3169 2634 2976 
Q 2775 2784 2828 2463 
L 2278 2388 
Q 2241 2644 2061 2787 
Q 1881 2931 1553 2931 
Q 1166 2931 1000 2803 
Q 834 2675 834 2503 
Q 834 2394 903 2306 
Q 972 2216 1119 2156 
Q 1203 2125 1616 2013 
Q 2213 1853 2448 1751 
Q 2684 1650 2818 1456 
Q 2953 1263 2953 975 
Q 2953 694 2789 445 
Q 2625 197 2315 61 
Q 2006 -75 1616 -75 
Q 969 -75 630 194 
Q 291 463 197 991 
z
" transform="scale(0.015625)"/>
      </defs>
      <use xlink:href="#ArialMT-4e"/>
      <use xlink:href="#ArialMT-75" x="72.216797"/>
      <use xlink:href="#ArialMT-6d" x="127.832031"/>
      <use xlink:href="#ArialMT-20" x="211.132812"/>
      <use xlink:href="#ArialMT-42" x="238.916016"/>
      <use xlink:href="#ArialMT-72" x="305.615234"/>
      <use xlink:href="#ArialMT-61" x="338.916016"/>
      <use xlink:href="#ArialMT-6e" x="394.53125"/>
      <use xlink:href="#ArialMT-63" x="450.146484"/>
      <use xlink:href="#ArialMT-68" x="500.146484"/>
      <use xlink:href="#ArialMT-65" x="555.761719"/>
      <use xlink:href="#ArialMT-73" x="611.376953"/>
     </g>
    </g>
   </g>
   <g id="patch_3">
    <path d="M 87.48 218.895772 
L 187.92 218.895772 
L 187.92 177.813187 
L 87.48 177.813187 
L 87.48 218.895772 
z
" clip-path="url(#p8d60862d8b)" style="fill: #abc9ea; stroke: #737373; stroke-width: 1.5; stroke-linejoin: miter"/>
   </g>
   <g id="patch_4">
    <path d="M 254.88 208.773976 
L 355.32 208.773976 
L 355.32 161.737393 
L 254.88 161.737393 
L 254.88 208.773976 
z
" clip-path="url(#p8d60862d8b)" style="fill: #efb792; stroke: #737373; stroke-width: 1.5; stroke-linejoin: miter"/>
   </g>
   <g id="line2d_6">
    <path d="M 137.7 218.895772 
L 137.7 239.734765 
" clip-path="url(#p8d60862d8b)" style="fill: none; stroke: #737373; stroke-width: 1.5; stroke-linecap: round"/>
   </g>
   <g id="line2d_7">
    <path d="M 137.7 177.813187 
L 137.7 144.4708 
" clip-path="url(#p8d60862d8b)" style="fill: none; stroke: #737373; stroke-width: 1.5; stroke-linecap: round"/>
   </g>
   <g id="line2d_8">
    <path d="M 112.59 239.734765 
L 162.81 239.734765 
" clip-path="url(#p8d60862d8b)" style="fill: none; stroke: #737373; stroke-width: 1.5; stroke-linecap: round"/>
   </g>
   <g id="line2d_9">
    <path d="M 112.59 144.4708 
L 162.81 144.4708 
" clip-path="url(#p8d60862d8b)" style="fill: none; stroke: #737373; stroke-width: 1.5; stroke-linecap: round"/>
   </g>
   <g id="line2d_10">
    <defs>
     <path id="ma755c45b0a" d="M 0 3.535534 
L 2.12132 0 
L 0 -3.535534 
L -2.12132 0 
z
" style="stroke: #737373; stroke-linejoin: miter"/>
    </defs>
    <g clip-path="url(#p8d60862d8b)">
     <use xlink:href="#ma755c45b0a" x="137.7" y="115.89161" style="fill: #737373; stroke: #737373; stroke-linejoin: miter"/>
     <use xlink:href="#ma755c45b0a" x="137.7" y="108.746813" style="fill: #737373; stroke: #737373; stroke-linejoin: miter"/>
    </g>
   </g>
   <g id="line2d_11">
    <path d="M 305.1 208.773976 
L 305.1 242.116364 
" clip-path="url(#p8d60862d8b)" style="fill: none; stroke: #737373; stroke-width: 1.5; stroke-linecap: round"/>
   </g>
   <g id="line2d_12">
    <path d="M 305.1 161.737393 
L 305.1 94.457218 
" clip-path="url(#p8d60862d8b)" style="fill: none; stroke: #737373; stroke-width: 1.5; stroke-linecap: round"/>
   </g>
   <g id="line2d_13">
    <path d="M 279.99 242.116364 
L 330.21 242.116364 
" clip-path="url(#p8d60862d8b)" style="fill: none; stroke: #737373; stroke-width: 1.5; stroke-linecap: round"/>
   </g>
   <g id="line2d_14">
    <path d="M 279.99 94.457218 
L 330.21 94.457218 
" clip-path="url(#p8d60862d8b)" style="fill: none; stroke: #737373; stroke-width: 1.5; stroke-linecap: round"/>
   </g>
   <g id="line2d_15">
    <g clip-path="url(#p8d60862d8b)">
     <use xlink:href="#ma755c45b0a" x="305.1" y="44.443636" style="fill: #737373; stroke: #737373; stroke-linejoin: miter"/>
    </g>
   </g>
   <g id="line2d_16">
    <path d="M 87.48 206.392377 
L 187.92 206.392377 
" clip-path="url(#p8d60862d8b)" style="fill: none; stroke: #737373; stroke-width: 1.5; stroke-linecap: round"/>
   </g>
   <g id="line2d_17">
    <path d="M 254.88 181.385586 
L 355.32 181.385586 
" clip-path="url(#p8d60862d8b)" style="fill: none; stroke: #737373; stroke-width: 1.5; stroke-linecap: round"/>
   </g>
   <g id="patch_5">
    <path d="M 54 252 
L 54 34.56 
" style="fill: none; stroke: #ffffff; stroke-width: 1.25; stroke-linejoin: miter; stroke-linecap: square"/>
   </g>
   <g id="patch_6">
    <path d="M 388.8 252 
L 388.8 34.56 
" style="fill: none; stroke: #ffffff; stroke-width: 1.25; stroke-linejoin: miter; stroke-linecap: square"/>
   </g>
   <g id="patch_7">
    <path d="M 54 252 
L 388.8 252 
" style="fill: none; stroke: #ffffff; stroke-width: 1.25; stroke-linejoin: miter; stroke-linecap: square"/>
   </g>
   <g id="patch_8">
    <path d="M 54 34.56 
L 388.8 34.56 
" style="fill: none; stroke: #ffffff; stroke-width: 1.25; stroke-linejoin: miter; stroke-linecap: square"/>
   </g>
   <g id="PathCollection_1">
    <defs>
     <path id="C0_0_de18587564" d="M 0 2.5 
C 0.663008 2.5 1.29895 2.236584 1.767767 1.767767 
C 2.236584 1.29895 2.5 0.663008 2.5 -0 
C 2.5 -0.663008 2.236584 -1.29895 1.767767 -1.767767 
C 1.29895 -2.236584 0.663008 -2.5 0 -2.5 
C -0.663008 -2.5 -1.29895 -2.236584 -1.767767 -1.767767 
C -2.236584 -1.29895 -2.5 -0.663008 -2.5 0 
C -2.5 0.663008 -2.236584 1.29895 -1.767767 1.767767 
C -1.29895 2.236584 -0.663008 2.5 0 2.5 
z
"/>
    </defs>
    <g clip-path="url(#p8d60862d8b)">
     <use xlink:href="#C0_0_de18587564" x="137.7" y="239.734765" style="fill: #0173b2; stroke: #363636; stroke-width: 0.5"/>
    </g>
    <g clip-path="url(#p8d60862d8b)">
     <use xlink:href="#C0_0_de18587564" x="137.7" y="232.589967" style="fill: #0173b2; stroke: #363636; stroke-width: 0.5"/>
    </g>
    <g clip-path="url(#p8d60862d8b)">
     <use xlink:href="#C0_0_de18587564" x="132.4945" y="230.208368" style="fill: #0173b2; stroke: #363636; stroke-width: 0.5"/>
    </g>
    <g clip-path="url(#p8d60862d8b)">
     <use xlink:href="#C0_0_de18587564" x="137.7" y="225.44517" style="fill: #0173b2; stroke: #363636; stroke-width: 0.5"/>
    </g>
    <g clip-path="url(#p8d60862d8b)">
     <use xlink:href="#C0_0_de18587564" x="134.812606" y="220.681972" style="fill: #0173b2; stroke: #363636; stroke-width: 0.5"/>
    </g>
    <g clip-path="url(#p8d60862d8b)">
     <use xlink:href="#C0_0_de18587564" x="140.018106" y="218.300372" style="fill: #0173b2; stroke: #363636; stroke-width: 0.5"/>
    </g>
    <g clip-path="url(#p8d60862d8b)">
     <use xlink:href="#C0_0_de18587564" x="131.925213" y="215.918773" style="fill: #0173b2; stroke: #363636; stroke-width: 0.5"/>
    </g>
    <g clip-path="url(#p8d60862d8b)">
     <use xlink:href="#C0_0_de18587564" x="137.130713" y="213.537174" style="fill: #0173b2; stroke: #363636; stroke-width: 0.5"/>
    </g>
    <g clip-path="url(#p8d60862d8b)">
     <use xlink:href="#C0_0_de18587564" x="142.336213" y="211.155575" style="fill: #0173b2; stroke: #363636; stroke-width: 0.5"/>
    </g>
    <g clip-path="url(#p8d60862d8b)">
     <use xlink:href="#C0_0_de18587564" x="134.243319" y="208.773976" style="fill: #0173b2; stroke: #363636; stroke-width: 0.5"/>
    </g>
    <g clip-path="url(#p8d60862d8b)">
     <use xlink:href="#C0_0_de18587564" x="137.7" y="204.010778" style="fill: #0173b2; stroke: #363636; stroke-width: 0.5"/>
    </g>
    <g clip-path="url(#p8d60862d8b)">
     <use xlink:href="#C0_0_de18587564" x="132.4945" y="201.629179" style="fill: #0173b2; stroke: #363636; stroke-width: 0.5"/>
    </g>
    <g clip-path="url(#p8d60862d8b)">
     <use xlink:href="#C0_0_de18587564" x="137.7" y="196.86598" style="fill: #0173b2; stroke: #363636; stroke-width: 0.5"/>
    </g>
    <g clip-path="url(#p8d60862d8b)">
     <use xlink:href="#C0_0_de18587564" x="132.4945" y="194.484381" style="fill: #0173b2; stroke: #363636; stroke-width: 0.5"/>
    </g>
    <g clip-path="url(#p8d60862d8b)">
     <use xlink:href="#C0_0_de18587564" x="137.7" y="187.339584" style="fill: #0173b2; stroke: #363636; stroke-width: 0.5"/>
    </g>
    <g clip-path="url(#p8d60862d8b)">
     <use xlink:href="#C0_0_de18587564" x="137.7" y="149.233998" style="fill: #0173b2; stroke: #363636; stroke-width: 0.5"/>
    </g>
    <g clip-path="url(#p8d60862d8b)">
     <use xlink:href="#C0_0_de18587564" x="132.4945" y="146.852399" style="fill: #0173b2; stroke: #363636; stroke-width: 0.5"/>
    </g>
    <g clip-path="url(#p8d60862d8b)">
     <use xlink:href="#C0_0_de18587564" x="140.587394" y="144.4708" style="fill: #0173b2; stroke: #363636; stroke-width: 0.5"/>
    </g>
    <g clip-path="url(#p8d60862d8b)">
     <use xlink:href="#C0_0_de18587564" x="137.7" y="115.89161" style="fill: #0173b2; stroke: #363636; stroke-width: 0.5"/>
    </g>
    <g clip-path="url(#p8d60862d8b)">
     <use xlink:href="#C0_0_de18587564" x="137.7" y="108.746813" style="fill: #0173b2; stroke: #363636; stroke-width: 0.5"/>
    </g>
   </g>
   <g id="PathCollection_2">
    <defs>
     <path id="C1_0_0fff974321" d="M 0 2.5 
C 0.663008 2.5 1.29895 2.236584 1.767767 1.767767 
C 2.236584 1.29895 2.5 0.663008 2.5 -0 
C 2.5 -0.663008 2.236584 -1.29895 1.767767 -1.767767 
C 1.29895 -2.236584 0.663008 -2.5 0 -2.5 
C -0.663008 -2.5 -1.29895 -2.236584 -1.767767 -1.767767 
C -2.236584 -1.29895 -2.5 -0.663008 -2.5 0 
C -2.5 0.663008 -2.236584 1.29895 -1.767767 1.767767 
C -1.29895 2.236584 -0.663008 2.5 0 2.5 
z
"/>
    </defs>
    <g clip-path="url(#p8d60862d8b)">
     <use xlink:href="#C1_0_0fff974321" x="305.1" y="242.116364" style="fill: #de8f05; stroke: #363636; stroke-width: 0.5"/>
    </g>
    <g clip-path="url(#p8d60862d8b)">
     <use xlink:href="#C1_0_0fff974321" x="305.1" y="232.589967" style="fill: #de8f05; stroke: #363636; stroke-width: 0.5"/>
    </g>
    <g clip-path="url(#p8d60862d8b)">
     <use xlink:href="#C1_0_0fff974321" x="305.1" y="225.44517" style="fill: #de8f05; stroke: #363636; stroke-width: 0.5"/>
    </g>
    <g clip-path="url(#p8d60862d8b)">
     <use xlink:href="#C1_0_0fff974321" x="299.8945" y="223.063571" style="fill: #de8f05; stroke: #363636; stroke-width: 0.5"/>
    </g>
    <g clip-path="url(#p8d60862d8b)">
     <use xlink:href="#C1_0_0fff974321" x="305.1" y="215.918773" style="fill: #de8f05; stroke: #363636; stroke-width: 0.5"/>
    </g>
    <g clip-path="url(#p8d60862d8b)">
     <use xlink:href="#C1_0_0fff974321" x="305.1" y="206.392377" style="fill: #de8f05; stroke: #363636; stroke-width: 0.5"/>
    </g>
    <g clip-path="url(#p8d60862d8b)">
     <use xlink:href="#C1_0_0fff974321" x="305.1" y="199.247579" style="fill: #de8f05; stroke: #363636; stroke-width: 0.5"/>
    </g>
    <g clip-path="url(#p8d60862d8b)">
     <use xlink:href="#C1_0_0fff974321" x="305.1" y="189.721183" style="fill: #de8f05; stroke: #363636; stroke-width: 0.5"/>
    </g>
    <g clip-path="url(#p8d60862d8b)">
     <use xlink:href="#C1_0_0fff974321" x="302.212606" y="184.957985" style="fill: #de8f05; stroke: #363636; stroke-width: 0.5"/>
    </g>
    <g clip-path="url(#p8d60862d8b)">
     <use xlink:href="#C1_0_0fff974321" x="307.418106" y="182.576386" style="fill: #de8f05; stroke: #363636; stroke-width: 0.5"/>
    </g>
    <g clip-path="url(#p8d60862d8b)">
     <use xlink:href="#C1_0_0fff974321" x="299.325213" y="180.194786" style="fill: #de8f05; stroke: #363636; stroke-width: 0.5"/>
    </g>
    <g clip-path="url(#p8d60862d8b)">
     <use xlink:href="#C1_0_0fff974321" x="312.623606" y="180.194786" style="fill: #de8f05; stroke: #363636; stroke-width: 0.5"/>
    </g>
    <g clip-path="url(#p8d60862d8b)">
     <use xlink:href="#C1_0_0fff974321" x="305.1" y="175.431588" style="fill: #de8f05; stroke: #363636; stroke-width: 0.5"/>
    </g>
    <g clip-path="url(#p8d60862d8b)">
     <use xlink:href="#C1_0_0fff974321" x="299.8945" y="173.049989" style="fill: #de8f05; stroke: #363636; stroke-width: 0.5"/>
    </g>
    <g clip-path="url(#p8d60862d8b)">
     <use xlink:href="#C1_0_0fff974321" x="305.1" y="165.905192" style="fill: #de8f05; stroke: #363636; stroke-width: 0.5"/>
    </g>
    <g clip-path="url(#p8d60862d8b)">
     <use xlink:href="#C1_0_0fff974321" x="305.1" y="149.233998" style="fill: #de8f05; stroke: #363636; stroke-width: 0.5"/>
    </g>
    <g clip-path="url(#p8d60862d8b)">
     <use xlink:href="#C1_0_0fff974321" x="305.1" y="142.0892" style="fill: #de8f05; stroke: #363636; stroke-width: 0.5"/>
    </g>
    <g clip-path="url(#p8d60862d8b)">
     <use xlink:href="#C1_0_0fff974321" x="305.1" y="134.944403" style="fill: #de8f05; stroke: #363636; stroke-width: 0.5"/>
    </g>
    <g clip-path="url(#p8d60862d8b)">
     <use xlink:href="#C1_0_0fff974321" x="305.1" y="94.457218" style="fill: #de8f05; stroke: #363636; stroke-width: 0.5"/>
    </g>
    <g clip-path="url(#p8d60862d8b)">
     <use xlink:href="#C1_0_0fff974321" x="305.1" y="44.443636" style="fill: #de8f05; stroke: #363636; stroke-width: 0.5"/>
    </g>
   </g>
  </g>
 </g>
 <defs>
  <clipPath id="p8d60862d8b">
   <rect x="54" y="34.56" width="334.8" height="217.44"/>
  </clipPath>
 </defs>
</svg>
