<?xml version="1.0" encoding="utf-8" standalone="no"?>
<!DOCTYPE svg PUBLIC "-//W3C//DTD SVG 1.1//EN"
  "http://www.w3.org/Graphics/SVG/1.1/DTD/svg11.dtd">
<svg xmlns:xlink="http://www.w3.org/1999/xlink" width="435.35pt" height="360pt" viewBox="0 0 435.35 360" xmlns="http://www.w3.org/2000/svg" version="1.1">
 <metadata>
  <rdf:RDF xmlns:dc="http://purl.org/dc/elements/1.1/" xmlns:cc="http://creativecommons.org/ns#" xmlns:rdf="http://www.w3.org/1999/02/22-rdf-syntax-ns#">
   <cc:Work>
    <dc:type rdf:resource="http://purl.org/dc/dcmitype/StillImage"/>
    <dc:date>2022-07-18T17:33:56.386327</dc:date>
    <dc:format>image/svg+xml</dc:format>
    <dc:creator>
     <cc:Agent>
      <dc:title>Matplotlib v3.5.1, https://matplotlib.org/</dc:title>
     </cc:Agent>
    </dc:creator>
   </cc:Work>
  </rdf:RDF>
 </metadata>
 <defs>
  <style type="text/css">*{stroke-linejoin: round; stroke-linecap: butt}</style>
 </defs>
 <g id="figure_1">
  <g id="patch_1">
   <path d="M 0 360 
L 435.35 360 
L 435.35 0 
L 0 0 
z
" style="fill: #ffffff"/>
  </g>
  <g id="axes_1">
   <g id="patch_2">
    <path d="M 66.671283 313.54 
L 355.6465 313.54 
L 355.6465 12.96 
L 66.671283 12.96 
z
" style="fill: #eaeaf2"/>
   </g>
   <g id="matplotlib.axis_1">
    <g id="xtick_1">
     <g id="line2d_1">
      <path d="M 67.14605 313.54 
L 67.14605 12.96 
" clip-path="url(#p10c72cda92)" style="fill: none; stroke: #ffffff; stroke-linecap: round"/>
     </g>
     <g id="text_1">
      <!-- 0 -->
      <g style="fill: #262626" transform="translate(64.087535 330.913594)scale(0.11 -0.11)">
       <defs>
        <path id="ArialMT-30" d="M 266 2259 
Q 266 3072 433 3567 
Q 600 4063 929 4331 
Q 1259 4600 1759 4600 
Q 2128 4600 2406 4451 
Q 2684 4303 2865 4023 
Q 3047 3744 3150 3342 
Q 3253 2941 3253 2259 
Q 3253 1453 3087 958 
Q 2922 463 2592 192 
Q 2263 -78 1759 -78 
Q 1097 -78 719 397 
Q 266 969 266 2259 
z
M 844 2259 
Q 844 1131 1108 757 
Q 1372 384 1759 384 
Q 2147 384 2411 759 
Q 2675 1134 2675 2259 
Q 2675 3391 2411 3762 
Q 2147 4134 1753 4134 
Q 1366 4134 1134 3806 
Q 844 3388 844 2259 
z
" transform="scale(0.015625)"/>
       </defs>
       <use xlink:href="#ArialMT-30"/>
      </g>
     </g>
    </g>
    <g id="xtick_2">
     <g id="line2d_2">
      <path d="M 130.448398 313.54 
L 130.448398 12.96 
" clip-path="url(#p10c72cda92)" style="fill: none; stroke: #ffffff; stroke-linecap: round"/>
     </g>
     <g id="text_2">
      <!-- 20 -->
      <g style="fill: #262626" transform="translate(124.331367 330.913594)scale(0.11 -0.11)">
       <defs>
        <path id="ArialMT-32" d="M 3222 541 
L 3222 0 
L 194 0 
Q 188 203 259 391 
Q 375 700 629 1000 
Q 884 1300 1366 1694 
Q 2113 2306 2375 2664 
Q 2638 3022 2638 3341 
Q 2638 3675 2398 3904 
Q 2159 4134 1775 4134 
Q 1369 4134 1125 3890 
Q 881 3647 878 3216 
L 300 3275 
Q 359 3922 746 4261 
Q 1134 4600 1788 4600 
Q 2447 4600 2831 4234 
Q 3216 3869 3216 3328 
Q 3216 3053 3103 2787 
Q 2991 2522 2730 2228 
Q 2469 1934 1863 1422 
Q 1356 997 1212 845 
Q 1069 694 975 541 
L 3222 541 
z
" transform="scale(0.015625)"/>
       </defs>
       <use xlink:href="#ArialMT-32"/>
       <use xlink:href="#ArialMT-30" x="55.615234"/>
      </g>
     </g>
    </g>
    <g id="xtick_3">
     <g id="line2d_3">
      <path d="M 193.750746 313.54 
L 193.750746 12.96 
" clip-path="url(#p10c72cda92)" style="fill: none; stroke: #ffffff; stroke-linecap: round"/>
     </g>
     <g id="text_3">
      <!-- 40 -->
      <g style="fill: #262626" transform="translate(187.633714 330.913594)scale(0.11 -0.11)">
       <defs>
        <path id="ArialMT-34" d="M 2069 0 
L 2069 1097 
L 81 1097 
L 81 1613 
L 2172 4581 
L 2631 4581 
L 2631 1613 
L 3250 1613 
L 3250 1097 
L 2631 1097 
L 2631 0 
L 2069 0 
z
M 2069 1613 
L 2069 3678 
L 634 1613 
L 2069 1613 
z
" transform="scale(0.015625)"/>
       </defs>
       <use xlink:href="#ArialMT-34"/>
       <use xlink:href="#ArialMT-30" x="55.615234"/>
      </g>
     </g>
    </g>
    <g id="xtick_4">
     <g id="line2d_4">
      <path d="M 257.053093 313.54 
L 257.053093 12.96 
" clip-path="url(#p10c72cda92)" style="fill: none; stroke: #ffffff; stroke-linecap: round"/>
     </g>
     <g id="text_4">
      <!-- 60 -->
      <g style="fill: #262626" transform="translate(250.936062 330.913594)scale(0.11 -0.11)">
       <defs>
        <path id="ArialMT-36" d="M 3184 3459 
L 2625 3416 
Q 2550 3747 2413 3897 
Q 2184 4138 1850 4138 
Q 1581 4138 1378 3988 
Q 1113 3794 959 3422 
Q 806 3050 800 2363 
Q 1003 2672 1297 2822 
Q 1591 2972 1913 2972 
Q 2475 2972 2870 2558 
Q 3266 2144 3266 1488 
Q 3266 1056 3080 686 
Q 2894 316 2569 119 
Q 2244 -78 1831 -78 
Q 1128 -78 684 439 
Q 241 956 241 2144 
Q 241 3472 731 4075 
Q 1159 4600 1884 4600 
Q 2425 4600 2770 4297 
Q 3116 3994 3184 3459 
z
M 888 1484 
Q 888 1194 1011 928 
Q 1134 663 1356 523 
Q 1578 384 1822 384 
Q 2178 384 2434 671 
Q 2691 959 2691 1453 
Q 2691 1928 2437 2201 
Q 2184 2475 1800 2475 
Q 1419 2475 1153 2201 
Q 888 1928 888 1484 
z
" transform="scale(0.015625)"/>
       </defs>
       <use xlink:href="#ArialMT-36"/>
       <use xlink:href="#ArialMT-30" x="55.615234"/>
      </g>
     </g>
    </g>
    <g id="xtick_5">
     <g id="line2d_5">
      <path d="M 320.355441 313.54 
L 320.355441 12.96 
" clip-path="url(#p10c72cda92)" style="fill: none; stroke: #ffffff; stroke-linecap: round"/>
     </g>
     <g id="text_5">
      <!-- 80 -->
      <g style="fill: #262626" transform="translate(314.23841 330.913594)scale(0.11 -0.11)">
       <defs>
        <path id="ArialMT-38" d="M 1131 2484 
Q 781 2613 612 2850 
Q 444 3088 444 3419 
Q 444 3919 803 4259 
Q 1163 4600 1759 4600 
Q 2359 4600 2725 4251 
Q 3091 3903 3091 3403 
Q 3091 3084 2923 2848 
Q 2756 2613 2416 2484 
Q 2838 2347 3058 2040 
Q 3278 1734 3278 1309 
Q 3278 722 2862 322 
Q 2447 -78 1769 -78 
Q 1091 -78 675 323 
Q 259 725 259 1325 
Q 259 1772 486 2073 
Q 713 2375 1131 2484 
z
M 1019 3438 
Q 1019 3113 1228 2906 
Q 1438 2700 1772 2700 
Q 2097 2700 2305 2904 
Q 2513 3109 2513 3406 
Q 2513 3716 2298 3927 
Q 2084 4138 1766 4138 
Q 1444 4138 1231 3931 
Q 1019 3725 1019 3438 
z
M 838 1322 
Q 838 1081 952 856 
Q 1066 631 1291 507 
Q 1516 384 1775 384 
Q 2178 384 2440 643 
Q 2703 903 2703 1303 
Q 2703 1709 2433 1975 
Q 2163 2241 1756 2241 
Q 1359 2241 1098 1978 
Q 838 1716 838 1322 
z
" transform="scale(0.015625)"/>
       </defs>
       <use xlink:href="#ArialMT-38"/>
       <use xlink:href="#ArialMT-30" x="55.615234"/>
      </g>
     </g>
    </g>
    <g id="text_6">
     <!-- Num_Branches -->
     <g style="fill: #262626" transform="translate(169.808579 345.689219)scale(0.12 -0.12)">
      <defs>
       <path id="ArialMT-4e" d="M 488 0 
L 488 4581 
L 1109 4581 
L 3516 984 
L 3516 4581 
L 4097 4581 
L 4097 0 
L 3475 0 
L 1069 3600 
L 1069 0 
L 488 0 
z
" transform="scale(0.015625)"/>
       <path id="ArialMT-75" d="M 2597 0 
L 2597 488 
Q 2209 -75 1544 -75 
Q 1250 -75 995 37 
Q 741 150 617 320 
Q 494 491 444 738 
Q 409 903 409 1263 
L 409 3319 
L 972 3319 
L 972 1478 
Q 972 1038 1006 884 
Q 1059 663 1231 536 
Q 1403 409 1656 409 
Q 1909 409 2131 539 
Q 2353 669 2445 892 
Q 2538 1116 2538 1541 
L 2538 3319 
L 3100 3319 
L 3100 0 
L 2597 0 
z
" transform="scale(0.015625)"/>
       <path id="ArialMT-6d" d="M 422 0 
L 422 3319 
L 925 3319 
L 925 2853 
Q 1081 3097 1340 3245 
Q 1600 3394 1931 3394 
Q 2300 3394 2536 3241 
Q 2772 3088 2869 2813 
Q 3263 3394 3894 3394 
Q 4388 3394 4653 3120 
Q 4919 2847 4919 2278 
L 4919 0 
L 4359 0 
L 4359 2091 
Q 4359 2428 4304 2576 
Q 4250 2725 4106 2815 
Q 3963 2906 3769 2906 
Q 3419 2906 3187 2673 
Q 2956 2441 2956 1928 
L 2956 0 
L 2394 0 
L 2394 2156 
Q 2394 2531 2256 2718 
Q 2119 2906 1806 2906 
Q 1569 2906 1367 2781 
Q 1166 2656 1075 2415 
Q 984 2175 984 1722 
L 984 0 
L 422 0 
z
" transform="scale(0.015625)"/>
       <path id="ArialMT-5f" d="M -97 -1272 
L -97 -866 
L 3631 -866 
L 3631 -1272 
L -97 -1272 
z
" transform="scale(0.015625)"/>
       <path id="ArialMT-42" d="M 469 0 
L 469 4581 
L 2188 4581 
Q 2713 4581 3030 4442 
Q 3347 4303 3526 4014 
Q 3706 3725 3706 3409 
Q 3706 3116 3547 2856 
Q 3388 2597 3066 2438 
Q 3481 2316 3704 2022 
Q 3928 1728 3928 1328 
Q 3928 1006 3792 729 
Q 3656 453 3456 303 
Q 3256 153 2954 76 
Q 2653 0 2216 0 
L 469 0 
z
M 1075 2656 
L 2066 2656 
Q 2469 2656 2644 2709 
Q 2875 2778 2992 2937 
Q 3109 3097 3109 3338 
Q 3109 3566 3000 3739 
Q 2891 3913 2687 3977 
Q 2484 4041 1991 4041 
L 1075 4041 
L 1075 2656 
z
M 1075 541 
L 2216 541 
Q 2509 541 2628 563 
Q 2838 600 2978 687 
Q 3119 775 3209 942 
Q 3300 1109 3300 1328 
Q 3300 1584 3169 1773 
Q 3038 1963 2805 2039 
Q 2572 2116 2134 2116 
L 1075 2116 
L 1075 541 
z
" transform="scale(0.015625)"/>
       <path id="ArialMT-72" d="M 416 0 
L 416 3319 
L 922 3319 
L 922 2816 
Q 1116 3169 1280 3281 
Q 1444 3394 1641 3394 
Q 1925 3394 2219 3213 
L 2025 2691 
Q 1819 2813 1613 2813 
Q 1428 2813 1281 2702 
Q 1134 2591 1072 2394 
Q 978 2094 978 1738 
L 978 0 
L 416 0 
z
" transform="scale(0.015625)"/>
       <path id="ArialMT-61" d="M 2588 409 
Q 2275 144 1986 34 
Q 1697 -75 1366 -75 
Q 819 -75 525 192 
Q 231 459 231 875 
Q 231 1119 342 1320 
Q 453 1522 633 1644 
Q 813 1766 1038 1828 
Q 1203 1872 1538 1913 
Q 2219 1994 2541 2106 
Q 2544 2222 2544 2253 
Q 2544 2597 2384 2738 
Q 2169 2928 1744 2928 
Q 1347 2928 1158 2789 
Q 969 2650 878 2297 
L 328 2372 
Q 403 2725 575 2942 
Q 747 3159 1072 3276 
Q 1397 3394 1825 3394 
Q 2250 3394 2515 3294 
Q 2781 3194 2906 3042 
Q 3031 2891 3081 2659 
Q 3109 2516 3109 2141 
L 3109 1391 
Q 3109 606 3145 398 
Q 3181 191 3288 0 
L 2700 0 
Q 2613 175 2588 409 
z
M 2541 1666 
Q 2234 1541 1622 1453 
Q 1275 1403 1131 1340 
Q 988 1278 909 1158 
Q 831 1038 831 891 
Q 831 666 1001 516 
Q 1172 366 1500 366 
Q 1825 366 2078 508 
Q 2331 650 2450 897 
Q 2541 1088 2541 1459 
L 2541 1666 
z
" transform="scale(0.015625)"/>
       <path id="ArialMT-6e" d="M 422 0 
L 422 3319 
L 928 3319 
L 928 2847 
Q 1294 3394 1984 3394 
Q 2284 3394 2536 3286 
Q 2788 3178 2913 3003 
Q 3038 2828 3088 2588 
Q 3119 2431 3119 2041 
L 3119 0 
L 2556 0 
L 2556 2019 
Q 2556 2363 2490 2533 
Q 2425 2703 2258 2804 
Q 2091 2906 1866 2906 
Q 1506 2906 1245 2678 
Q 984 2450 984 1813 
L 984 0 
L 422 0 
z
" transform="scale(0.015625)"/>
       <path id="ArialMT-63" d="M 2588 1216 
L 3141 1144 
Q 3050 572 2676 248 
Q 2303 -75 1759 -75 
Q 1078 -75 664 370 
Q 250 816 250 1647 
Q 250 2184 428 2587 
Q 606 2991 970 3192 
Q 1334 3394 1763 3394 
Q 2303 3394 2647 3120 
Q 2991 2847 3088 2344 
L 2541 2259 
Q 2463 2594 2264 2762 
Q 2066 2931 1784 2931 
Q 1359 2931 1093 2626 
Q 828 2322 828 1663 
Q 828 994 1084 691 
Q 1341 388 1753 388 
Q 2084 388 2306 591 
Q 2528 794 2588 1216 
z
" transform="scale(0.015625)"/>
       <path id="ArialMT-68" d="M 422 0 
L 422 4581 
L 984 4581 
L 984 2938 
Q 1378 3394 1978 3394 
Q 2347 3394 2619 3248 
Q 2891 3103 3008 2847 
Q 3125 2591 3125 2103 
L 3125 0 
L 2563 0 
L 2563 2103 
Q 2563 2525 2380 2717 
Q 2197 2909 1863 2909 
Q 1613 2909 1392 2779 
Q 1172 2650 1078 2428 
Q 984 2206 984 1816 
L 984 0 
L 422 0 
z
" transform="scale(0.015625)"/>
       <path id="ArialMT-65" d="M 2694 1069 
L 3275 997 
Q 3138 488 2766 206 
Q 2394 -75 1816 -75 
Q 1088 -75 661 373 
Q 234 822 234 1631 
Q 234 2469 665 2931 
Q 1097 3394 1784 3394 
Q 2450 3394 2872 2941 
Q 3294 2488 3294 1666 
Q 3294 1616 3291 1516 
L 816 1516 
Q 847 969 1125 678 
Q 1403 388 1819 388 
Q 2128 388 2347 550 
Q 2566 713 2694 1069 
z
M 847 1978 
L 2700 1978 
Q 2663 2397 2488 2606 
Q 2219 2931 1791 2931 
Q 1403 2931 1139 2672 
Q 875 2413 847 1978 
z
" transform="scale(0.015625)"/>
       <path id="ArialMT-73" d="M 197 991 
L 753 1078 
Q 800 744 1014 566 
Q 1228 388 1613 388 
Q 2000 388 2187 545 
Q 2375 703 2375 916 
Q 2375 1106 2209 1216 
Q 2094 1291 1634 1406 
Q 1016 1563 777 1677 
Q 538 1791 414 1992 
Q 291 2194 291 2438 
Q 291 2659 392 2848 
Q 494 3038 669 3163 
Q 800 3259 1026 3326 
Q 1253 3394 1513 3394 
Q 1903 3394 2198 3281 
Q 2494 3169 2634 2976 
Q 2775 2784 2828 2463 
L 2278 2388 
Q 2241 2644 2061 2787 
Q 1881 2931 1553 2931 
Q 1166 2931 1000 2803 
Q 834 2675 834 2503 
Q 834 2394 903 2306 
Q 972 2216 1119 2156 
Q 1203 2125 1616 2013 
Q 2213 1853 2448 1751 
Q 2684 1650 2818 1456 
Q 2953 1263 2953 975 
Q 2953 694 2789 445 
Q 2625 197 2315 61 
Q 2006 -75 1616 -75 
Q 969 -75 630 194 
Q 291 463 197 991 
z
" transform="scale(0.015625)"/>
      </defs>
      <use xlink:href="#ArialMT-4e"/>
      <use xlink:href="#ArialMT-75" x="72.216797"/>
      <use xlink:href="#ArialMT-6d" x="127.832031"/>
      <use xlink:href="#ArialMT-5f" x="211.132812"/>
      <use xlink:href="#ArialMT-42" x="266.748047"/>
      <use xlink:href="#ArialMT-72" x="333.447266"/>
      <use xlink:href="#ArialMT-61" x="366.748047"/>
      <use xlink:href="#ArialMT-6e" x="422.363281"/>
      <use xlink:href="#ArialMT-63" x="477.978516"/>
      <use xlink:href="#ArialMT-68" x="527.978516"/>
      <use xlink:href="#ArialMT-65" x="583.59375"/>
      <use xlink:href="#ArialMT-73" x="639.208984"/>
     </g>
    </g>
   </g>
   <g id="matplotlib.axis_2">
    <g id="ytick_1">
     <g id="line2d_6">
      <path d="M 66.671283 284.074057 
L 355.6465 284.074057 
" clip-path="url(#p10c72cda92)" style="fill: none; stroke: #ffffff; stroke-linecap: round"/>
     </g>
     <g id="text_7">
      <!-- −50 -->
      <g style="fill: #262626" transform="translate(38.512533 288.010854)scale(0.11 -0.11)">
       <defs>
        <path id="ArialMT-2212" d="M 3381 1997 
L 356 1997 
L 356 2522 
L 3381 2522 
L 3381 1997 
z
" transform="scale(0.015625)"/>
        <path id="ArialMT-35" d="M 266 1200 
L 856 1250 
Q 922 819 1161 601 
Q 1400 384 1738 384 
Q 2144 384 2425 690 
Q 2706 997 2706 1503 
Q 2706 1984 2436 2262 
Q 2166 2541 1728 2541 
Q 1456 2541 1237 2417 
Q 1019 2294 894 2097 
L 366 2166 
L 809 4519 
L 3088 4519 
L 3088 3981 
L 1259 3981 
L 1013 2750 
Q 1425 3038 1878 3038 
Q 2478 3038 2890 2622 
Q 3303 2206 3303 1553 
Q 3303 931 2941 478 
Q 2500 -78 1738 -78 
Q 1113 -78 717 272 
Q 322 622 266 1200 
z
" transform="scale(0.015625)"/>
       </defs>
       <use xlink:href="#ArialMT-2212"/>
       <use xlink:href="#ArialMT-35" x="58.398438"/>
       <use xlink:href="#ArialMT-30" x="114.013672"/>
      </g>
     </g>
    </g>
    <g id="ytick_2">
     <g id="line2d_7">
      <path d="M 66.671283 224.518022 
L 355.6465 224.518022 
" clip-path="url(#p10c72cda92)" style="fill: none; stroke: #ffffff; stroke-linecap: round"/>
     </g>
     <g id="text_8">
      <!-- 0 -->
      <g style="fill: #262626" transform="translate(51.054251 228.454819)scale(0.11 -0.11)">
       <use xlink:href="#ArialMT-30"/>
      </g>
     </g>
    </g>
    <g id="ytick_3">
     <g id="line2d_8">
      <path d="M 66.671283 164.961987 
L 355.6465 164.961987 
" clip-path="url(#p10c72cda92)" style="fill: none; stroke: #ffffff; stroke-linecap: round"/>
     </g>
     <g id="text_9">
      <!-- 50 -->
      <g style="fill: #262626" transform="translate(44.93722 168.898784)scale(0.11 -0.11)">
       <use xlink:href="#ArialMT-35"/>
       <use xlink:href="#ArialMT-30" x="55.615234"/>
      </g>
     </g>
    </g>
    <g id="ytick_4">
     <g id="line2d_9">
      <path d="M 66.671283 105.405952 
L 355.6465 105.405952 
" clip-path="url(#p10c72cda92)" style="fill: none; stroke: #ffffff; stroke-linecap: round"/>
     </g>
     <g id="text_10">
      <!-- 100 -->
      <g style="fill: #262626" transform="translate(38.820189 109.342749)scale(0.11 -0.11)">
       <defs>
        <path id="ArialMT-31" d="M 2384 0 
L 1822 0 
L 1822 3584 
Q 1619 3391 1289 3197 
Q 959 3003 697 2906 
L 697 3450 
Q 1169 3672 1522 3987 
Q 1875 4303 2022 4600 
L 2384 4600 
L 2384 0 
z
" transform="scale(0.015625)"/>
       </defs>
       <use xlink:href="#ArialMT-31"/>
       <use xlink:href="#ArialMT-30" x="55.615234"/>
       <use xlink:href="#ArialMT-30" x="111.230469"/>
      </g>
     </g>
    </g>
    <g id="ytick_5">
     <g id="line2d_10">
      <path d="M 66.671283 45.849917 
L 355.6465 45.849917 
" clip-path="url(#p10c72cda92)" style="fill: none; stroke: #ffffff; stroke-linecap: round"/>
     </g>
     <g id="text_11">
      <!-- 150 -->
      <g style="fill: #262626" transform="translate(38.820189 49.786714)scale(0.11 -0.11)">
       <use xlink:href="#ArialMT-31"/>
       <use xlink:href="#ArialMT-35" x="55.615234"/>
       <use xlink:href="#ArialMT-30" x="111.230469"/>
      </g>
     </g>
    </g>
    <g id="text_12">
     <!-- Average_Branch_Length -->
     <g style="fill: #262626" transform="translate(31.986908 229.52375)rotate(-90)scale(0.12 -0.12)">
      <defs>
       <path id="ArialMT-41" d="M -9 0 
L 1750 4581 
L 2403 4581 
L 4278 0 
L 3588 0 
L 3053 1388 
L 1138 1388 
L 634 0 
L -9 0 
z
M 1313 1881 
L 2866 1881 
L 2388 3150 
Q 2169 3728 2063 4100 
Q 1975 3659 1816 3225 
L 1313 1881 
z
" transform="scale(0.015625)"/>
       <path id="ArialMT-76" d="M 1344 0 
L 81 3319 
L 675 3319 
L 1388 1331 
Q 1503 1009 1600 663 
Q 1675 925 1809 1294 
L 2547 3319 
L 3125 3319 
L 1869 0 
L 1344 0 
z
" transform="scale(0.015625)"/>
       <path id="ArialMT-67" d="M 319 -275 
L 866 -356 
Q 900 -609 1056 -725 
Q 1266 -881 1628 -881 
Q 2019 -881 2231 -725 
Q 2444 -569 2519 -288 
Q 2563 -116 2559 434 
Q 2191 0 1641 0 
Q 956 0 581 494 
Q 206 988 206 1678 
Q 206 2153 378 2554 
Q 550 2956 876 3175 
Q 1203 3394 1644 3394 
Q 2231 3394 2613 2919 
L 2613 3319 
L 3131 3319 
L 3131 450 
Q 3131 -325 2973 -648 
Q 2816 -972 2473 -1159 
Q 2131 -1347 1631 -1347 
Q 1038 -1347 672 -1080 
Q 306 -813 319 -275 
z
M 784 1719 
Q 784 1066 1043 766 
Q 1303 466 1694 466 
Q 2081 466 2343 764 
Q 2606 1063 2606 1700 
Q 2606 2309 2336 2618 
Q 2066 2928 1684 2928 
Q 1309 2928 1046 2623 
Q 784 2319 784 1719 
z
" transform="scale(0.015625)"/>
       <path id="ArialMT-4c" d="M 469 0 
L 469 4581 
L 1075 4581 
L 1075 541 
L 3331 541 
L 3331 0 
L 469 0 
z
" transform="scale(0.015625)"/>
       <path id="ArialMT-74" d="M 1650 503 
L 1731 6 
Q 1494 -44 1306 -44 
Q 1000 -44 831 53 
Q 663 150 594 308 
Q 525 466 525 972 
L 525 2881 
L 113 2881 
L 113 3319 
L 525 3319 
L 525 4141 
L 1084 4478 
L 1084 3319 
L 1650 3319 
L 1650 2881 
L 1084 2881 
L 1084 941 
Q 1084 700 1114 631 
Q 1144 563 1211 522 
Q 1278 481 1403 481 
Q 1497 481 1650 503 
z
" transform="scale(0.015625)"/>
      </defs>
      <use xlink:href="#ArialMT-41"/>
      <use xlink:href="#ArialMT-76" x="64.949219"/>
      <use xlink:href="#ArialMT-65" x="114.949219"/>
      <use xlink:href="#ArialMT-72" x="170.564453"/>
      <use xlink:href="#ArialMT-61" x="203.865234"/>
      <use xlink:href="#ArialMT-67" x="259.480469"/>
      <use xlink:href="#ArialMT-65" x="315.095703"/>
      <use xlink:href="#ArialMT-5f" x="370.710938"/>
      <use xlink:href="#ArialMT-42" x="426.326172"/>
      <use xlink:href="#ArialMT-72" x="493.025391"/>
      <use xlink:href="#ArialMT-61" x="526.326172"/>
      <use xlink:href="#ArialMT-6e" x="581.941406"/>
      <use xlink:href="#ArialMT-63" x="637.556641"/>
      <use xlink:href="#ArialMT-68" x="687.556641"/>
      <use xlink:href="#ArialMT-5f" x="743.171875"/>
      <use xlink:href="#ArialMT-4c" x="798.787109"/>
      <use xlink:href="#ArialMT-65" x="854.402344"/>
      <use xlink:href="#ArialMT-6e" x="910.017578"/>
      <use xlink:href="#ArialMT-67" x="965.632812"/>
      <use xlink:href="#ArialMT-74" x="1021.248047"/>
      <use xlink:href="#ArialMT-68" x="1049.03125"/>
     </g>
    </g>
   </g>
   <g id="PathCollection_1">
    <defs>
     <path id="m7da0526473" d="M 0 3 
C 0.795609 3 1.55874 2.683901 2.12132 2.12132 
C 2.683901 1.55874 3 0.795609 3 0 
C 3 -0.795609 2.683901 -1.55874 2.12132 -2.12132 
C 1.55874 -2.683901 0.795609 -3 0 -3 
C -0.795609 -3 -1.55874 -2.683901 -2.12132 -2.12132 
C -2.683901 -1.55874 -3 -0.795609 -3 0 
C -3 0.795609 -2.683901 1.55874 -2.12132 2.12132 
C -1.55874 2.683901 -0.795609 3 0 3 
z
" style="stroke: #0173b2; stroke-opacity: 0.8"/>
    </defs>
    <g clip-path="url(#p10c72cda92)">
     <use xlink:href="#m7da0526473" x="95.632107" y="26.622727" style="fill: #0173b2; fill-opacity: 0.8; stroke: #0173b2; stroke-opacity: 0.8"/>
     <use xlink:href="#m7da0526473" x="133.613515" y="149.962454" style="fill: #0173b2; fill-opacity: 0.8; stroke: #0173b2; stroke-opacity: 0.8"/>
     <use xlink:href="#m7da0526473" x="124.118163" y="99.457019" style="fill: #0173b2; fill-opacity: 0.8; stroke: #0173b2; stroke-opacity: 0.8"/>
     <use xlink:href="#m7da0526473" x="120.953046" y="174.262091" style="fill: #0173b2; fill-opacity: 0.8; stroke: #0173b2; stroke-opacity: 0.8"/>
     <use xlink:href="#m7da0526473" x="143.108868" y="154.636281" style="fill: #0173b2; fill-opacity: 0.8; stroke: #0173b2; stroke-opacity: 0.8"/>
     <use xlink:href="#m7da0526473" x="108.292576" y="134.636959" style="fill: #0173b2; fill-opacity: 0.8; stroke: #0173b2; stroke-opacity: 0.8"/>
     <use xlink:href="#m7da0526473" x="101.962342" y="165.85927" style="fill: #0173b2; fill-opacity: 0.8; stroke: #0173b2; stroke-opacity: 0.8"/>
     <use xlink:href="#m7da0526473" x="130.448398" y="161.827481" style="fill: #0173b2; fill-opacity: 0.8; stroke: #0173b2; stroke-opacity: 0.8"/>
     <use xlink:href="#m7da0526473" x="82.971637" y="160.88434" style="fill: #0173b2; fill-opacity: 0.8; stroke: #0173b2; stroke-opacity: 0.8"/>
     <use xlink:href="#m7da0526473" x="114.622811" y="161.370615" style="fill: #0173b2; fill-opacity: 0.8; stroke: #0173b2; stroke-opacity: 0.8"/>
     <use xlink:href="#m7da0526473" x="92.466989" y="80.255557" style="fill: #0173b2; fill-opacity: 0.8; stroke: #0173b2; stroke-opacity: 0.8"/>
     <use xlink:href="#m7da0526473" x="247.557741" y="204.64378" style="fill: #0173b2; fill-opacity: 0.8; stroke: #0173b2; stroke-opacity: 0.8"/>
     <use xlink:href="#m7da0526473" x="206.411215" y="145.851527" style="fill: #0173b2; fill-opacity: 0.8; stroke: #0173b2; stroke-opacity: 0.8"/>
     <use xlink:href="#m7da0526473" x="203.246098" y="182.867521" style="fill: #0173b2; fill-opacity: 0.8; stroke: #0173b2; stroke-opacity: 0.8"/>
     <use xlink:href="#m7da0526473" x="209.576333" y="192.87839" style="fill: #0173b2; fill-opacity: 0.8; stroke: #0173b2; stroke-opacity: 0.8"/>
     <use xlink:href="#m7da0526473" x="117.787928" y="109.646997" style="fill: #0173b2; fill-opacity: 0.8; stroke: #0173b2; stroke-opacity: 0.8"/>
     <use xlink:href="#m7da0526473" x="111.457694" y="102.87351" style="fill: #0173b2; fill-opacity: 0.8; stroke: #0173b2; stroke-opacity: 0.8"/>
     <use xlink:href="#m7da0526473" x="139.94375" y="186.863886" style="fill: #0173b2; fill-opacity: 0.8; stroke: #0173b2; stroke-opacity: 0.8"/>
     <use xlink:href="#m7da0526473" x="152.60422" y="176.461733" style="fill: #0173b2; fill-opacity: 0.8; stroke: #0173b2; stroke-opacity: 0.8"/>
    </g>
   </g>
   <g id="PolyCollection_1">
    <defs>
     <path id="me9f84f250b" d="M 82.971637 -277.11732 
L 82.971637 -215.336694 
L 84.634123 -214.827773 
L 86.296609 -214.373007 
L 87.959095 -213.949511 
L 89.621581 -213.64431 
L 91.284067 -213.100837 
L 92.946553 -212.526099 
L 94.609039 -212.093168 
L 96.271524 -211.660237 
L 97.93401 -211.227306 
L 99.596496 -210.794375 
L 101.258982 -210.302895 
L 102.921468 -209.805132 
L 104.583954 -209.332726 
L 106.24644 -208.827675 
L 107.908926 -208.300514 
L 109.571412 -207.785054 
L 111.233898 -207.278931 
L 112.896383 -206.772808 
L 114.558869 -206.266685 
L 116.221355 -205.760562 
L 117.883841 -205.254439 
L 119.546327 -204.750876 
L 121.208813 -204.321312 
L 122.871299 -203.740773 
L 124.533785 -203.228379 
L 126.196271 -202.495589 
L 127.858757 -201.961798 
L 129.521242 -201.433489 
L 131.183728 -200.910541 
L 132.846214 -200.453574 
L 134.5087 -199.773862 
L 136.171186 -199.067217 
L 137.833672 -198.057115 
L 139.496158 -197.502227 
L 141.158644 -196.989672 
L 142.82113 -196.399127 
L 144.483616 -195.603621 
L 146.146101 -194.899371 
L 147.808587 -194.117724 
L 149.471073 -193.265345 
L 151.133559 -192.683406 
L 152.796045 -192.125592 
L 154.458531 -191.443596 
L 156.121017 -190.503778 
L 157.783503 -189.525522 
L 159.445989 -188.808026 
L 161.108475 -187.82019 
L 162.77096 -187.120708 
L 164.433446 -185.819117 
L 166.095932 -184.724505 
L 167.758418 -183.551856 
L 169.420904 -182.550387 
L 171.08339 -181.350712 
L 172.745876 -180.145486 
L 174.408362 -178.865886 
L 176.070848 -177.617435 
L 177.733334 -176.013064 
L 179.395819 -174.344063 
L 181.058305 -172.785583 
L 182.720791 -171.26653 
L 184.383277 -169.848974 
L 186.045763 -168.249215 
L 187.708249 -166.822477 
L 189.370735 -165.404099 
L 191.033221 -164.069708 
L 192.695707 -162.761194 
L 194.358193 -161.266316 
L 196.020678 -159.714957 
L 197.683164 -158.288162 
L 199.34565 -156.861366 
L 201.008136 -155.434571 
L 202.670622 -153.759981 
L 204.333108 -152.06565 
L 205.995594 -150.510587 
L 207.65808 -149.145916 
L 209.320566 -147.552327 
L 210.983052 -146.080478 
L 212.645537 -144.696734 
L 214.308023 -143.31299 
L 215.970509 -141.929246 
L 217.632995 -140.35689 
L 219.295481 -138.565356 
L 220.957967 -136.773822 
L 222.620453 -134.982287 
L 224.282939 -133.190753 
L 225.945425 -131.560289 
L 227.607911 -129.963099 
L 229.270396 -128.388936 
L 230.932882 -126.864755 
L 232.595368 -125.231344 
L 234.257854 -123.565891 
L 235.92034 -121.963057 
L 237.582826 -120.360222 
L 239.245312 -118.757408 
L 240.907798 -117.158433 
L 242.570284 -115.559458 
L 244.232769 -113.960483 
L 245.895255 -112.361508 
L 247.557741 -110.762534 
L 247.557741 -180.770877 
L 247.557741 -180.770877 
L 245.895255 -181.260023 
L 244.232769 -181.749836 
L 242.570284 -182.235125 
L 240.907798 -182.716698 
L 239.245312 -183.208393 
L 237.582826 -183.701916 
L 235.92034 -184.188568 
L 234.257854 -184.694177 
L 232.595368 -185.165861 
L 230.932882 -185.713996 
L 229.270396 -186.405696 
L 227.607911 -187.045468 
L 225.945425 -187.544713 
L 224.282939 -188.113932 
L 222.620453 -188.73388 
L 220.957967 -189.329824 
L 219.295481 -189.925612 
L 217.632995 -190.520705 
L 215.970509 -191.156753 
L 214.308023 -191.609168 
L 212.645537 -192.043736 
L 210.983052 -192.462258 
L 209.320566 -192.87056 
L 207.65808 -193.273808 
L 205.995594 -193.677056 
L 204.333108 -194.086516 
L 202.670622 -194.528922 
L 201.008136 -195.101373 
L 199.34565 -195.775805 
L 197.683164 -196.446337 
L 196.020678 -197.078644 
L 194.358193 -197.897374 
L 192.695707 -198.686405 
L 191.033221 -199.301015 
L 189.370735 -199.981205 
L 187.708249 -200.827086 
L 186.045763 -201.70315 
L 184.383277 -202.283566 
L 182.720791 -203.019369 
L 181.058305 -203.945808 
L 179.395819 -204.783998 
L 177.733334 -205.595951 
L 176.070848 -206.447336 
L 174.408362 -207.279183 
L 172.745876 -208.144053 
L 171.08339 -208.9458 
L 169.420904 -209.7437 
L 167.758418 -210.597534 
L 166.095932 -211.444473 
L 164.433446 -212.722178 
L 162.77096 -213.776631 
L 161.108475 -214.842706 
L 159.445989 -215.790051 
L 157.783503 -216.800437 
L 156.121017 -217.895882 
L 154.458531 -218.958531 
L 152.796045 -219.938082 
L 151.133559 -220.996677 
L 149.471073 -222.199017 
L 147.808587 -223.342766 
L 146.146101 -224.523571 
L 144.483616 -225.465041 
L 142.82113 -226.80302 
L 141.158644 -228.173401 
L 139.496158 -229.579253 
L 137.833672 -230.912662 
L 136.171186 -232.359558 
L 134.5087 -233.709914 
L 132.846214 -235.064629 
L 131.183728 -236.384764 
L 129.521242 -237.594452 
L 127.858757 -238.650946 
L 126.196271 -239.695262 
L 124.533785 -241.202925 
L 122.871299 -242.818787 
L 121.208813 -244.441204 
L 119.546327 -245.891399 
L 117.883841 -247.125919 
L 116.221355 -248.568042 
L 114.558869 -250.107569 
L 112.896383 -251.655204 
L 111.233898 -253.092277 
L 109.571412 -254.529779 
L 107.908926 -256.156322 
L 106.24644 -257.421969 
L 104.583954 -258.607581 
L 102.921468 -259.936075 
L 101.258982 -261.325488 
L 99.596496 -262.746581 
L 97.93401 -264.307149 
L 96.271524 -265.673718 
L 94.609039 -267.348385 
L 92.946553 -268.814696 
L 91.284067 -270.053912 
L 89.621581 -271.293128 
L 87.959095 -272.681892 
L 86.296609 -274.077066 
L 84.634123 -275.640139 
L 82.971637 -277.11732 
z
" style="stroke: #ffffff; stroke-opacity: 0.15"/>
    </defs>
    <g clip-path="url(#p10c72cda92)">
     <use xlink:href="#me9f84f250b" x="0" y="360" style="fill: #0173b2; fill-opacity: 0.15; stroke: #ffffff; stroke-opacity: 0.15"/>
    </g>
   </g>
   <g id="PathCollection_2">
    <defs>
     <path id="m345eda0111" d="M 0 3 
C 0.795609 3 1.55874 2.683901 2.12132 2.12132 
C 2.683901 1.55874 3 0.795609 3 0 
C 3 -0.795609 2.683901 -1.55874 2.12132 -2.12132 
C 1.55874 -2.683901 0.795609 -3 0 -3 
C -0.795609 -3 -1.55874 -2.683901 -2.12132 -2.12132 
C -2.683901 -1.55874 -3 -0.795609 -3 0 
C -3 0.795609 -2.683901 1.55874 -2.12132 2.12132 
C -1.55874 2.683901 -0.795609 3 0 3 
z
" style="stroke: #de8f05; stroke-opacity: 0.8"/>
    </defs>
    <g clip-path="url(#p10c72cda92)">
     <use xlink:href="#m345eda0111" x="79.80652" y="135.743427" style="fill: #de8f05; fill-opacity: 0.8; stroke: #de8f05; stroke-opacity: 0.8"/>
     <use xlink:href="#m345eda0111" x="222.236802" y="190.36366" style="fill: #de8f05; fill-opacity: 0.8; stroke: #de8f05; stroke-opacity: 0.8"/>
     <use xlink:href="#m345eda0111" x="155.769337" y="187.653741" style="fill: #de8f05; fill-opacity: 0.8; stroke: #de8f05; stroke-opacity: 0.8"/>
     <use xlink:href="#m345eda0111" x="162.099572" y="165.301135" style="fill: #de8f05; fill-opacity: 0.8; stroke: #de8f05; stroke-opacity: 0.8"/>
     <use xlink:href="#m345eda0111" x="212.74145" y="195.563033" style="fill: #de8f05; fill-opacity: 0.8; stroke: #de8f05; stroke-opacity: 0.8"/>
     <use xlink:href="#m345eda0111" x="162.099572" y="189.500812" style="fill: #de8f05; fill-opacity: 0.8; stroke: #de8f05; stroke-opacity: 0.8"/>
     <use xlink:href="#m345eda0111" x="101.962342" y="98.668378" style="fill: #de8f05; fill-opacity: 0.8; stroke: #de8f05; stroke-opacity: 0.8"/>
     <use xlink:href="#m345eda0111" x="105.127459" y="132.617259" style="fill: #de8f05; fill-opacity: 0.8; stroke: #de8f05; stroke-opacity: 0.8"/>
     <use xlink:href="#m345eda0111" x="127.283281" y="121.02158" style="fill: #de8f05; fill-opacity: 0.8; stroke: #de8f05; stroke-opacity: 0.8"/>
     <use xlink:href="#m345eda0111" x="114.622811" y="131.95153" style="fill: #de8f05; fill-opacity: 0.8; stroke: #de8f05; stroke-opacity: 0.8"/>
     <use xlink:href="#m345eda0111" x="276.043798" y="192.550832" style="fill: #de8f05; fill-opacity: 0.8; stroke: #de8f05; stroke-opacity: 0.8"/>
     <use xlink:href="#m345eda0111" x="181.090276" y="163.997775" style="fill: #de8f05; fill-opacity: 0.8; stroke: #de8f05; stroke-opacity: 0.8"/>
     <use xlink:href="#m345eda0111" x="342.511263" y="210.69297" style="fill: #de8f05; fill-opacity: 0.8; stroke: #de8f05; stroke-opacity: 0.8"/>
     <use xlink:href="#m345eda0111" x="149.439102" y="184.362318" style="fill: #de8f05; fill-opacity: 0.8; stroke: #de8f05; stroke-opacity: 0.8"/>
     <use xlink:href="#m345eda0111" x="171.594924" y="184.902753" style="fill: #de8f05; fill-opacity: 0.8; stroke: #de8f05; stroke-opacity: 0.8"/>
     <use xlink:href="#m345eda0111" x="136.778633" y="187.671537" style="fill: #de8f05; fill-opacity: 0.8; stroke: #de8f05; stroke-opacity: 0.8"/>
     <use xlink:href="#m345eda0111" x="92.466989" y="118.163152" style="fill: #de8f05; fill-opacity: 0.8; stroke: #de8f05; stroke-opacity: 0.8"/>
     <use xlink:href="#m345eda0111" x="158.934455" y="182.069589" style="fill: #de8f05; fill-opacity: 0.8; stroke: #de8f05; stroke-opacity: 0.8"/>
     <use xlink:href="#m345eda0111" x="203.246098" y="205.270083" style="fill: #de8f05; fill-opacity: 0.8; stroke: #de8f05; stroke-opacity: 0.8"/>
    </g>
   </g>
   <g id="PolyCollection_2">
    <defs>
     <path id="m1536a22022" d="M 79.80652 -250.433489 
L 79.80652 -208.551358 
L 82.460103 -207.717867 
L 85.113686 -206.920445 
L 87.76727 -206.125356 
L 90.420853 -205.34825 
L 93.074436 -204.571144 
L 95.728019 -203.794039 
L 98.381603 -203.016933 
L 101.035186 -202.239828 
L 103.688769 -201.462722 
L 106.342352 -200.685616 
L 108.995936 -199.908511 
L 111.649519 -199.132783 
L 114.303102 -198.358278 
L 116.956686 -197.631345 
L 119.610269 -196.93732 
L 122.263852 -196.243295 
L 124.917435 -195.549269 
L 127.571019 -194.855244 
L 130.224602 -194.161219 
L 132.878185 -193.089314 
L 135.531768 -192.203527 
L 138.185352 -191.513339 
L 140.838935 -190.825128 
L 143.492518 -190.136918 
L 146.146101 -189.370604 
L 148.799685 -188.335982 
L 151.453268 -187.695607 
L 154.106851 -186.269706 
L 156.760434 -185.313165 
L 159.414018 -183.885009 
L 162.067601 -182.683298 
L 164.721184 -181.829914 
L 167.374768 -180.545309 
L 170.028351 -179.173595 
L 172.681934 -177.675967 
L 175.335517 -176.279087 
L 177.989101 -174.465952 
L 180.642684 -173.207935 
L 183.296267 -171.357512 
L 185.94985 -169.540681 
L 188.603434 -167.7012 
L 191.257017 -165.79721 
L 193.9106 -163.938656 
L 196.564183 -162.0848 
L 199.217767 -160.234487 
L 201.87135 -158.500007 
L 204.524933 -156.659895 
L 207.178516 -154.819783 
L 209.8321 -152.909241 
L 212.485683 -151.054996 
L 215.139266 -149.14802 
L 217.79285 -147.396677 
L 220.446433 -145.624478 
L 223.100016 -143.85545 
L 225.753599 -142.089709 
L 228.407183 -140.323967 
L 231.060766 -138.367602 
L 233.714349 -136.424122 
L 236.367932 -134.580135 
L 239.021516 -132.738436 
L 241.675099 -130.898323 
L 244.328682 -129.058211 
L 246.982265 -127.218099 
L 249.635849 -125.206328 
L 252.289432 -123.168409 
L 254.943015 -121.309985 
L 257.596598 -119.458552 
L 260.250182 -117.607948 
L 262.903765 -115.865103 
L 265.557348 -114.125315 
L 268.210932 -112.385953 
L 270.864515 -110.610051 
L 273.518098 -108.595366 
L 276.171681 -106.853358 
L 278.825265 -105.114954 
L 281.478848 -103.29664 
L 284.132431 -101.456528 
L 286.786014 -99.59396 
L 289.439598 -97.659455 
L 292.093181 -95.72495 
L 294.746764 -93.790444 
L 297.400347 -91.855939 
L 300.053931 -89.921434 
L 302.707514 -87.986928 
L 305.361097 -86.097008 
L 308.01468 -84.241412 
L 310.668264 -82.385815 
L 313.321847 -80.530218 
L 315.97543 -78.674621 
L 318.629013 -76.819024 
L 321.282597 -74.963427 
L 323.93618 -73.10783 
L 326.589763 -71.252233 
L 329.243347 -69.396636 
L 331.89693 -67.541039 
L 334.550513 -65.685442 
L 337.204096 -63.830439 
L 339.85768 -61.976583 
L 342.511263 -60.122727 
L 342.511263 -141.603937 
L 342.511263 -141.603937 
L 339.85768 -142.306714 
L 337.204096 -143.073005 
L 334.550513 -143.766846 
L 331.89693 -144.503999 
L 329.243347 -145.253884 
L 326.589763 -145.982111 
L 323.93618 -146.727092 
L 321.282597 -147.455835 
L 318.629013 -148.322778 
L 315.97543 -149.104714 
L 313.321847 -149.941803 
L 310.668264 -150.788059 
L 308.01468 -151.693609 
L 305.361097 -152.42086 
L 302.707514 -153.105316 
L 300.053931 -153.866286 
L 297.400347 -154.688272 
L 294.746764 -155.595257 
L 292.093181 -156.29852 
L 289.439598 -157.248515 
L 286.786014 -158.030052 
L 284.132431 -158.884977 
L 281.478848 -159.732483 
L 278.825265 -160.590534 
L 276.171681 -161.459016 
L 273.518098 -162.375268 
L 270.864515 -163.239292 
L 268.210932 -164.058455 
L 265.557348 -164.940517 
L 262.903765 -165.797456 
L 260.250182 -166.794249 
L 257.596598 -167.631304 
L 254.943015 -168.566989 
L 252.289432 -169.499038 
L 249.635849 -170.336442 
L 246.982265 -171.222117 
L 244.328682 -172.220405 
L 241.675099 -173.159965 
L 239.021516 -174.092106 
L 236.367932 -175.167396 
L 233.714349 -176.092259 
L 231.060766 -177.049945 
L 228.407183 -178.066815 
L 225.753599 -179.07966 
L 223.100016 -179.946989 
L 220.446433 -180.861372 
L 217.79285 -181.850496 
L 215.139266 -182.763993 
L 212.485683 -183.67749 
L 209.8321 -184.747268 
L 207.178516 -185.80819 
L 204.524933 -186.873917 
L 201.87135 -187.894795 
L 199.217767 -188.908559 
L 196.564183 -190.011044 
L 193.9106 -190.988676 
L 191.257017 -192.071662 
L 188.603434 -193.228702 
L 185.94985 -194.31868 
L 183.296267 -195.35776 
L 180.642684 -196.394232 
L 177.989101 -197.41558 
L 175.335517 -198.530548 
L 172.681934 -199.614904 
L 170.028351 -200.72786 
L 167.374768 -201.834387 
L 164.721184 -202.954879 
L 162.067601 -203.993498 
L 159.414018 -205.181259 
L 156.760434 -206.340036 
L 154.106851 -207.455499 
L 151.453268 -208.561309 
L 148.799685 -209.666764 
L 146.146101 -210.772186 
L 143.492518 -211.93366 
L 140.838935 -213.183878 
L 138.185352 -214.397691 
L 135.531768 -215.742256 
L 132.878185 -217.066629 
L 130.224602 -218.219727 
L 127.571019 -219.561775 
L 124.917435 -220.986134 
L 122.263852 -222.418518 
L 119.610269 -223.876011 
L 116.956686 -225.485669 
L 114.303102 -227.100073 
L 111.649519 -228.787604 
L 108.995936 -230.652121 
L 106.342352 -232.02763 
L 103.688769 -233.869886 
L 101.035186 -235.535698 
L 98.381603 -237.096521 
L 95.728019 -238.872242 
L 93.074436 -240.621196 
L 90.420853 -242.776078 
L 87.76727 -244.672404 
L 85.113686 -246.478321 
L 82.460103 -248.505061 
L 79.80652 -250.433489 
z
" style="stroke: #ffffff; stroke-opacity: 0.15"/>
    </defs>
    <g clip-path="url(#p10c72cda92)">
     <use xlink:href="#m1536a22022" x="0" y="360" style="fill: #de8f05; fill-opacity: 0.15; stroke: #ffffff; stroke-opacity: 0.15"/>
    </g>
   </g>
   <g id="line2d_11">
    <path d="M 82.971637 114.493588 
L 84.634123 115.428826 
L 86.296609 116.364064 
L 87.959095 117.299301 
L 89.621581 118.234539 
L 91.284067 119.169777 
L 92.946553 120.105015 
L 94.609039 121.040253 
L 96.271524 121.975491 
L 97.93401 122.910729 
L 99.596496 123.845967 
L 101.258982 124.781205 
L 102.921468 125.716443 
L 104.583954 126.651681 
L 106.24644 127.586919 
L 107.908926 128.522157 
L 109.571412 129.457395 
L 111.233898 130.392633 
L 112.896383 131.327871 
L 114.558869 132.263109 
L 116.221355 133.198347 
L 117.883841 134.133585 
L 119.546327 135.068822 
L 121.208813 136.00406 
L 122.871299 136.939298 
L 124.533785 137.874536 
L 126.196271 138.809774 
L 127.858757 139.745012 
L 129.521242 140.68025 
L 131.183728 141.615488 
L 132.846214 142.550726 
L 134.5087 143.485964 
L 136.171186 144.421202 
L 137.833672 145.35644 
L 139.496158 146.291678 
L 141.158644 147.226916 
L 142.82113 148.162154 
L 144.483616 149.097392 
L 146.146101 150.03263 
L 147.808587 150.967868 
L 149.471073 151.903106 
L 151.133559 152.838343 
L 152.796045 153.773581 
L 154.458531 154.708819 
L 156.121017 155.644057 
L 157.783503 156.579295 
L 159.445989 157.514533 
L 161.108475 158.449771 
L 162.77096 159.385009 
L 164.433446 160.320247 
L 166.095932 161.255485 
L 167.758418 162.190723 
L 169.420904 163.125961 
L 171.08339 164.061199 
L 172.745876 164.996437 
L 174.408362 165.931675 
L 176.070848 166.866913 
L 177.733334 167.802151 
L 179.395819 168.737389 
L 181.058305 169.672627 
L 182.720791 170.607865 
L 184.383277 171.543102 
L 186.045763 172.47834 
L 187.708249 173.413578 
L 189.370735 174.348816 
L 191.033221 175.284054 
L 192.695707 176.219292 
L 194.358193 177.15453 
L 196.020678 178.089768 
L 197.683164 179.025006 
L 199.34565 179.960244 
L 201.008136 180.895482 
L 202.670622 181.83072 
L 204.333108 182.765958 
L 205.995594 183.701196 
L 207.65808 184.636434 
L 209.320566 185.571672 
L 210.983052 186.50691 
L 212.645537 187.442148 
L 214.308023 188.377386 
L 215.970509 189.312623 
L 217.632995 190.247861 
L 219.295481 191.183099 
L 220.957967 192.118337 
L 222.620453 193.053575 
L 224.282939 193.988813 
L 225.945425 194.924051 
L 227.607911 195.859289 
L 229.270396 196.794527 
L 230.932882 197.729765 
L 232.595368 198.665003 
L 234.257854 199.600241 
L 235.92034 200.535479 
L 237.582826 201.470717 
L 239.245312 202.405955 
L 240.907798 203.341193 
L 242.570284 204.276431 
L 244.232769 205.211669 
L 245.895255 206.146907 
L 247.557741 207.082145 
" clip-path="url(#p10c72cda92)" style="fill: none; stroke: #0173b2; stroke-width: 2.25; stroke-linecap: round"/>
   </g>
   <g id="line2d_12">
    <path d="M 79.80652 133.704502 
L 82.460103 134.736588 
L 85.113686 135.768674 
L 87.76727 136.80076 
L 90.420853 137.832846 
L 93.074436 138.864932 
L 95.728019 139.897019 
L 98.381603 140.929105 
L 101.035186 141.961191 
L 103.688769 142.993277 
L 106.342352 144.025363 
L 108.995936 145.057449 
L 111.649519 146.089536 
L 114.303102 147.121622 
L 116.956686 148.153708 
L 119.610269 149.185794 
L 122.263852 150.21788 
L 124.917435 151.249966 
L 127.571019 152.282053 
L 130.224602 153.314139 
L 132.878185 154.346225 
L 135.531768 155.378311 
L 138.185352 156.410397 
L 140.838935 157.442483 
L 143.492518 158.47457 
L 146.146101 159.506656 
L 148.799685 160.538742 
L 151.453268 161.570828 
L 154.106851 162.602914 
L 156.760434 163.635 
L 159.414018 164.667087 
L 162.067601 165.699173 
L 164.721184 166.731259 
L 167.374768 167.763345 
L 170.028351 168.795431 
L 172.681934 169.827517 
L 175.335517 170.859604 
L 177.989101 171.89169 
L 180.642684 172.923776 
L 183.296267 173.955862 
L 185.94985 174.987948 
L 188.603434 176.020034 
L 191.257017 177.052121 
L 193.9106 178.084207 
L 196.564183 179.116293 
L 199.217767 180.148379 
L 201.87135 181.180465 
L 204.524933 182.212551 
L 207.178516 183.244637 
L 209.8321 184.276724 
L 212.485683 185.30881 
L 215.139266 186.340896 
L 217.79285 187.372982 
L 220.446433 188.405068 
L 223.100016 189.437154 
L 225.753599 190.469241 
L 228.407183 191.501327 
L 231.060766 192.533413 
L 233.714349 193.565499 
L 236.367932 194.597585 
L 239.021516 195.629671 
L 241.675099 196.661758 
L 244.328682 197.693844 
L 246.982265 198.72593 
L 249.635849 199.758016 
L 252.289432 200.790102 
L 254.943015 201.822188 
L 257.596598 202.854275 
L 260.250182 203.886361 
L 262.903765 204.918447 
L 265.557348 205.950533 
L 268.210932 206.982619 
L 270.864515 208.014705 
L 273.518098 209.046792 
L 276.171681 210.078878 
L 278.825265 211.110964 
L 281.478848 212.14305 
L 284.132431 213.175136 
L 286.786014 214.207222 
L 289.439598 215.239309 
L 292.093181 216.271395 
L 294.746764 217.303481 
L 297.400347 218.335567 
L 300.053931 219.367653 
L 302.707514 220.399739 
L 305.361097 221.431826 
L 308.01468 222.463912 
L 310.668264 223.495998 
L 313.321847 224.528084 
L 315.97543 225.56017 
L 318.629013 226.592256 
L 321.282597 227.624343 
L 323.93618 228.656429 
L 326.589763 229.688515 
L 329.243347 230.720601 
L 331.89693 231.752687 
L 334.550513 232.784773 
L 337.204096 233.816859 
L 339.85768 234.848946 
L 342.511263 235.881032 
" clip-path="url(#p10c72cda92)" style="fill: none; stroke: #de8f05; stroke-width: 2.25; stroke-linecap: round"/>
   </g>
   <g id="patch_3">
    <path d="M 66.671283 313.54 
L 66.671283 12.96 
" style="fill: none; stroke: #ffffff; stroke-width: 1.25; stroke-linejoin: miter; stroke-linecap: square"/>
   </g>
   <g id="patch_4">
    <path d="M 66.671283 313.54 
L 355.6465 313.54 
" style="fill: none; stroke: #ffffff; stroke-width: 1.25; stroke-linejoin: miter; stroke-linecap: square"/>
   </g>
  </g>
  <g id="legend_1">
   <g id="text_13">
    <!-- Treatment -->
    <g style="fill: #262626" transform="translate(365.205781 167.542344)scale(0.12 -0.12)">
     <defs>
      <path id="ArialMT-54" d="M 1659 0 
L 1659 4041 
L 150 4041 
L 150 4581 
L 3781 4581 
L 3781 4041 
L 2266 4041 
L 2266 0 
L 1659 0 
z
" transform="scale(0.015625)"/>
     </defs>
     <use xlink:href="#ArialMT-54"/>
     <use xlink:href="#ArialMT-72" x="57.333984"/>
     <use xlink:href="#ArialMT-65" x="90.634766"/>
     <use xlink:href="#ArialMT-61" x="146.25"/>
     <use xlink:href="#ArialMT-74" x="201.865234"/>
     <use xlink:href="#ArialMT-6d" x="229.648438"/>
     <use xlink:href="#ArialMT-65" x="312.949219"/>
     <use xlink:href="#ArialMT-6e" x="368.564453"/>
     <use xlink:href="#ArialMT-74" x="424.179688"/>
    </g>
   </g>
   <g id="PathCollection_3">
    <g>
     <use xlink:href="#m7da0526473" x="370.192187" y="180.413438" style="fill: #0173b2; fill-opacity: 0.8; stroke: #0173b2; stroke-opacity: 0.8"/>
    </g>
   </g>
   <g id="text_14">
    <!-- Control -->
    <g style="fill: #262626" transform="translate(389.992188 183.300938)scale(0.11 -0.11)">
     <defs>
      <path id="ArialMT-43" d="M 3763 1606 
L 4369 1453 
Q 4178 706 3683 314 
Q 3188 -78 2472 -78 
Q 1731 -78 1267 223 
Q 803 525 561 1097 
Q 319 1669 319 2325 
Q 319 3041 592 3573 
Q 866 4106 1370 4382 
Q 1875 4659 2481 4659 
Q 3169 4659 3637 4309 
Q 4106 3959 4291 3325 
L 3694 3184 
Q 3534 3684 3231 3912 
Q 2928 4141 2469 4141 
Q 1941 4141 1586 3887 
Q 1231 3634 1087 3207 
Q 944 2781 944 2328 
Q 944 1744 1114 1308 
Q 1284 872 1643 656 
Q 2003 441 2422 441 
Q 2931 441 3284 734 
Q 3638 1028 3763 1606 
z
" transform="scale(0.015625)"/>
      <path id="ArialMT-6f" d="M 213 1659 
Q 213 2581 725 3025 
Q 1153 3394 1769 3394 
Q 2453 3394 2887 2945 
Q 3322 2497 3322 1706 
Q 3322 1066 3130 698 
Q 2938 331 2570 128 
Q 2203 -75 1769 -75 
Q 1072 -75 642 372 
Q 213 819 213 1659 
z
M 791 1659 
Q 791 1022 1069 705 
Q 1347 388 1769 388 
Q 2188 388 2466 706 
Q 2744 1025 2744 1678 
Q 2744 2294 2464 2611 
Q 2184 2928 1769 2928 
Q 1347 2928 1069 2612 
Q 791 2297 791 1659 
z
" transform="scale(0.015625)"/>
      <path id="ArialMT-6c" d="M 409 0 
L 409 4581 
L 972 4581 
L 972 0 
L 409 0 
z
" transform="scale(0.015625)"/>
     </defs>
     <use xlink:href="#ArialMT-43"/>
     <use xlink:href="#ArialMT-6f" x="72.216797"/>
     <use xlink:href="#ArialMT-6e" x="127.832031"/>
     <use xlink:href="#ArialMT-74" x="183.447266"/>
     <use xlink:href="#ArialMT-72" x="211.230469"/>
     <use xlink:href="#ArialMT-6f" x="244.53125"/>
     <use xlink:href="#ArialMT-6c" x="300.146484"/>
    </g>
   </g>
   <g id="PathCollection_4">
    <g>
     <use xlink:href="#m345eda0111" x="370.192187" y="195.973281" style="fill: #de8f05; fill-opacity: 0.8; stroke: #de8f05; stroke-opacity: 0.8"/>
    </g>
   </g>
   <g id="text_15">
    <!-- DFO -->
    <g style="fill: #262626" transform="translate(389.992188 198.860781)scale(0.11 -0.11)">
     <defs>
      <path id="ArialMT-44" d="M 494 0 
L 494 4581 
L 2072 4581 
Q 2606 4581 2888 4516 
Q 3281 4425 3559 4188 
Q 3922 3881 4101 3404 
Q 4281 2928 4281 2316 
Q 4281 1794 4159 1391 
Q 4038 988 3847 723 
Q 3656 459 3429 307 
Q 3203 156 2883 78 
Q 2563 0 2147 0 
L 494 0 
z
M 1100 541 
L 2078 541 
Q 2531 541 2789 625 
Q 3047 709 3200 863 
Q 3416 1078 3536 1442 
Q 3656 1806 3656 2325 
Q 3656 3044 3420 3430 
Q 3184 3816 2847 3947 
Q 2603 4041 2063 4041 
L 1100 4041 
L 1100 541 
z
" transform="scale(0.015625)"/>
      <path id="ArialMT-46" d="M 525 0 
L 525 4581 
L 3616 4581 
L 3616 4041 
L 1131 4041 
L 1131 2622 
L 3281 2622 
L 3281 2081 
L 1131 2081 
L 1131 0 
L 525 0 
z
" transform="scale(0.015625)"/>
      <path id="ArialMT-4f" d="M 309 2231 
Q 309 3372 921 4017 
Q 1534 4663 2503 4663 
Q 3138 4663 3647 4359 
Q 4156 4056 4423 3514 
Q 4691 2972 4691 2284 
Q 4691 1588 4409 1038 
Q 4128 488 3612 205 
Q 3097 -78 2500 -78 
Q 1853 -78 1343 234 
Q 834 547 571 1087 
Q 309 1628 309 2231 
z
M 934 2222 
Q 934 1394 1379 917 
Q 1825 441 2497 441 
Q 3181 441 3623 922 
Q 4066 1403 4066 2288 
Q 4066 2847 3877 3264 
Q 3688 3681 3323 3911 
Q 2959 4141 2506 4141 
Q 1863 4141 1398 3698 
Q 934 3256 934 2222 
z
" transform="scale(0.015625)"/>
     </defs>
     <use xlink:href="#ArialMT-44"/>
     <use xlink:href="#ArialMT-46" x="72.216797"/>
     <use xlink:href="#ArialMT-4f" x="133.300781"/>
    </g>
   </g>
  </g>
 </g>
 <defs>
  <clipPath id="p10c72cda92">
   <rect x="66.671283" y="12.96" width="288.975217" height="300.58"/>
  </clipPath>
 </defs>
</svg>
