<?xml version="1.0" encoding="utf-8" standalone="no"?>
<!DOCTYPE svg PUBLIC "-//W3C//DTD SVG 1.1//EN"
  "http://www.w3.org/Graphics/SVG/1.1/DTD/svg11.dtd">
<svg xmlns:xlink="http://www.w3.org/1999/xlink" width="435.35pt" height="360pt" viewBox="0 0 435.35 360" xmlns="http://www.w3.org/2000/svg" version="1.1">
 <metadata>
  <rdf:RDF xmlns:dc="http://purl.org/dc/elements/1.1/" xmlns:cc="http://creativecommons.org/ns#" xmlns:rdf="http://www.w3.org/1999/02/22-rdf-syntax-ns#">
   <cc:Work>
    <dc:type rdf:resource="http://purl.org/dc/dcmitype/StillImage"/>
    <dc:date>2022-07-04T16:58:25.628469</dc:date>
    <dc:format>image/svg+xml</dc:format>
    <dc:creator>
     <cc:Agent>
      <dc:title>Matplotlib v3.5.1, https://matplotlib.org/</dc:title>
     </cc:Agent>
    </dc:creator>
   </cc:Work>
  </rdf:RDF>
 </metadata>
 <defs>
  <style type="text/css">*{stroke-linejoin: round; stroke-linecap: butt}</style>
 </defs>
 <g id="figure_1">
  <g id="patch_1">
   <path d="M 0 360 
L 435.35 360 
L 435.35 0 
L 0 0 
z
" style="fill: #ffffff"/>
  </g>
  <g id="axes_1">
   <g id="patch_2">
    <path d="M 66.671283 313.54 
L 355.6465 313.54 
L 355.6465 12.96 
L 66.671283 12.96 
z
" style="fill: #eaeaf2"/>
   </g>
   <g id="matplotlib.axis_1">
    <g id="xtick_1">
     <g id="line2d_1">
      <path d="M 67.14605 313.54 
L 67.14605 12.96 
" clip-path="url(#p1d1ad601a7)" style="fill: none; stroke: #ffffff; stroke-linecap: round"/>
     </g>
     <g id="text_1">
      <!-- 0 -->
      <g style="fill: #262626" transform="translate(64.087535 330.913594)scale(0.11 -0.11)">
       <defs>
        <path id="ArialMT-30" d="M 266 2259 
Q 266 3072 433 3567 
Q 600 4063 929 4331 
Q 1259 4600 1759 4600 
Q 2128 4600 2406 4451 
Q 2684 4303 2865 4023 
Q 3047 3744 3150 3342 
Q 3253 2941 3253 2259 
Q 3253 1453 3087 958 
Q 2922 463 2592 192 
Q 2263 -78 1759 -78 
Q 1097 -78 719 397 
Q 266 969 266 2259 
z
M 844 2259 
Q 844 1131 1108 757 
Q 1372 384 1759 384 
Q 2147 384 2411 759 
Q 2675 1134 2675 2259 
Q 2675 3391 2411 3762 
Q 2147 4134 1753 4134 
Q 1366 4134 1134 3806 
Q 844 3388 844 2259 
z
" transform="scale(0.015625)"/>
       </defs>
       <use xlink:href="#ArialMT-30"/>
      </g>
     </g>
    </g>
    <g id="xtick_2">
     <g id="line2d_2">
      <path d="M 130.448398 313.54 
L 130.448398 12.96 
" clip-path="url(#p1d1ad601a7)" style="fill: none; stroke: #ffffff; stroke-linecap: round"/>
     </g>
     <g id="text_2">
      <!-- 20 -->
      <g style="fill: #262626" transform="translate(124.331367 330.913594)scale(0.11 -0.11)">
       <defs>
        <path id="ArialMT-32" d="M 3222 541 
L 3222 0 
L 194 0 
Q 188 203 259 391 
Q 375 700 629 1000 
Q 884 1300 1366 1694 
Q 2113 2306 2375 2664 
Q 2638 3022 2638 3341 
Q 2638 3675 2398 3904 
Q 2159 4134 1775 4134 
Q 1369 4134 1125 3890 
Q 881 3647 878 3216 
L 300 3275 
Q 359 3922 746 4261 
Q 1134 4600 1788 4600 
Q 2447 4600 2831 4234 
Q 3216 3869 3216 3328 
Q 3216 3053 3103 2787 
Q 2991 2522 2730 2228 
Q 2469 1934 1863 1422 
Q 1356 997 1212 845 
Q 1069 694 975 541 
L 3222 541 
z
" transform="scale(0.015625)"/>
       </defs>
       <use xlink:href="#ArialMT-32"/>
       <use xlink:href="#ArialMT-30" x="55.615234"/>
      </g>
     </g>
    </g>
    <g id="xtick_3">
     <g id="line2d_3">
      <path d="M 193.750746 313.54 
L 193.750746 12.96 
" clip-path="url(#p1d1ad601a7)" style="fill: none; stroke: #ffffff; stroke-linecap: round"/>
     </g>
     <g id="text_3">
      <!-- 40 -->
      <g style="fill: #262626" transform="translate(187.633714 330.913594)scale(0.11 -0.11)">
       <defs>
        <path id="ArialMT-34" d="M 2069 0 
L 2069 1097 
L 81 1097 
L 81 1613 
L 2172 4581 
L 2631 4581 
L 2631 1613 
L 3250 1613 
L 3250 1097 
L 2631 1097 
L 2631 0 
L 2069 0 
z
M 2069 1613 
L 2069 3678 
L 634 1613 
L 2069 1613 
z
" transform="scale(0.015625)"/>
       </defs>
       <use xlink:href="#ArialMT-34"/>
       <use xlink:href="#ArialMT-30" x="55.615234"/>
      </g>
     </g>
    </g>
    <g id="xtick_4">
     <g id="line2d_4">
      <path d="M 257.053093 313.54 
L 257.053093 12.96 
" clip-path="url(#p1d1ad601a7)" style="fill: none; stroke: #ffffff; stroke-linecap: round"/>
     </g>
     <g id="text_4">
      <!-- 60 -->
      <g style="fill: #262626" transform="translate(250.936062 330.913594)scale(0.11 -0.11)">
       <defs>
        <path id="ArialMT-36" d="M 3184 3459 
L 2625 3416 
Q 2550 3747 2413 3897 
Q 2184 4138 1850 4138 
Q 1581 4138 1378 3988 
Q 1113 3794 959 3422 
Q 806 3050 800 2363 
Q 1003 2672 1297 2822 
Q 1591 2972 1913 2972 
Q 2475 2972 2870 2558 
Q 3266 2144 3266 1488 
Q 3266 1056 3080 686 
Q 2894 316 2569 119 
Q 2244 -78 1831 -78 
Q 1128 -78 684 439 
Q 241 956 241 2144 
Q 241 3472 731 4075 
Q 1159 4600 1884 4600 
Q 2425 4600 2770 4297 
Q 3116 3994 3184 3459 
z
M 888 1484 
Q 888 1194 1011 928 
Q 1134 663 1356 523 
Q 1578 384 1822 384 
Q 2178 384 2434 671 
Q 2691 959 2691 1453 
Q 2691 1928 2437 2201 
Q 2184 2475 1800 2475 
Q 1419 2475 1153 2201 
Q 888 1928 888 1484 
z
" transform="scale(0.015625)"/>
       </defs>
       <use xlink:href="#ArialMT-36"/>
       <use xlink:href="#ArialMT-30" x="55.615234"/>
      </g>
     </g>
    </g>
    <g id="xtick_5">
     <g id="line2d_5">
      <path d="M 320.355441 313.54 
L 320.355441 12.96 
" clip-path="url(#p1d1ad601a7)" style="fill: none; stroke: #ffffff; stroke-linecap: round"/>
     </g>
     <g id="text_5">
      <!-- 80 -->
      <g style="fill: #262626" transform="translate(314.23841 330.913594)scale(0.11 -0.11)">
       <defs>
        <path id="ArialMT-38" d="M 1131 2484 
Q 781 2613 612 2850 
Q 444 3088 444 3419 
Q 444 3919 803 4259 
Q 1163 4600 1759 4600 
Q 2359 4600 2725 4251 
Q 3091 3903 3091 3403 
Q 3091 3084 2923 2848 
Q 2756 2613 2416 2484 
Q 2838 2347 3058 2040 
Q 3278 1734 3278 1309 
Q 3278 722 2862 322 
Q 2447 -78 1769 -78 
Q 1091 -78 675 323 
Q 259 725 259 1325 
Q 259 1772 486 2073 
Q 713 2375 1131 2484 
z
M 1019 3438 
Q 1019 3113 1228 2906 
Q 1438 2700 1772 2700 
Q 2097 2700 2305 2904 
Q 2513 3109 2513 3406 
Q 2513 3716 2298 3927 
Q 2084 4138 1766 4138 
Q 1444 4138 1231 3931 
Q 1019 3725 1019 3438 
z
M 838 1322 
Q 838 1081 952 856 
Q 1066 631 1291 507 
Q 1516 384 1775 384 
Q 2178 384 2440 643 
Q 2703 903 2703 1303 
Q 2703 1709 2433 1975 
Q 2163 2241 1756 2241 
Q 1359 2241 1098 1978 
Q 838 1716 838 1322 
z
" transform="scale(0.015625)"/>
       </defs>
       <use xlink:href="#ArialMT-38"/>
       <use xlink:href="#ArialMT-30" x="55.615234"/>
      </g>
     </g>
    </g>
    <g id="text_6">
     <!-- Num_Branches -->
     <g style="fill: #262626" transform="translate(169.808579 345.689219)scale(0.12 -0.12)">
      <defs>
       <path id="ArialMT-4e" d="M 488 0 
L 488 4581 
L 1109 4581 
L 3516 984 
L 3516 4581 
L 4097 4581 
L 4097 0 
L 3475 0 
L 1069 3600 
L 1069 0 
L 488 0 
z
" transform="scale(0.015625)"/>
       <path id="ArialMT-75" d="M 2597 0 
L 2597 488 
Q 2209 -75 1544 -75 
Q 1250 -75 995 37 
Q 741 150 617 320 
Q 494 491 444 738 
Q 409 903 409 1263 
L 409 3319 
L 972 3319 
L 972 1478 
Q 972 1038 1006 884 
Q 1059 663 1231 536 
Q 1403 409 1656 409 
Q 1909 409 2131 539 
Q 2353 669 2445 892 
Q 2538 1116 2538 1541 
L 2538 3319 
L 3100 3319 
L 3100 0 
L 2597 0 
z
" transform="scale(0.015625)"/>
       <path id="ArialMT-6d" d="M 422 0 
L 422 3319 
L 925 3319 
L 925 2853 
Q 1081 3097 1340 3245 
Q 1600 3394 1931 3394 
Q 2300 3394 2536 3241 
Q 2772 3088 2869 2813 
Q 3263 3394 3894 3394 
Q 4388 3394 4653 3120 
Q 4919 2847 4919 2278 
L 4919 0 
L 4359 0 
L 4359 2091 
Q 4359 2428 4304 2576 
Q 4250 2725 4106 2815 
Q 3963 2906 3769 2906 
Q 3419 2906 3187 2673 
Q 2956 2441 2956 1928 
L 2956 0 
L 2394 0 
L 2394 2156 
Q 2394 2531 2256 2718 
Q 2119 2906 1806 2906 
Q 1569 2906 1367 2781 
Q 1166 2656 1075 2415 
Q 984 2175 984 1722 
L 984 0 
L 422 0 
z
" transform="scale(0.015625)"/>
       <path id="ArialMT-5f" d="M -97 -1272 
L -97 -866 
L 3631 -866 
L 3631 -1272 
L -97 -1272 
z
" transform="scale(0.015625)"/>
       <path id="ArialMT-42" d="M 469 0 
L 469 4581 
L 2188 4581 
Q 2713 4581 3030 4442 
Q 3347 4303 3526 4014 
Q 3706 3725 3706 3409 
Q 3706 3116 3547 2856 
Q 3388 2597 3066 2438 
Q 3481 2316 3704 2022 
Q 3928 1728 3928 1328 
Q 3928 1006 3792 729 
Q 3656 453 3456 303 
Q 3256 153 2954 76 
Q 2653 0 2216 0 
L 469 0 
z
M 1075 2656 
L 2066 2656 
Q 2469 2656 2644 2709 
Q 2875 2778 2992 2937 
Q 3109 3097 3109 3338 
Q 3109 3566 3000 3739 
Q 2891 3913 2687 3977 
Q 2484 4041 1991 4041 
L 1075 4041 
L 1075 2656 
z
M 1075 541 
L 2216 541 
Q 2509 541 2628 563 
Q 2838 600 2978 687 
Q 3119 775 3209 942 
Q 3300 1109 3300 1328 
Q 3300 1584 3169 1773 
Q 3038 1963 2805 2039 
Q 2572 2116 2134 2116 
L 1075 2116 
L 1075 541 
z
" transform="scale(0.015625)"/>
       <path id="ArialMT-72" d="M 416 0 
L 416 3319 
L 922 3319 
L 922 2816 
Q 1116 3169 1280 3281 
Q 1444 3394 1641 3394 
Q 1925 3394 2219 3213 
L 2025 2691 
Q 1819 2813 1613 2813 
Q 1428 2813 1281 2702 
Q 1134 2591 1072 2394 
Q 978 2094 978 1738 
L 978 0 
L 416 0 
z
" transform="scale(0.015625)"/>
       <path id="ArialMT-61" d="M 2588 409 
Q 2275 144 1986 34 
Q 1697 -75 1366 -75 
Q 819 -75 525 192 
Q 231 459 231 875 
Q 231 1119 342 1320 
Q 453 1522 633 1644 
Q 813 1766 1038 1828 
Q 1203 1872 1538 1913 
Q 2219 1994 2541 2106 
Q 2544 2222 2544 2253 
Q 2544 2597 2384 2738 
Q 2169 2928 1744 2928 
Q 1347 2928 1158 2789 
Q 969 2650 878 2297 
L 328 2372 
Q 403 2725 575 2942 
Q 747 3159 1072 3276 
Q 1397 3394 1825 3394 
Q 2250 3394 2515 3294 
Q 2781 3194 2906 3042 
Q 3031 2891 3081 2659 
Q 3109 2516 3109 2141 
L 3109 1391 
Q 3109 606 3145 398 
Q 3181 191 3288 0 
L 2700 0 
Q 2613 175 2588 409 
z
M 2541 1666 
Q 2234 1541 1622 1453 
Q 1275 1403 1131 1340 
Q 988 1278 909 1158 
Q 831 1038 831 891 
Q 831 666 1001 516 
Q 1172 366 1500 366 
Q 1825 366 2078 508 
Q 2331 650 2450 897 
Q 2541 1088 2541 1459 
L 2541 1666 
z
" transform="scale(0.015625)"/>
       <path id="ArialMT-6e" d="M 422 0 
L 422 3319 
L 928 3319 
L 928 2847 
Q 1294 3394 1984 3394 
Q 2284 3394 2536 3286 
Q 2788 3178 2913 3003 
Q 3038 2828 3088 2588 
Q 3119 2431 3119 2041 
L 3119 0 
L 2556 0 
L 2556 2019 
Q 2556 2363 2490 2533 
Q 2425 2703 2258 2804 
Q 2091 2906 1866 2906 
Q 1506 2906 1245 2678 
Q 984 2450 984 1813 
L 984 0 
L 422 0 
z
" transform="scale(0.015625)"/>
       <path id="ArialMT-63" d="M 2588 1216 
L 3141 1144 
Q 3050 572 2676 248 
Q 2303 -75 1759 -75 
Q 1078 -75 664 370 
Q 250 816 250 1647 
Q 250 2184 428 2587 
Q 606 2991 970 3192 
Q 1334 3394 1763 3394 
Q 2303 3394 2647 3120 
Q 2991 2847 3088 2344 
L 2541 2259 
Q 2463 2594 2264 2762 
Q 2066 2931 1784 2931 
Q 1359 2931 1093 2626 
Q 828 2322 828 1663 
Q 828 994 1084 691 
Q 1341 388 1753 388 
Q 2084 388 2306 591 
Q 2528 794 2588 1216 
z
" transform="scale(0.015625)"/>
       <path id="ArialMT-68" d="M 422 0 
L 422 4581 
L 984 4581 
L 984 2938 
Q 1378 3394 1978 3394 
Q 2347 3394 2619 3248 
Q 2891 3103 3008 2847 
Q 3125 2591 3125 2103 
L 3125 0 
L 2563 0 
L 2563 2103 
Q 2563 2525 2380 2717 
Q 2197 2909 1863 2909 
Q 1613 2909 1392 2779 
Q 1172 2650 1078 2428 
Q 984 2206 984 1816 
L 984 0 
L 422 0 
z
" transform="scale(0.015625)"/>
       <path id="ArialMT-65" d="M 2694 1069 
L 3275 997 
Q 3138 488 2766 206 
Q 2394 -75 1816 -75 
Q 1088 -75 661 373 
Q 234 822 234 1631 
Q 234 2469 665 2931 
Q 1097 3394 1784 3394 
Q 2450 3394 2872 2941 
Q 3294 2488 3294 1666 
Q 3294 1616 3291 1516 
L 816 1516 
Q 847 969 1125 678 
Q 1403 388 1819 388 
Q 2128 388 2347 550 
Q 2566 713 2694 1069 
z
M 847 1978 
L 2700 1978 
Q 2663 2397 2488 2606 
Q 2219 2931 1791 2931 
Q 1403 2931 1139 2672 
Q 875 2413 847 1978 
z
" transform="scale(0.015625)"/>
       <path id="ArialMT-73" d="M 197 991 
L 753 1078 
Q 800 744 1014 566 
Q 1228 388 1613 388 
Q 2000 388 2187 545 
Q 2375 703 2375 916 
Q 2375 1106 2209 1216 
Q 2094 1291 1634 1406 
Q 1016 1563 777 1677 
Q 538 1791 414 1992 
Q 291 2194 291 2438 
Q 291 2659 392 2848 
Q 494 3038 669 3163 
Q 800 3259 1026 3326 
Q 1253 3394 1513 3394 
Q 1903 3394 2198 3281 
Q 2494 3169 2634 2976 
Q 2775 2784 2828 2463 
L 2278 2388 
Q 2241 2644 2061 2787 
Q 1881 2931 1553 2931 
Q 1166 2931 1000 2803 
Q 834 2675 834 2503 
Q 834 2394 903 2306 
Q 972 2216 1119 2156 
Q 1203 2125 1616 2013 
Q 2213 1853 2448 1751 
Q 2684 1650 2818 1456 
Q 2953 1263 2953 975 
Q 2953 694 2789 445 
Q 2625 197 2315 61 
Q 2006 -75 1616 -75 
Q 969 -75 630 194 
Q 291 463 197 991 
z
" transform="scale(0.015625)"/>
      </defs>
      <use xlink:href="#ArialMT-4e"/>
      <use xlink:href="#ArialMT-75" x="72.216797"/>
      <use xlink:href="#ArialMT-6d" x="127.832031"/>
      <use xlink:href="#ArialMT-5f" x="211.132812"/>
      <use xlink:href="#ArialMT-42" x="266.748047"/>
      <use xlink:href="#ArialMT-72" x="333.447266"/>
      <use xlink:href="#ArialMT-61" x="366.748047"/>
      <use xlink:href="#ArialMT-6e" x="422.363281"/>
      <use xlink:href="#ArialMT-63" x="477.978516"/>
      <use xlink:href="#ArialMT-68" x="527.978516"/>
      <use xlink:href="#ArialMT-65" x="583.59375"/>
      <use xlink:href="#ArialMT-73" x="639.208984"/>
     </g>
    </g>
   </g>
   <g id="matplotlib.axis_2">
    <g id="ytick_1">
     <g id="line2d_6">
      <path d="M 66.671283 281.673682 
L 355.6465 281.673682 
" clip-path="url(#p1d1ad601a7)" style="fill: none; stroke: #ffffff; stroke-linecap: round"/>
     </g>
     <g id="text_7">
      <!-- −50 -->
      <g style="fill: #262626" transform="translate(38.512533 285.610479)scale(0.11 -0.11)">
       <defs>
        <path id="ArialMT-2212" d="M 3381 1997 
L 356 1997 
L 356 2522 
L 3381 2522 
L 3381 1997 
z
" transform="scale(0.015625)"/>
        <path id="ArialMT-35" d="M 266 1200 
L 856 1250 
Q 922 819 1161 601 
Q 1400 384 1738 384 
Q 2144 384 2425 690 
Q 2706 997 2706 1503 
Q 2706 1984 2436 2262 
Q 2166 2541 1728 2541 
Q 1456 2541 1237 2417 
Q 1019 2294 894 2097 
L 366 2166 
L 809 4519 
L 3088 4519 
L 3088 3981 
L 1259 3981 
L 1013 2750 
Q 1425 3038 1878 3038 
Q 2478 3038 2890 2622 
Q 3303 2206 3303 1553 
Q 3303 931 2941 478 
Q 2500 -78 1738 -78 
Q 1113 -78 717 272 
Q 322 622 266 1200 
z
" transform="scale(0.015625)"/>
       </defs>
       <use xlink:href="#ArialMT-2212"/>
       <use xlink:href="#ArialMT-35" x="58.398438"/>
       <use xlink:href="#ArialMT-30" x="114.013672"/>
      </g>
     </g>
    </g>
    <g id="ytick_2">
     <g id="line2d_7">
      <path d="M 66.671283 222.672924 
L 355.6465 222.672924 
" clip-path="url(#p1d1ad601a7)" style="fill: none; stroke: #ffffff; stroke-linecap: round"/>
     </g>
     <g id="text_8">
      <!-- 0 -->
      <g style="fill: #262626" transform="translate(51.054251 226.609721)scale(0.11 -0.11)">
       <use xlink:href="#ArialMT-30"/>
      </g>
     </g>
    </g>
    <g id="ytick_3">
     <g id="line2d_8">
      <path d="M 66.671283 163.672166 
L 355.6465 163.672166 
" clip-path="url(#p1d1ad601a7)" style="fill: none; stroke: #ffffff; stroke-linecap: round"/>
     </g>
     <g id="text_9">
      <!-- 50 -->
      <g style="fill: #262626" transform="translate(44.93722 167.608963)scale(0.11 -0.11)">
       <use xlink:href="#ArialMT-35"/>
       <use xlink:href="#ArialMT-30" x="55.615234"/>
      </g>
     </g>
    </g>
    <g id="ytick_4">
     <g id="line2d_9">
      <path d="M 66.671283 104.671408 
L 355.6465 104.671408 
" clip-path="url(#p1d1ad601a7)" style="fill: none; stroke: #ffffff; stroke-linecap: round"/>
     </g>
     <g id="text_10">
      <!-- 100 -->
      <g style="fill: #262626" transform="translate(38.820189 108.608205)scale(0.11 -0.11)">
       <defs>
        <path id="ArialMT-31" d="M 2384 0 
L 1822 0 
L 1822 3584 
Q 1619 3391 1289 3197 
Q 959 3003 697 2906 
L 697 3450 
Q 1169 3672 1522 3987 
Q 1875 4303 2022 4600 
L 2384 4600 
L 2384 0 
z
" transform="scale(0.015625)"/>
       </defs>
       <use xlink:href="#ArialMT-31"/>
       <use xlink:href="#ArialMT-30" x="55.615234"/>
       <use xlink:href="#ArialMT-30" x="111.230469"/>
      </g>
     </g>
    </g>
    <g id="ytick_5">
     <g id="line2d_10">
      <path d="M 66.671283 45.67065 
L 355.6465 45.67065 
" clip-path="url(#p1d1ad601a7)" style="fill: none; stroke: #ffffff; stroke-linecap: round"/>
     </g>
     <g id="text_11">
      <!-- 150 -->
      <g style="fill: #262626" transform="translate(38.820189 49.607447)scale(0.11 -0.11)">
       <use xlink:href="#ArialMT-31"/>
       <use xlink:href="#ArialMT-35" x="55.615234"/>
       <use xlink:href="#ArialMT-30" x="111.230469"/>
      </g>
     </g>
    </g>
    <g id="text_12">
     <!-- Average_Branch_Length -->
     <g style="fill: #262626" transform="translate(31.986908 229.52375)rotate(-90)scale(0.12 -0.12)">
      <defs>
       <path id="ArialMT-41" d="M -9 0 
L 1750 4581 
L 2403 4581 
L 4278 0 
L 3588 0 
L 3053 1388 
L 1138 1388 
L 634 0 
L -9 0 
z
M 1313 1881 
L 2866 1881 
L 2388 3150 
Q 2169 3728 2063 4100 
Q 1975 3659 1816 3225 
L 1313 1881 
z
" transform="scale(0.015625)"/>
       <path id="ArialMT-76" d="M 1344 0 
L 81 3319 
L 675 3319 
L 1388 1331 
Q 1503 1009 1600 663 
Q 1675 925 1809 1294 
L 2547 3319 
L 3125 3319 
L 1869 0 
L 1344 0 
z
" transform="scale(0.015625)"/>
       <path id="ArialMT-67" d="M 319 -275 
L 866 -356 
Q 900 -609 1056 -725 
Q 1266 -881 1628 -881 
Q 2019 -881 2231 -725 
Q 2444 -569 2519 -288 
Q 2563 -116 2559 434 
Q 2191 0 1641 0 
Q 956 0 581 494 
Q 206 988 206 1678 
Q 206 2153 378 2554 
Q 550 2956 876 3175 
Q 1203 3394 1644 3394 
Q 2231 3394 2613 2919 
L 2613 3319 
L 3131 3319 
L 3131 450 
Q 3131 -325 2973 -648 
Q 2816 -972 2473 -1159 
Q 2131 -1347 1631 -1347 
Q 1038 -1347 672 -1080 
Q 306 -813 319 -275 
z
M 784 1719 
Q 784 1066 1043 766 
Q 1303 466 1694 466 
Q 2081 466 2343 764 
Q 2606 1063 2606 1700 
Q 2606 2309 2336 2618 
Q 2066 2928 1684 2928 
Q 1309 2928 1046 2623 
Q 784 2319 784 1719 
z
" transform="scale(0.015625)"/>
       <path id="ArialMT-4c" d="M 469 0 
L 469 4581 
L 1075 4581 
L 1075 541 
L 3331 541 
L 3331 0 
L 469 0 
z
" transform="scale(0.015625)"/>
       <path id="ArialMT-74" d="M 1650 503 
L 1731 6 
Q 1494 -44 1306 -44 
Q 1000 -44 831 53 
Q 663 150 594 308 
Q 525 466 525 972 
L 525 2881 
L 113 2881 
L 113 3319 
L 525 3319 
L 525 4141 
L 1084 4478 
L 1084 3319 
L 1650 3319 
L 1650 2881 
L 1084 2881 
L 1084 941 
Q 1084 700 1114 631 
Q 1144 563 1211 522 
Q 1278 481 1403 481 
Q 1497 481 1650 503 
z
" transform="scale(0.015625)"/>
      </defs>
      <use xlink:href="#ArialMT-41"/>
      <use xlink:href="#ArialMT-76" x="64.949219"/>
      <use xlink:href="#ArialMT-65" x="114.949219"/>
      <use xlink:href="#ArialMT-72" x="170.564453"/>
      <use xlink:href="#ArialMT-61" x="203.865234"/>
      <use xlink:href="#ArialMT-67" x="259.480469"/>
      <use xlink:href="#ArialMT-65" x="315.095703"/>
      <use xlink:href="#ArialMT-5f" x="370.710938"/>
      <use xlink:href="#ArialMT-42" x="426.326172"/>
      <use xlink:href="#ArialMT-72" x="493.025391"/>
      <use xlink:href="#ArialMT-61" x="526.326172"/>
      <use xlink:href="#ArialMT-6e" x="581.941406"/>
      <use xlink:href="#ArialMT-63" x="637.556641"/>
      <use xlink:href="#ArialMT-68" x="687.556641"/>
      <use xlink:href="#ArialMT-5f" x="743.171875"/>
      <use xlink:href="#ArialMT-4c" x="798.787109"/>
      <use xlink:href="#ArialMT-65" x="854.402344"/>
      <use xlink:href="#ArialMT-6e" x="910.017578"/>
      <use xlink:href="#ArialMT-67" x="965.632812"/>
      <use xlink:href="#ArialMT-74" x="1021.248047"/>
      <use xlink:href="#ArialMT-68" x="1049.03125"/>
     </g>
    </g>
   </g>
   <g id="PathCollection_1">
    <defs>
     <path id="m363c5b773c" d="M 0 3 
C 0.795609 3 1.55874 2.683901 2.12132 2.12132 
C 2.683901 1.55874 3 0.795609 3 0 
C 3 -0.795609 2.683901 -1.55874 2.12132 -2.12132 
C 1.55874 -2.683901 0.795609 -3 0 -3 
C -0.795609 -3 -1.55874 -2.683901 -2.12132 -2.12132 
C -2.683901 -1.55874 -3 -0.795609 -3 0 
C -3 0.795609 -2.683901 1.55874 -2.12132 2.12132 
C -1.55874 2.683901 -0.795609 3 0 3 
z
" style="stroke: #0173b2; stroke-opacity: 0.8"/>
    </defs>
    <g clip-path="url(#p1d1ad601a7)">
     <use xlink:href="#m363c5b773c" x="95.632107" y="26.622727" style="fill: #0173b2; fill-opacity: 0.8; stroke: #0173b2; stroke-opacity: 0.8"/>
     <use xlink:href="#m363c5b773c" x="133.613515" y="148.812483" style="fill: #0173b2; fill-opacity: 0.8; stroke: #0173b2; stroke-opacity: 0.8"/>
     <use xlink:href="#m363c5b773c" x="124.118163" y="98.77794" style="fill: #0173b2; fill-opacity: 0.8; stroke: #0173b2; stroke-opacity: 0.8"/>
     <use xlink:href="#m363c5b773c" x="120.953046" y="172.885559" style="fill: #0173b2; fill-opacity: 0.8; stroke: #0173b2; stroke-opacity: 0.8"/>
     <use xlink:href="#m363c5b773c" x="143.108868" y="153.442733" style="fill: #0173b2; fill-opacity: 0.8; stroke: #0173b2; stroke-opacity: 0.8"/>
     <use xlink:href="#m363c5b773c" x="108.292576" y="133.629877" style="fill: #0173b2; fill-opacity: 0.8; stroke: #0173b2; stroke-opacity: 0.8"/>
     <use xlink:href="#m363c5b773c" x="101.962342" y="164.561083" style="fill: #0173b2; fill-opacity: 0.8; stroke: #0173b2; stroke-opacity: 0.8"/>
     <use xlink:href="#m363c5b773c" x="130.448398" y="160.566885" style="fill: #0173b2; fill-opacity: 0.8; stroke: #0173b2; stroke-opacity: 0.8"/>
     <use xlink:href="#m363c5b773c" x="82.971637" y="159.632538" style="fill: #0173b2; fill-opacity: 0.8; stroke: #0173b2; stroke-opacity: 0.8"/>
     <use xlink:href="#m363c5b773c" x="114.622811" y="160.114279" style="fill: #0173b2; fill-opacity: 0.8; stroke: #0173b2; stroke-opacity: 0.8"/>
     <use xlink:href="#m363c5b773c" x="92.466989" y="79.755506" style="fill: #0173b2; fill-opacity: 0.8; stroke: #0173b2; stroke-opacity: 0.8"/>
     <use xlink:href="#m363c5b773c" x="247.557741" y="202.983982" style="fill: #0173b2; fill-opacity: 0.8; stroke: #0173b2; stroke-opacity: 0.8"/>
     <use xlink:href="#m363c5b773c" x="206.411215" y="144.739885" style="fill: #0173b2; fill-opacity: 0.8; stroke: #0173b2; stroke-opacity: 0.8"/>
     <use xlink:href="#m363c5b773c" x="203.246098" y="181.410756" style="fill: #0173b2; fill-opacity: 0.8; stroke: #0173b2; stroke-opacity: 0.8"/>
     <use xlink:href="#m363c5b773c" x="209.576333" y="191.328288" style="fill: #0173b2; fill-opacity: 0.8; stroke: #0173b2; stroke-opacity: 0.8"/>
     <use xlink:href="#m363c5b773c" x="117.787928" y="108.872911" style="fill: #0173b2; fill-opacity: 0.8; stroke: #0173b2; stroke-opacity: 0.8"/>
     <use xlink:href="#m363c5b773c" x="111.457694" y="102.162578" style="fill: #0173b2; fill-opacity: 0.8; stroke: #0173b2; stroke-opacity: 0.8"/>
     <use xlink:href="#m363c5b773c" x="139.94375" y="185.36986" style="fill: #0173b2; fill-opacity: 0.8; stroke: #0173b2; stroke-opacity: 0.8"/>
     <use xlink:href="#m363c5b773c" x="152.60422" y="175.064693" style="fill: #0173b2; fill-opacity: 0.8; stroke: #0173b2; stroke-opacity: 0.8"/>
    </g>
   </g>
   <g id="PolyCollection_1">
    <defs>
     <path id="m078ac8b301" d="M 82.971637 -280.489957 
L 82.971637 -216.812913 
L 84.634123 -216.229686 
L 86.296609 -215.708652 
L 87.959095 -215.244541 
L 89.621581 -214.78043 
L 91.284067 -214.23697 
L 92.946553 -213.779418 
L 94.609039 -213.25493 
L 96.271524 -212.772676 
L 97.93401 -212.323942 
L 99.596496 -211.879559 
L 101.258982 -211.4984 
L 102.921468 -211.088559 
L 104.583954 -210.628413 
L 106.24644 -210.230679 
L 107.908926 -209.872219 
L 109.571412 -209.503727 
L 111.233898 -208.963814 
L 112.896383 -208.426928 
L 114.558869 -207.891154 
L 116.221355 -207.406873 
L 117.883841 -206.931873 
L 119.546327 -206.422739 
L 121.208813 -205.825546 
L 122.871299 -205.220575 
L 124.533785 -204.673325 
L 126.196271 -204.359606 
L 127.858757 -203.818457 
L 129.521242 -203.278915 
L 131.183728 -202.62376 
L 132.846214 -201.984304 
L 134.5087 -201.447418 
L 136.171186 -199.962122 
L 137.833672 -199.623487 
L 139.496158 -198.934449 
L 141.158644 -198.484833 
L 142.82113 -197.882676 
L 144.483616 -197.265026 
L 146.146101 -196.75173 
L 147.808587 -196.17501 
L 149.471073 -195.490298 
L 151.133559 -194.419622 
L 152.796045 -193.545262 
L 154.458531 -192.670205 
L 156.121017 -191.542132 
L 157.783503 -190.490115 
L 159.445989 -189.493139 
L 161.108475 -188.5217 
L 162.77096 -187.094932 
L 164.433446 -185.592385 
L 166.095932 -184.822921 
L 167.758418 -183.803844 
L 169.420904 -182.691152 
L 171.08339 -181.163516 
L 172.745876 -179.957312 
L 174.408362 -178.752192 
L 176.070848 -177.547072 
L 177.733334 -176.345065 
L 179.395819 -174.749918 
L 181.058305 -173.584518 
L 182.720791 -172.426189 
L 184.383277 -171.268292 
L 186.045763 -169.615074 
L 187.708249 -168.023959 
L 189.370735 -166.229394 
L 191.033221 -164.423323 
L 192.695707 -162.68351 
L 194.358193 -161.104355 
L 196.020678 -159.099572 
L 197.683164 -157.166095 
L 199.34565 -155.345301 
L 201.008136 -153.524508 
L 202.670622 -151.703714 
L 204.333108 -149.884904 
L 205.995594 -148.079415 
L 207.65808 -146.337202 
L 209.320566 -144.929293 
L 210.983052 -143.521384 
L 212.645537 -142.113475 
L 214.308023 -140.705566 
L 215.970509 -139.297657 
L 217.632995 -137.889748 
L 219.295481 -136.212615 
L 220.957967 -134.369768 
L 222.620453 -132.52692 
L 224.282939 -130.684073 
L 225.945425 -128.841226 
L 227.607911 -126.998378 
L 229.270396 -125.155531 
L 230.932882 -123.312683 
L 232.595368 -121.469836 
L 234.257854 -119.626988 
L 235.92034 -117.769303 
L 237.582826 -115.686051 
L 239.245312 -113.602859 
L 240.907798 -111.519667 
L 242.570284 -109.436474 
L 244.232769 -107.671613 
L 245.895255 -106.098932 
L 247.557741 -104.526251 
L 247.557741 -182.593944 
L 247.557741 -182.593944 
L 245.895255 -183.00971 
L 244.232769 -183.478982 
L 242.570284 -183.923792 
L 240.907798 -184.368602 
L 239.245312 -184.813412 
L 237.582826 -185.258222 
L 235.92034 -185.703032 
L 234.257854 -186.147843 
L 232.595368 -186.592653 
L 230.932882 -187.037463 
L 229.270396 -187.497669 
L 227.607911 -188.127239 
L 225.945425 -188.756809 
L 224.282939 -189.386378 
L 222.620453 -190.015948 
L 220.957967 -190.540987 
L 219.295481 -191.111452 
L 217.632995 -191.590399 
L 215.970509 -191.999471 
L 214.308023 -192.405822 
L 212.645537 -193.008838 
L 210.983052 -193.851505 
L 209.320566 -194.469672 
L 207.65808 -194.81813 
L 205.995594 -195.263982 
L 204.333108 -195.630392 
L 202.670622 -196.109148 
L 201.008136 -196.825426 
L 199.34565 -197.710181 
L 197.683164 -198.257982 
L 196.020678 -198.945076 
L 194.358193 -199.517134 
L 192.695707 -200.037733 
L 191.033221 -200.55258 
L 189.370735 -201.185877 
L 187.708249 -202.050422 
L 186.045763 -203.031722 
L 184.383277 -203.861416 
L 182.720791 -204.548624 
L 181.058305 -205.469969 
L 179.395819 -206.191757 
L 177.733334 -207.133053 
L 176.070848 -207.766045 
L 174.408362 -208.380112 
L 172.745876 -209.071952 
L 171.08339 -209.924694 
L 169.420904 -210.897413 
L 167.758418 -211.40842 
L 166.095932 -211.960725 
L 164.433446 -212.866392 
L 162.77096 -214.006166 
L 161.108475 -214.820312 
L 159.445989 -216.007342 
L 157.783503 -217.23497 
L 156.121017 -218.459075 
L 154.458531 -219.877783 
L 152.796045 -220.927216 
L 151.133559 -222.13541 
L 149.471073 -223.364763 
L 147.808587 -224.587513 
L 146.146101 -225.744523 
L 144.483616 -226.970305 
L 142.82113 -227.989513 
L 141.158644 -229.39588 
L 139.496158 -230.501917 
L 137.833672 -231.796284 
L 136.171186 -233.174728 
L 134.5087 -234.421366 
L 132.846214 -235.621677 
L 131.183728 -236.928166 
L 129.521242 -238.395571 
L 127.858757 -239.867881 
L 126.196271 -241.446009 
L 124.533785 -243.099413 
L 122.871299 -244.600891 
L 121.208813 -245.872183 
L 119.546327 -247.253362 
L 117.883841 -248.73677 
L 116.221355 -250.161874 
L 114.558869 -251.503804 
L 112.896383 -252.914218 
L 111.233898 -254.407617 
L 109.571412 -255.994251 
L 107.908926 -257.516466 
L 106.24644 -258.887817 
L 104.583954 -260.381217 
L 102.921468 -261.771759 
L 101.258982 -263.013664 
L 99.596496 -264.320345 
L 97.93401 -265.879729 
L 96.271524 -267.077397 
L 94.609039 -268.692079 
L 92.946553 -270.686239 
L 91.284067 -272.342621 
L 89.621581 -273.826674 
L 87.959095 -275.330248 
L 86.296609 -276.942422 
L 84.634123 -278.707376 
L 82.971637 -280.489957 
z
" style="stroke: #ffffff; stroke-opacity: 0.15"/>
    </defs>
    <g clip-path="url(#p1d1ad601a7)">
     <use xlink:href="#m078ac8b301" x="0" y="360" style="fill: #0173b2; fill-opacity: 0.15; stroke: #ffffff; stroke-opacity: 0.15"/>
    </g>
   </g>
   <g id="PathCollection_2">
    <defs>
     <path id="m607d3eed1b" d="M 0 3 
C 0.795609 3 1.55874 2.683901 2.12132 2.12132 
C 2.683901 1.55874 3 0.795609 3 0 
C 3 -0.795609 2.683901 -1.55874 2.12132 -2.12132 
C 1.55874 -2.683901 0.795609 -3 0 -3 
C -0.795609 -3 -1.55874 -2.683901 -2.12132 -2.12132 
C -2.683901 -1.55874 -3 -0.795609 -3 0 
C -3 0.795609 -2.683901 1.55874 -2.12132 2.12132 
C -1.55874 2.683901 -0.795609 3 0 3 
z
" style="stroke: #de8f05; stroke-opacity: 0.8"/>
    </defs>
    <g clip-path="url(#p1d1ad601a7)">
     <use xlink:href="#m607d3eed1b" x="79.80652" y="134.726028" style="fill: #de8f05; fill-opacity: 0.8; stroke: #de8f05; stroke-opacity: 0.8"/>
     <use xlink:href="#m607d3eed1b" x="222.236802" y="188.837004" style="fill: #de8f05; fill-opacity: 0.8; stroke: #de8f05; stroke-opacity: 0.8"/>
     <use xlink:href="#m607d3eed1b" x="155.769337" y="186.152352" style="fill: #de8f05; fill-opacity: 0.8; stroke: #de8f05; stroke-opacity: 0.8"/>
     <use xlink:href="#m607d3eed1b" x="162.099572" y="164.008152" style="fill: #de8f05; fill-opacity: 0.8; stroke: #de8f05; stroke-opacity: 0.8"/>
     <use xlink:href="#m607d3eed1b" x="212.74145" y="193.9879" style="fill: #de8f05; fill-opacity: 0.8; stroke: #de8f05; stroke-opacity: 0.8"/>
     <use xlink:href="#m607d3eed1b" x="162.099572" y="187.982201" style="fill: #de8f05; fill-opacity: 0.8; stroke: #de8f05; stroke-opacity: 0.8"/>
     <use xlink:href="#m607d3eed1b" x="101.962342" y="97.996652" style="fill: #de8f05; fill-opacity: 0.8; stroke: #de8f05; stroke-opacity: 0.8"/>
     <use xlink:href="#m607d3eed1b" x="105.127459" y="131.629008" style="fill: #de8f05; fill-opacity: 0.8; stroke: #de8f05; stroke-opacity: 0.8"/>
     <use xlink:href="#m607d3eed1b" x="127.283281" y="120.141442" style="fill: #de8f05; fill-opacity: 0.8; stroke: #de8f05; stroke-opacity: 0.8"/>
     <use xlink:href="#m607d3eed1b" x="114.622811" y="130.969486" style="fill: #de8f05; fill-opacity: 0.8; stroke: #de8f05; stroke-opacity: 0.8"/>
     <use xlink:href="#m607d3eed1b" x="276.043798" y="191.003784" style="fill: #de8f05; fill-opacity: 0.8; stroke: #de8f05; stroke-opacity: 0.8"/>
     <use xlink:href="#m607d3eed1b" x="181.090276" y="162.716944" style="fill: #de8f05; fill-opacity: 0.8; stroke: #de8f05; stroke-opacity: 0.8"/>
     <use xlink:href="#m607d3eed1b" x="342.511263" y="208.976771" style="fill: #de8f05; fill-opacity: 0.8; stroke: #de8f05; stroke-opacity: 0.8"/>
     <use xlink:href="#m607d3eed1b" x="149.439102" y="182.891616" style="fill: #de8f05; fill-opacity: 0.8; stroke: #de8f05; stroke-opacity: 0.8"/>
     <use xlink:href="#m607d3eed1b" x="171.594924" y="183.427012" style="fill: #de8f05; fill-opacity: 0.8; stroke: #de8f05; stroke-opacity: 0.8"/>
     <use xlink:href="#m607d3eed1b" x="136.778633" y="186.169981" style="fill: #de8f05; fill-opacity: 0.8; stroke: #de8f05; stroke-opacity: 0.8"/>
     <use xlink:href="#m607d3eed1b" x="92.466989" y="117.309665" style="fill: #de8f05; fill-opacity: 0.8; stroke: #de8f05; stroke-opacity: 0.8"/>
     <use xlink:href="#m607d3eed1b" x="158.934455" y="180.620264" style="fill: #de8f05; fill-opacity: 0.8; stroke: #de8f05; stroke-opacity: 0.8"/>
     <use xlink:href="#m607d3eed1b" x="203.246098" y="203.604446" style="fill: #de8f05; fill-opacity: 0.8; stroke: #de8f05; stroke-opacity: 0.8"/>
    </g>
   </g>
   <g id="PolyCollection_2">
    <defs>
     <path id="mf8503ace91" d="M 79.80652 -249.679364 
L 79.80652 -207.85564 
L 82.460103 -207.161143 
L 85.113686 -206.466646 
L 87.76727 -205.77215 
L 90.420853 -205.077653 
L 93.074436 -204.384723 
L 95.728019 -203.692388 
L 98.381603 -203.000053 
L 101.035186 -202.305038 
L 103.688769 -201.606278 
L 106.342352 -200.910671 
L 108.995936 -200.20857 
L 111.649519 -199.481352 
L 114.303102 -198.823948 
L 116.956686 -198.094519 
L 119.610269 -197.365917 
L 122.263852 -196.639378 
L 124.917435 -195.960441 
L 127.571019 -195.321296 
L 130.224602 -194.567504 
L 132.878185 -193.895974 
L 135.531768 -193.271205 
L 138.185352 -192.578076 
L 140.838935 -191.791465 
L 143.492518 -190.994175 
L 146.146101 -190.218932 
L 148.799685 -189.520058 
L 151.453268 -188.470797 
L 154.106851 -187.460588 
L 156.760434 -186.742132 
L 159.414018 -185.799595 
L 162.067601 -184.755088 
L 164.721184 -183.561975 
L 167.374768 -182.638943 
L 170.028351 -181.010709 
L 172.681934 -179.364395 
L 175.335517 -177.932757 
L 177.989101 -176.309273 
L 180.642684 -174.634161 
L 183.296267 -172.958728 
L 185.94985 -171.285254 
L 188.603434 -169.483507 
L 191.257017 -167.834982 
L 193.9106 -165.863324 
L 196.564183 -164.119781 
L 199.217767 -162.373435 
L 201.87135 -160.426676 
L 204.524933 -158.479917 
L 207.178516 -156.533158 
L 209.8321 -154.586399 
L 212.485683 -152.769876 
L 215.139266 -151.005701 
L 217.79285 -148.978612 
L 220.446433 -146.842562 
L 223.100016 -144.826793 
L 225.753599 -142.870499 
L 228.407183 -140.914204 
L 231.060766 -138.95791 
L 233.714349 -137.008397 
L 236.367932 -135.059123 
L 239.021516 -133.10985 
L 241.675099 -131.160577 
L 244.328682 -129.211304 
L 246.982265 -127.26203 
L 249.635849 -125.312757 
L 252.289432 -123.391122 
L 254.943015 -121.531134 
L 257.596598 -119.692071 
L 260.250182 -117.88237 
L 262.903765 -116.073631 
L 265.557348 -114.265786 
L 268.210932 -112.457941 
L 270.864515 -110.650096 
L 273.518098 -108.841604 
L 276.171681 -107.028549 
L 278.825265 -105.215495 
L 281.478848 -103.404762 
L 284.132431 -101.595061 
L 286.786014 -99.78536 
L 289.439598 -97.975659 
L 292.093181 -96.165959 
L 294.746764 -94.356258 
L 297.400347 -92.546557 
L 300.053931 -90.736856 
L 302.707514 -88.927155 
L 305.361097 -86.968844 
L 308.01468 -84.966883 
L 310.668264 -82.964923 
L 313.321847 -80.962962 
L 315.97543 -78.961002 
L 318.629013 -76.959041 
L 321.282597 -75.031397 
L 323.93618 -73.167813 
L 326.589763 -71.304229 
L 329.243347 -69.440646 
L 331.89693 -67.577062 
L 334.550513 -65.713478 
L 337.204096 -63.849895 
L 339.85768 -61.986311 
L 342.511263 -60.122727 
L 342.511263 -144.278061 
L 342.511263 -144.278061 
L 339.85768 -144.899656 
L 337.204096 -145.545469 
L 334.550513 -146.253482 
L 331.89693 -147.113428 
L 329.243347 -147.859934 
L 326.589763 -148.66606 
L 323.93618 -149.404905 
L 321.282597 -150.025451 
L 318.629013 -150.797119 
L 315.97543 -151.640872 
L 313.321847 -152.465156 
L 310.668264 -153.117095 
L 308.01468 -153.731018 
L 305.361097 -154.358969 
L 302.707514 -155.259024 
L 300.053931 -155.93379 
L 297.400347 -156.676566 
L 294.746764 -157.615555 
L 292.093181 -158.290963 
L 289.439598 -159.041318 
L 286.786014 -159.706758 
L 284.132431 -160.485945 
L 281.478848 -161.235525 
L 278.825265 -162.03074 
L 276.171681 -162.813573 
L 273.518098 -163.591552 
L 270.864515 -164.441937 
L 268.210932 -165.256659 
L 265.557348 -166.116879 
L 262.903765 -167.00222 
L 260.250182 -167.926248 
L 257.596598 -168.787655 
L 254.943015 -169.630032 
L 252.289432 -170.510296 
L 249.635849 -171.392162 
L 246.982265 -172.325123 
L 244.328682 -173.190193 
L 241.675099 -174.024029 
L 239.021516 -174.906109 
L 236.367932 -175.831605 
L 233.714349 -176.834165 
L 231.060766 -177.846909 
L 228.407183 -178.837057 
L 225.753599 -179.819462 
L 223.100016 -180.890763 
L 220.446433 -181.903836 
L 217.79285 -182.903951 
L 215.139266 -183.913976 
L 212.485683 -184.897997 
L 209.8321 -185.819935 
L 207.178516 -186.830853 
L 204.524933 -187.839866 
L 201.87135 -188.836108 
L 199.217767 -189.821337 
L 196.564183 -190.871069 
L 193.9106 -191.831504 
L 191.257017 -192.89776 
L 188.603434 -193.942873 
L 185.94985 -194.959578 
L 183.296267 -195.978627 
L 180.642684 -196.997746 
L 177.989101 -198.012075 
L 175.335517 -199.034947 
L 172.681934 -200.047818 
L 170.028351 -201.064063 
L 167.374768 -202.106988 
L 164.721184 -203.098411 
L 162.067601 -204.158377 
L 159.414018 -205.355183 
L 156.760434 -206.518518 
L 154.106851 -207.49715 
L 151.453268 -208.885234 
L 148.799685 -210.116584 
L 146.146101 -211.163185 
L 143.492518 -212.317637 
L 140.838935 -213.627513 
L 138.185352 -215.015033 
L 135.531768 -216.235436 
L 132.878185 -217.580134 
L 130.224602 -219.068979 
L 127.571019 -220.482824 
L 124.917435 -221.88327 
L 122.263852 -223.143997 
L 119.610269 -224.588512 
L 116.956686 -225.95951 
L 114.303102 -227.145014 
L 111.649519 -228.80919 
L 108.995936 -230.413637 
L 106.342352 -232.012201 
L 103.688769 -233.540356 
L 101.035186 -235.323612 
L 98.381603 -236.77938 
L 95.728019 -238.601228 
L 93.074436 -240.457736 
L 90.420853 -242.411407 
L 87.76727 -244.362025 
L 85.113686 -246.312867 
L 82.460103 -248.169937 
L 79.80652 -249.679364 
z
" style="stroke: #ffffff; stroke-opacity: 0.15"/>
    </defs>
    <g clip-path="url(#p1d1ad601a7)">
     <use xlink:href="#mf8503ace91" x="0" y="360" style="fill: #de8f05; fill-opacity: 0.15; stroke: #ffffff; stroke-opacity: 0.15"/>
    </g>
   </g>
   <g id="line2d_11">
    <path d="M 82.971637 113.674314 
L 84.634123 114.600833 
L 86.296609 115.527351 
L 87.959095 116.453869 
L 89.621581 117.380387 
L 91.284067 118.306905 
L 92.946553 119.233423 
L 94.609039 120.159941 
L 96.271524 121.08646 
L 97.93401 122.012978 
L 99.596496 122.939496 
L 101.258982 123.866014 
L 102.921468 124.792532 
L 104.583954 125.71905 
L 106.24644 126.645569 
L 107.908926 127.572087 
L 109.571412 128.498605 
L 111.233898 129.425123 
L 112.896383 130.351641 
L 114.558869 131.278159 
L 116.221355 132.204678 
L 117.883841 133.131196 
L 119.546327 134.057714 
L 121.208813 134.984232 
L 122.871299 135.91075 
L 124.533785 136.837268 
L 126.196271 137.763786 
L 127.858757 138.690305 
L 129.521242 139.616823 
L 131.183728 140.543341 
L 132.846214 141.469859 
L 134.5087 142.396377 
L 136.171186 143.322895 
L 137.833672 144.249414 
L 139.496158 145.175932 
L 141.158644 146.10245 
L 142.82113 147.028968 
L 144.483616 147.955486 
L 146.146101 148.882004 
L 147.808587 149.808523 
L 149.471073 150.735041 
L 151.133559 151.661559 
L 152.796045 152.588077 
L 154.458531 153.514595 
L 156.121017 154.441113 
L 157.783503 155.367631 
L 159.445989 156.29415 
L 161.108475 157.220668 
L 162.77096 158.147186 
L 164.433446 159.073704 
L 166.095932 160.000222 
L 167.758418 160.92674 
L 169.420904 161.853259 
L 171.08339 162.779777 
L 172.745876 163.706295 
L 174.408362 164.632813 
L 176.070848 165.559331 
L 177.733334 166.485849 
L 179.395819 167.412368 
L 181.058305 168.338886 
L 182.720791 169.265404 
L 184.383277 170.191922 
L 186.045763 171.11844 
L 187.708249 172.044958 
L 189.370735 172.971477 
L 191.033221 173.897995 
L 192.695707 174.824513 
L 194.358193 175.751031 
L 196.020678 176.677549 
L 197.683164 177.604067 
L 199.34565 178.530585 
L 201.008136 179.457104 
L 202.670622 180.383622 
L 204.333108 181.31014 
L 205.995594 182.236658 
L 207.65808 183.163176 
L 209.320566 184.089694 
L 210.983052 185.016213 
L 212.645537 185.942731 
L 214.308023 186.869249 
L 215.970509 187.795767 
L 217.632995 188.722285 
L 219.295481 189.648803 
L 220.957967 190.575322 
L 222.620453 191.50184 
L 224.282939 192.428358 
L 225.945425 193.354876 
L 227.607911 194.281394 
L 229.270396 195.207912 
L 230.932882 196.13443 
L 232.595368 197.060949 
L 234.257854 197.987467 
L 235.92034 198.913985 
L 237.582826 199.840503 
L 239.245312 200.767021 
L 240.907798 201.693539 
L 242.570284 202.620058 
L 244.232769 203.546576 
L 245.895255 204.473094 
L 247.557741 205.399612 
" clip-path="url(#p1d1ad601a7)" style="fill: none; stroke: #0173b2; stroke-width: 2.25; stroke-linecap: round"/>
   </g>
   <g id="line2d_12">
    <path d="M 79.80652 132.706113 
L 82.460103 133.728577 
L 85.113686 134.75104 
L 87.76727 135.773504 
L 90.420853 136.795967 
L 93.074436 137.81843 
L 95.728019 138.840894 
L 98.381603 139.863357 
L 101.035186 140.885821 
L 103.688769 141.908284 
L 106.342352 142.930747 
L 108.995936 143.953211 
L 111.649519 144.975674 
L 114.303102 145.998138 
L 116.956686 147.020601 
L 119.610269 148.043064 
L 122.263852 149.065528 
L 124.917435 150.087991 
L 127.571019 151.110455 
L 130.224602 152.132918 
L 132.878185 153.155381 
L 135.531768 154.177845 
L 138.185352 155.200308 
L 140.838935 156.222772 
L 143.492518 157.245235 
L 146.146101 158.267698 
L 148.799685 159.290162 
L 151.453268 160.312625 
L 154.106851 161.335089 
L 156.760434 162.357552 
L 159.414018 163.380015 
L 162.067601 164.402479 
L 164.721184 165.424942 
L 167.374768 166.447406 
L 170.028351 167.469869 
L 172.681934 168.492332 
L 175.335517 169.514796 
L 177.989101 170.537259 
L 180.642684 171.559723 
L 183.296267 172.582186 
L 185.94985 173.604649 
L 188.603434 174.627113 
L 191.257017 175.649576 
L 193.9106 176.67204 
L 196.564183 177.694503 
L 199.217767 178.716966 
L 201.87135 179.73943 
L 204.524933 180.761893 
L 207.178516 181.784357 
L 209.8321 182.80682 
L 212.485683 183.829283 
L 215.139266 184.851747 
L 217.79285 185.87421 
L 220.446433 186.896674 
L 223.100016 187.919137 
L 225.753599 188.9416 
L 228.407183 189.964064 
L 231.060766 190.986527 
L 233.714349 192.008991 
L 236.367932 193.031454 
L 239.021516 194.053917 
L 241.675099 195.076381 
L 244.328682 196.098844 
L 246.982265 197.121308 
L 249.635849 198.143771 
L 252.289432 199.166234 
L 254.943015 200.188698 
L 257.596598 201.211161 
L 260.250182 202.233625 
L 262.903765 203.256088 
L 265.557348 204.278551 
L 268.210932 205.301015 
L 270.864515 206.323478 
L 273.518098 207.345942 
L 276.171681 208.368405 
L 278.825265 209.390868 
L 281.478848 210.413332 
L 284.132431 211.435795 
L 286.786014 212.458259 
L 289.439598 213.480722 
L 292.093181 214.503185 
L 294.746764 215.525649 
L 297.400347 216.548112 
L 300.053931 217.570576 
L 302.707514 218.593039 
L 305.361097 219.615502 
L 308.01468 220.637966 
L 310.668264 221.660429 
L 313.321847 222.682893 
L 315.97543 223.705356 
L 318.629013 224.727819 
L 321.282597 225.750283 
L 323.93618 226.772746 
L 326.589763 227.795209 
L 329.243347 228.817673 
L 331.89693 229.840136 
L 334.550513 230.8626 
L 337.204096 231.885063 
L 339.85768 232.907526 
L 342.511263 233.92999 
" clip-path="url(#p1d1ad601a7)" style="fill: none; stroke: #de8f05; stroke-width: 2.25; stroke-linecap: round"/>
   </g>
   <g id="patch_3">
    <path d="M 66.671283 313.54 
L 66.671283 12.96 
" style="fill: none; stroke: #ffffff; stroke-width: 1.25; stroke-linejoin: miter; stroke-linecap: square"/>
   </g>
   <g id="patch_4">
    <path d="M 66.671283 313.54 
L 355.6465 313.54 
" style="fill: none; stroke: #ffffff; stroke-width: 1.25; stroke-linejoin: miter; stroke-linecap: square"/>
   </g>
  </g>
  <g id="legend_1">
   <g id="text_13">
    <!-- Treatment -->
    <g style="fill: #262626" transform="translate(365.205781 167.542344)scale(0.12 -0.12)">
     <defs>
      <path id="ArialMT-54" d="M 1659 0 
L 1659 4041 
L 150 4041 
L 150 4581 
L 3781 4581 
L 3781 4041 
L 2266 4041 
L 2266 0 
L 1659 0 
z
" transform="scale(0.015625)"/>
     </defs>
     <use xlink:href="#ArialMT-54"/>
     <use xlink:href="#ArialMT-72" x="57.333984"/>
     <use xlink:href="#ArialMT-65" x="90.634766"/>
     <use xlink:href="#ArialMT-61" x="146.25"/>
     <use xlink:href="#ArialMT-74" x="201.865234"/>
     <use xlink:href="#ArialMT-6d" x="229.648438"/>
     <use xlink:href="#ArialMT-65" x="312.949219"/>
     <use xlink:href="#ArialMT-6e" x="368.564453"/>
     <use xlink:href="#ArialMT-74" x="424.179688"/>
    </g>
   </g>
   <g id="PathCollection_3">
    <g>
     <use xlink:href="#m363c5b773c" x="370.192187" y="180.413438" style="fill: #0173b2; fill-opacity: 0.8; stroke: #0173b2; stroke-opacity: 0.8"/>
    </g>
   </g>
   <g id="text_14">
    <!-- Control -->
    <g style="fill: #262626" transform="translate(389.992188 183.300938)scale(0.11 -0.11)">
     <defs>
      <path id="ArialMT-43" d="M 3763 1606 
L 4369 1453 
Q 4178 706 3683 314 
Q 3188 -78 2472 -78 
Q 1731 -78 1267 223 
Q 803 525 561 1097 
Q 319 1669 319 2325 
Q 319 3041 592 3573 
Q 866 4106 1370 4382 
Q 1875 4659 2481 4659 
Q 3169 4659 3637 4309 
Q 4106 3959 4291 3325 
L 3694 3184 
Q 3534 3684 3231 3912 
Q 2928 4141 2469 4141 
Q 1941 4141 1586 3887 
Q 1231 3634 1087 3207 
Q 944 2781 944 2328 
Q 944 1744 1114 1308 
Q 1284 872 1643 656 
Q 2003 441 2422 441 
Q 2931 441 3284 734 
Q 3638 1028 3763 1606 
z
" transform="scale(0.015625)"/>
      <path id="ArialMT-6f" d="M 213 1659 
Q 213 2581 725 3025 
Q 1153 3394 1769 3394 
Q 2453 3394 2887 2945 
Q 3322 2497 3322 1706 
Q 3322 1066 3130 698 
Q 2938 331 2570 128 
Q 2203 -75 1769 -75 
Q 1072 -75 642 372 
Q 213 819 213 1659 
z
M 791 1659 
Q 791 1022 1069 705 
Q 1347 388 1769 388 
Q 2188 388 2466 706 
Q 2744 1025 2744 1678 
Q 2744 2294 2464 2611 
Q 2184 2928 1769 2928 
Q 1347 2928 1069 2612 
Q 791 2297 791 1659 
z
" transform="scale(0.015625)"/>
      <path id="ArialMT-6c" d="M 409 0 
L 409 4581 
L 972 4581 
L 972 0 
L 409 0 
z
" transform="scale(0.015625)"/>
     </defs>
     <use xlink:href="#ArialMT-43"/>
     <use xlink:href="#ArialMT-6f" x="72.216797"/>
     <use xlink:href="#ArialMT-6e" x="127.832031"/>
     <use xlink:href="#ArialMT-74" x="183.447266"/>
     <use xlink:href="#ArialMT-72" x="211.230469"/>
     <use xlink:href="#ArialMT-6f" x="244.53125"/>
     <use xlink:href="#ArialMT-6c" x="300.146484"/>
    </g>
   </g>
   <g id="PathCollection_4">
    <g>
     <use xlink:href="#m607d3eed1b" x="370.192187" y="195.973281" style="fill: #de8f05; fill-opacity: 0.8; stroke: #de8f05; stroke-opacity: 0.8"/>
    </g>
   </g>
   <g id="text_15">
    <!-- DFO -->
    <g style="fill: #262626" transform="translate(389.992188 198.860781)scale(0.11 -0.11)">
     <defs>
      <path id="ArialMT-44" d="M 494 0 
L 494 4581 
L 2072 4581 
Q 2606 4581 2888 4516 
Q 3281 4425 3559 4188 
Q 3922 3881 4101 3404 
Q 4281 2928 4281 2316 
Q 4281 1794 4159 1391 
Q 4038 988 3847 723 
Q 3656 459 3429 307 
Q 3203 156 2883 78 
Q 2563 0 2147 0 
L 494 0 
z
M 1100 541 
L 2078 541 
Q 2531 541 2789 625 
Q 3047 709 3200 863 
Q 3416 1078 3536 1442 
Q 3656 1806 3656 2325 
Q 3656 3044 3420 3430 
Q 3184 3816 2847 3947 
Q 2603 4041 2063 4041 
L 1100 4041 
L 1100 541 
z
" transform="scale(0.015625)"/>
      <path id="ArialMT-46" d="M 525 0 
L 525 4581 
L 3616 4581 
L 3616 4041 
L 1131 4041 
L 1131 2622 
L 3281 2622 
L 3281 2081 
L 1131 2081 
L 1131 0 
L 525 0 
z
" transform="scale(0.015625)"/>
      <path id="ArialMT-4f" d="M 309 2231 
Q 309 3372 921 4017 
Q 1534 4663 2503 4663 
Q 3138 4663 3647 4359 
Q 4156 4056 4423 3514 
Q 4691 2972 4691 2284 
Q 4691 1588 4409 1038 
Q 4128 488 3612 205 
Q 3097 -78 2500 -78 
Q 1853 -78 1343 234 
Q 834 547 571 1087 
Q 309 1628 309 2231 
z
M 934 2222 
Q 934 1394 1379 917 
Q 1825 441 2497 441 
Q 3181 441 3623 922 
Q 4066 1403 4066 2288 
Q 4066 2847 3877 3264 
Q 3688 3681 3323 3911 
Q 2959 4141 2506 4141 
Q 1863 4141 1398 3698 
Q 934 3256 934 2222 
z
" transform="scale(0.015625)"/>
     </defs>
     <use xlink:href="#ArialMT-44"/>
     <use xlink:href="#ArialMT-46" x="72.216797"/>
     <use xlink:href="#ArialMT-4f" x="133.300781"/>
    </g>
   </g>
  </g>
 </g>
 <defs>
  <clipPath id="p1d1ad601a7">
   <rect x="66.671283" y="12.96" width="288.975217" height="300.58"/>
  </clipPath>
 </defs>
</svg>
