<?xml version="1.0" encoding="utf-8" standalone="no"?>
<!DOCTYPE svg PUBLIC "-//W3C//DTD SVG 1.1//EN"
  "http://www.w3.org/Graphics/SVG/1.1/DTD/svg11.dtd">
<svg xmlns:xlink="http://www.w3.org/1999/xlink" width="435.35pt" height="360pt" viewBox="0 0 435.35 360" xmlns="http://www.w3.org/2000/svg" version="1.1">
 <metadata>
  <rdf:RDF xmlns:dc="http://purl.org/dc/elements/1.1/" xmlns:cc="http://creativecommons.org/ns#" xmlns:rdf="http://www.w3.org/1999/02/22-rdf-syntax-ns#">
   <cc:Work>
    <dc:type rdf:resource="http://purl.org/dc/dcmitype/StillImage"/>
    <dc:date>2022-07-01T12:53:34.231284</dc:date>
    <dc:format>image/svg+xml</dc:format>
    <dc:creator>
     <cc:Agent>
      <dc:title>Matplotlib v3.5.1, https://matplotlib.org/</dc:title>
     </cc:Agent>
    </dc:creator>
   </cc:Work>
  </rdf:RDF>
 </metadata>
 <defs>
  <style type="text/css">*{stroke-linejoin: round; stroke-linecap: butt}</style>
 </defs>
 <g id="figure_1">
  <g id="patch_1">
   <path d="M 0 360 
L 435.35 360 
L 435.35 0 
L 0 0 
z
" style="fill: #ffffff"/>
  </g>
  <g id="axes_1">
   <g id="patch_2">
    <path d="M 66.614597 313.493125 
L 355.6465 313.493125 
L 355.6465 12.96 
L 66.614597 12.96 
z
" style="fill: #eaeaf2"/>
   </g>
   <g id="matplotlib.axis_1">
    <g id="xtick_1">
     <g id="line2d_1">
      <path d="M 102.524922 313.493125 
L 102.524922 12.96 
" clip-path="url(#p83cf3ce521)" style="fill: none; stroke: #ffffff; stroke-linecap: round"/>
     </g>
     <g id="text_1">
      <!-- 25 -->
      <g style="fill: #262626" transform="translate(96.407891 330.866719)scale(0.11 -0.11)">
       <defs>
        <path id="ArialMT-32" d="M 3222 541 
L 3222 0 
L 194 0 
Q 188 203 259 391 
Q 375 700 629 1000 
Q 884 1300 1366 1694 
Q 2113 2306 2375 2664 
Q 2638 3022 2638 3341 
Q 2638 3675 2398 3904 
Q 2159 4134 1775 4134 
Q 1369 4134 1125 3890 
Q 881 3647 878 3216 
L 300 3275 
Q 359 3922 746 4261 
Q 1134 4600 1788 4600 
Q 2447 4600 2831 4234 
Q 3216 3869 3216 3328 
Q 3216 3053 3103 2787 
Q 2991 2522 2730 2228 
Q 2469 1934 1863 1422 
Q 1356 997 1212 845 
Q 1069 694 975 541 
L 3222 541 
z
" transform="scale(0.015625)"/>
        <path id="ArialMT-35" d="M 266 1200 
L 856 1250 
Q 922 819 1161 601 
Q 1400 384 1738 384 
Q 2144 384 2425 690 
Q 2706 997 2706 1503 
Q 2706 1984 2436 2262 
Q 2166 2541 1728 2541 
Q 1456 2541 1237 2417 
Q 1019 2294 894 2097 
L 366 2166 
L 809 4519 
L 3088 4519 
L 3088 3981 
L 1259 3981 
L 1013 2750 
Q 1425 3038 1878 3038 
Q 2478 3038 2890 2622 
Q 3303 2206 3303 1553 
Q 3303 931 2941 478 
Q 2500 -78 1738 -78 
Q 1113 -78 717 272 
Q 322 622 266 1200 
z
" transform="scale(0.015625)"/>
       </defs>
       <use xlink:href="#ArialMT-32"/>
       <use xlink:href="#ArialMT-35" x="55.615234"/>
      </g>
     </g>
    </g>
    <g id="xtick_2">
     <g id="line2d_2">
      <path d="M 145.032396 313.493125 
L 145.032396 12.96 
" clip-path="url(#p83cf3ce521)" style="fill: none; stroke: #ffffff; stroke-linecap: round"/>
     </g>
     <g id="text_2">
      <!-- 50 -->
      <g style="fill: #262626" transform="translate(138.915365 330.866719)scale(0.11 -0.11)">
       <defs>
        <path id="ArialMT-30" d="M 266 2259 
Q 266 3072 433 3567 
Q 600 4063 929 4331 
Q 1259 4600 1759 4600 
Q 2128 4600 2406 4451 
Q 2684 4303 2865 4023 
Q 3047 3744 3150 3342 
Q 3253 2941 3253 2259 
Q 3253 1453 3087 958 
Q 2922 463 2592 192 
Q 2263 -78 1759 -78 
Q 1097 -78 719 397 
Q 266 969 266 2259 
z
M 844 2259 
Q 844 1131 1108 757 
Q 1372 384 1759 384 
Q 2147 384 2411 759 
Q 2675 1134 2675 2259 
Q 2675 3391 2411 3762 
Q 2147 4134 1753 4134 
Q 1366 4134 1134 3806 
Q 844 3388 844 2259 
z
" transform="scale(0.015625)"/>
       </defs>
       <use xlink:href="#ArialMT-35"/>
       <use xlink:href="#ArialMT-30" x="55.615234"/>
      </g>
     </g>
    </g>
    <g id="xtick_3">
     <g id="line2d_3">
      <path d="M 187.53987 313.493125 
L 187.53987 12.96 
" clip-path="url(#p83cf3ce521)" style="fill: none; stroke: #ffffff; stroke-linecap: round"/>
     </g>
     <g id="text_3">
      <!-- 75 -->
      <g style="fill: #262626" transform="translate(181.422838 330.866719)scale(0.11 -0.11)">
       <defs>
        <path id="ArialMT-37" d="M 303 3981 
L 303 4522 
L 3269 4522 
L 3269 4084 
Q 2831 3619 2401 2847 
Q 1972 2075 1738 1259 
Q 1569 684 1522 0 
L 944 0 
Q 953 541 1156 1306 
Q 1359 2072 1739 2783 
Q 2119 3494 2547 3981 
L 303 3981 
z
" transform="scale(0.015625)"/>
       </defs>
       <use xlink:href="#ArialMT-37"/>
       <use xlink:href="#ArialMT-35" x="55.615234"/>
      </g>
     </g>
    </g>
    <g id="xtick_4">
     <g id="line2d_4">
      <path d="M 230.047343 313.493125 
L 230.047343 12.96 
" clip-path="url(#p83cf3ce521)" style="fill: none; stroke: #ffffff; stroke-linecap: round"/>
     </g>
     <g id="text_4">
      <!-- 100 -->
      <g style="fill: #262626" transform="translate(220.871796 330.866719)scale(0.11 -0.11)">
       <defs>
        <path id="ArialMT-31" d="M 2384 0 
L 1822 0 
L 1822 3584 
Q 1619 3391 1289 3197 
Q 959 3003 697 2906 
L 697 3450 
Q 1169 3672 1522 3987 
Q 1875 4303 2022 4600 
L 2384 4600 
L 2384 0 
z
" transform="scale(0.015625)"/>
       </defs>
       <use xlink:href="#ArialMT-31"/>
       <use xlink:href="#ArialMT-30" x="55.615234"/>
       <use xlink:href="#ArialMT-30" x="111.230469"/>
      </g>
     </g>
    </g>
    <g id="xtick_5">
     <g id="line2d_5">
      <path d="M 272.554817 313.493125 
L 272.554817 12.96 
" clip-path="url(#p83cf3ce521)" style="fill: none; stroke: #ffffff; stroke-linecap: round"/>
     </g>
     <g id="text_5">
      <!-- 125 -->
      <g style="fill: #262626" transform="translate(263.37927 330.866719)scale(0.11 -0.11)">
       <use xlink:href="#ArialMT-31"/>
       <use xlink:href="#ArialMT-32" x="55.615234"/>
       <use xlink:href="#ArialMT-35" x="111.230469"/>
      </g>
     </g>
    </g>
    <g id="xtick_6">
     <g id="line2d_6">
      <path d="M 315.062291 313.493125 
L 315.062291 12.96 
" clip-path="url(#p83cf3ce521)" style="fill: none; stroke: #ffffff; stroke-linecap: round"/>
     </g>
     <g id="text_6">
      <!-- 150 -->
      <g style="fill: #262626" transform="translate(305.886744 330.866719)scale(0.11 -0.11)">
       <use xlink:href="#ArialMT-31"/>
       <use xlink:href="#ArialMT-35" x="55.615234"/>
       <use xlink:href="#ArialMT-30" x="111.230469"/>
      </g>
     </g>
    </g>
    <g id="text_7">
     <!-- Average_Branch_Length -->
     <g style="fill: #262626" transform="translate(144.856798 345.642344)scale(0.12 -0.12)">
      <defs>
       <path id="ArialMT-41" d="M -9 0 
L 1750 4581 
L 2403 4581 
L 4278 0 
L 3588 0 
L 3053 1388 
L 1138 1388 
L 634 0 
L -9 0 
z
M 1313 1881 
L 2866 1881 
L 2388 3150 
Q 2169 3728 2063 4100 
Q 1975 3659 1816 3225 
L 1313 1881 
z
" transform="scale(0.015625)"/>
       <path id="ArialMT-76" d="M 1344 0 
L 81 3319 
L 675 3319 
L 1388 1331 
Q 1503 1009 1600 663 
Q 1675 925 1809 1294 
L 2547 3319 
L 3125 3319 
L 1869 0 
L 1344 0 
z
" transform="scale(0.015625)"/>
       <path id="ArialMT-65" d="M 2694 1069 
L 3275 997 
Q 3138 488 2766 206 
Q 2394 -75 1816 -75 
Q 1088 -75 661 373 
Q 234 822 234 1631 
Q 234 2469 665 2931 
Q 1097 3394 1784 3394 
Q 2450 3394 2872 2941 
Q 3294 2488 3294 1666 
Q 3294 1616 3291 1516 
L 816 1516 
Q 847 969 1125 678 
Q 1403 388 1819 388 
Q 2128 388 2347 550 
Q 2566 713 2694 1069 
z
M 847 1978 
L 2700 1978 
Q 2663 2397 2488 2606 
Q 2219 2931 1791 2931 
Q 1403 2931 1139 2672 
Q 875 2413 847 1978 
z
" transform="scale(0.015625)"/>
       <path id="ArialMT-72" d="M 416 0 
L 416 3319 
L 922 3319 
L 922 2816 
Q 1116 3169 1280 3281 
Q 1444 3394 1641 3394 
Q 1925 3394 2219 3213 
L 2025 2691 
Q 1819 2813 1613 2813 
Q 1428 2813 1281 2702 
Q 1134 2591 1072 2394 
Q 978 2094 978 1738 
L 978 0 
L 416 0 
z
" transform="scale(0.015625)"/>
       <path id="ArialMT-61" d="M 2588 409 
Q 2275 144 1986 34 
Q 1697 -75 1366 -75 
Q 819 -75 525 192 
Q 231 459 231 875 
Q 231 1119 342 1320 
Q 453 1522 633 1644 
Q 813 1766 1038 1828 
Q 1203 1872 1538 1913 
Q 2219 1994 2541 2106 
Q 2544 2222 2544 2253 
Q 2544 2597 2384 2738 
Q 2169 2928 1744 2928 
Q 1347 2928 1158 2789 
Q 969 2650 878 2297 
L 328 2372 
Q 403 2725 575 2942 
Q 747 3159 1072 3276 
Q 1397 3394 1825 3394 
Q 2250 3394 2515 3294 
Q 2781 3194 2906 3042 
Q 3031 2891 3081 2659 
Q 3109 2516 3109 2141 
L 3109 1391 
Q 3109 606 3145 398 
Q 3181 191 3288 0 
L 2700 0 
Q 2613 175 2588 409 
z
M 2541 1666 
Q 2234 1541 1622 1453 
Q 1275 1403 1131 1340 
Q 988 1278 909 1158 
Q 831 1038 831 891 
Q 831 666 1001 516 
Q 1172 366 1500 366 
Q 1825 366 2078 508 
Q 2331 650 2450 897 
Q 2541 1088 2541 1459 
L 2541 1666 
z
" transform="scale(0.015625)"/>
       <path id="ArialMT-67" d="M 319 -275 
L 866 -356 
Q 900 -609 1056 -725 
Q 1266 -881 1628 -881 
Q 2019 -881 2231 -725 
Q 2444 -569 2519 -288 
Q 2563 -116 2559 434 
Q 2191 0 1641 0 
Q 956 0 581 494 
Q 206 988 206 1678 
Q 206 2153 378 2554 
Q 550 2956 876 3175 
Q 1203 3394 1644 3394 
Q 2231 3394 2613 2919 
L 2613 3319 
L 3131 3319 
L 3131 450 
Q 3131 -325 2973 -648 
Q 2816 -972 2473 -1159 
Q 2131 -1347 1631 -1347 
Q 1038 -1347 672 -1080 
Q 306 -813 319 -275 
z
M 784 1719 
Q 784 1066 1043 766 
Q 1303 466 1694 466 
Q 2081 466 2343 764 
Q 2606 1063 2606 1700 
Q 2606 2309 2336 2618 
Q 2066 2928 1684 2928 
Q 1309 2928 1046 2623 
Q 784 2319 784 1719 
z
" transform="scale(0.015625)"/>
       <path id="ArialMT-5f" d="M -97 -1272 
L -97 -866 
L 3631 -866 
L 3631 -1272 
L -97 -1272 
z
" transform="scale(0.015625)"/>
       <path id="ArialMT-42" d="M 469 0 
L 469 4581 
L 2188 4581 
Q 2713 4581 3030 4442 
Q 3347 4303 3526 4014 
Q 3706 3725 3706 3409 
Q 3706 3116 3547 2856 
Q 3388 2597 3066 2438 
Q 3481 2316 3704 2022 
Q 3928 1728 3928 1328 
Q 3928 1006 3792 729 
Q 3656 453 3456 303 
Q 3256 153 2954 76 
Q 2653 0 2216 0 
L 469 0 
z
M 1075 2656 
L 2066 2656 
Q 2469 2656 2644 2709 
Q 2875 2778 2992 2937 
Q 3109 3097 3109 3338 
Q 3109 3566 3000 3739 
Q 2891 3913 2687 3977 
Q 2484 4041 1991 4041 
L 1075 4041 
L 1075 2656 
z
M 1075 541 
L 2216 541 
Q 2509 541 2628 563 
Q 2838 600 2978 687 
Q 3119 775 3209 942 
Q 3300 1109 3300 1328 
Q 3300 1584 3169 1773 
Q 3038 1963 2805 2039 
Q 2572 2116 2134 2116 
L 1075 2116 
L 1075 541 
z
" transform="scale(0.015625)"/>
       <path id="ArialMT-6e" d="M 422 0 
L 422 3319 
L 928 3319 
L 928 2847 
Q 1294 3394 1984 3394 
Q 2284 3394 2536 3286 
Q 2788 3178 2913 3003 
Q 3038 2828 3088 2588 
Q 3119 2431 3119 2041 
L 3119 0 
L 2556 0 
L 2556 2019 
Q 2556 2363 2490 2533 
Q 2425 2703 2258 2804 
Q 2091 2906 1866 2906 
Q 1506 2906 1245 2678 
Q 984 2450 984 1813 
L 984 0 
L 422 0 
z
" transform="scale(0.015625)"/>
       <path id="ArialMT-63" d="M 2588 1216 
L 3141 1144 
Q 3050 572 2676 248 
Q 2303 -75 1759 -75 
Q 1078 -75 664 370 
Q 250 816 250 1647 
Q 250 2184 428 2587 
Q 606 2991 970 3192 
Q 1334 3394 1763 3394 
Q 2303 3394 2647 3120 
Q 2991 2847 3088 2344 
L 2541 2259 
Q 2463 2594 2264 2762 
Q 2066 2931 1784 2931 
Q 1359 2931 1093 2626 
Q 828 2322 828 1663 
Q 828 994 1084 691 
Q 1341 388 1753 388 
Q 2084 388 2306 591 
Q 2528 794 2588 1216 
z
" transform="scale(0.015625)"/>
       <path id="ArialMT-68" d="M 422 0 
L 422 4581 
L 984 4581 
L 984 2938 
Q 1378 3394 1978 3394 
Q 2347 3394 2619 3248 
Q 2891 3103 3008 2847 
Q 3125 2591 3125 2103 
L 3125 0 
L 2563 0 
L 2563 2103 
Q 2563 2525 2380 2717 
Q 2197 2909 1863 2909 
Q 1613 2909 1392 2779 
Q 1172 2650 1078 2428 
Q 984 2206 984 1816 
L 984 0 
L 422 0 
z
" transform="scale(0.015625)"/>
       <path id="ArialMT-4c" d="M 469 0 
L 469 4581 
L 1075 4581 
L 1075 541 
L 3331 541 
L 3331 0 
L 469 0 
z
" transform="scale(0.015625)"/>
       <path id="ArialMT-74" d="M 1650 503 
L 1731 6 
Q 1494 -44 1306 -44 
Q 1000 -44 831 53 
Q 663 150 594 308 
Q 525 466 525 972 
L 525 2881 
L 113 2881 
L 113 3319 
L 525 3319 
L 525 4141 
L 1084 4478 
L 1084 3319 
L 1650 3319 
L 1650 2881 
L 1084 2881 
L 1084 941 
Q 1084 700 1114 631 
Q 1144 563 1211 522 
Q 1278 481 1403 481 
Q 1497 481 1650 503 
z
" transform="scale(0.015625)"/>
      </defs>
      <use xlink:href="#ArialMT-41"/>
      <use xlink:href="#ArialMT-76" x="64.949219"/>
      <use xlink:href="#ArialMT-65" x="114.949219"/>
      <use xlink:href="#ArialMT-72" x="170.564453"/>
      <use xlink:href="#ArialMT-61" x="203.865234"/>
      <use xlink:href="#ArialMT-67" x="259.480469"/>
      <use xlink:href="#ArialMT-65" x="315.095703"/>
      <use xlink:href="#ArialMT-5f" x="370.710938"/>
      <use xlink:href="#ArialMT-42" x="426.326172"/>
      <use xlink:href="#ArialMT-72" x="493.025391"/>
      <use xlink:href="#ArialMT-61" x="526.326172"/>
      <use xlink:href="#ArialMT-6e" x="581.941406"/>
      <use xlink:href="#ArialMT-63" x="637.556641"/>
      <use xlink:href="#ArialMT-68" x="687.556641"/>
      <use xlink:href="#ArialMT-5f" x="743.171875"/>
      <use xlink:href="#ArialMT-4c" x="798.787109"/>
      <use xlink:href="#ArialMT-65" x="854.402344"/>
      <use xlink:href="#ArialMT-6e" x="910.017578"/>
      <use xlink:href="#ArialMT-67" x="965.632812"/>
      <use xlink:href="#ArialMT-74" x="1021.248047"/>
      <use xlink:href="#ArialMT-68" x="1049.03125"/>
     </g>
    </g>
   </g>
   <g id="matplotlib.axis_2">
    <g id="ytick_1">
     <g id="line2d_7">
      <path d="M 66.614597 293.21581 
L 355.6465 293.21581 
" clip-path="url(#p83cf3ce521)" style="fill: none; stroke: #ffffff; stroke-linecap: round"/>
     </g>
     <g id="text_8">
      <!-- −20 -->
      <g style="fill: #262626" transform="translate(38.455847 297.152606)scale(0.11 -0.11)">
       <defs>
        <path id="ArialMT-2212" d="M 3381 1997 
L 356 1997 
L 356 2522 
L 3381 2522 
L 3381 1997 
z
" transform="scale(0.015625)"/>
       </defs>
       <use xlink:href="#ArialMT-2212"/>
       <use xlink:href="#ArialMT-32" x="58.398438"/>
       <use xlink:href="#ArialMT-30" x="114.013672"/>
      </g>
     </g>
    </g>
    <g id="ytick_2">
     <g id="line2d_8">
      <path d="M 66.614597 243.384929 
L 355.6465 243.384929 
" clip-path="url(#p83cf3ce521)" style="fill: none; stroke: #ffffff; stroke-linecap: round"/>
     </g>
     <g id="text_9">
      <!-- 0 -->
      <g style="fill: #262626" transform="translate(50.997565 247.321726)scale(0.11 -0.11)">
       <use xlink:href="#ArialMT-30"/>
      </g>
     </g>
    </g>
    <g id="ytick_3">
     <g id="line2d_9">
      <path d="M 66.614597 193.554048 
L 355.6465 193.554048 
" clip-path="url(#p83cf3ce521)" style="fill: none; stroke: #ffffff; stroke-linecap: round"/>
     </g>
     <g id="text_10">
      <!-- 20 -->
      <g style="fill: #262626" transform="translate(44.880534 197.490845)scale(0.11 -0.11)">
       <use xlink:href="#ArialMT-32"/>
       <use xlink:href="#ArialMT-30" x="55.615234"/>
      </g>
     </g>
    </g>
    <g id="ytick_4">
     <g id="line2d_10">
      <path d="M 66.614597 143.723167 
L 355.6465 143.723167 
" clip-path="url(#p83cf3ce521)" style="fill: none; stroke: #ffffff; stroke-linecap: round"/>
     </g>
     <g id="text_11">
      <!-- 40 -->
      <g style="fill: #262626" transform="translate(44.880534 147.659964)scale(0.11 -0.11)">
       <defs>
        <path id="ArialMT-34" d="M 2069 0 
L 2069 1097 
L 81 1097 
L 81 1613 
L 2172 4581 
L 2631 4581 
L 2631 1613 
L 3250 1613 
L 3250 1097 
L 2631 1097 
L 2631 0 
L 2069 0 
z
M 2069 1613 
L 2069 3678 
L 634 1613 
L 2069 1613 
z
" transform="scale(0.015625)"/>
       </defs>
       <use xlink:href="#ArialMT-34"/>
       <use xlink:href="#ArialMT-30" x="55.615234"/>
      </g>
     </g>
    </g>
    <g id="ytick_5">
     <g id="line2d_11">
      <path d="M 66.614597 93.892286 
L 355.6465 93.892286 
" clip-path="url(#p83cf3ce521)" style="fill: none; stroke: #ffffff; stroke-linecap: round"/>
     </g>
     <g id="text_12">
      <!-- 60 -->
      <g style="fill: #262626" transform="translate(44.880534 97.829083)scale(0.11 -0.11)">
       <defs>
        <path id="ArialMT-36" d="M 3184 3459 
L 2625 3416 
Q 2550 3747 2413 3897 
Q 2184 4138 1850 4138 
Q 1581 4138 1378 3988 
Q 1113 3794 959 3422 
Q 806 3050 800 2363 
Q 1003 2672 1297 2822 
Q 1591 2972 1913 2972 
Q 2475 2972 2870 2558 
Q 3266 2144 3266 1488 
Q 3266 1056 3080 686 
Q 2894 316 2569 119 
Q 2244 -78 1831 -78 
Q 1128 -78 684 439 
Q 241 956 241 2144 
Q 241 3472 731 4075 
Q 1159 4600 1884 4600 
Q 2425 4600 2770 4297 
Q 3116 3994 3184 3459 
z
M 888 1484 
Q 888 1194 1011 928 
Q 1134 663 1356 523 
Q 1578 384 1822 384 
Q 2178 384 2434 671 
Q 2691 959 2691 1453 
Q 2691 1928 2437 2201 
Q 2184 2475 1800 2475 
Q 1419 2475 1153 2201 
Q 888 1928 888 1484 
z
" transform="scale(0.015625)"/>
       </defs>
       <use xlink:href="#ArialMT-36"/>
       <use xlink:href="#ArialMT-30" x="55.615234"/>
      </g>
     </g>
    </g>
    <g id="ytick_6">
     <g id="line2d_12">
      <path d="M 66.614597 44.061405 
L 355.6465 44.061405 
" clip-path="url(#p83cf3ce521)" style="fill: none; stroke: #ffffff; stroke-linecap: round"/>
     </g>
     <g id="text_13">
      <!-- 80 -->
      <g style="fill: #262626" transform="translate(44.880534 47.998202)scale(0.11 -0.11)">
       <defs>
        <path id="ArialMT-38" d="M 1131 2484 
Q 781 2613 612 2850 
Q 444 3088 444 3419 
Q 444 3919 803 4259 
Q 1163 4600 1759 4600 
Q 2359 4600 2725 4251 
Q 3091 3903 3091 3403 
Q 3091 3084 2923 2848 
Q 2756 2613 2416 2484 
Q 2838 2347 3058 2040 
Q 3278 1734 3278 1309 
Q 3278 722 2862 322 
Q 2447 -78 1769 -78 
Q 1091 -78 675 323 
Q 259 725 259 1325 
Q 259 1772 486 2073 
Q 713 2375 1131 2484 
z
M 1019 3438 
Q 1019 3113 1228 2906 
Q 1438 2700 1772 2700 
Q 2097 2700 2305 2904 
Q 2513 3109 2513 3406 
Q 2513 3716 2298 3927 
Q 2084 4138 1766 4138 
Q 1444 4138 1231 3931 
Q 1019 3725 1019 3438 
z
M 838 1322 
Q 838 1081 952 856 
Q 1066 631 1291 507 
Q 1516 384 1775 384 
Q 2178 384 2440 643 
Q 2703 903 2703 1303 
Q 2703 1709 2433 1975 
Q 2163 2241 1756 2241 
Q 1359 2241 1098 1978 
Q 838 1716 838 1322 
z
" transform="scale(0.015625)"/>
       </defs>
       <use xlink:href="#ArialMT-38"/>
       <use xlink:href="#ArialMT-30" x="55.615234"/>
      </g>
     </g>
    </g>
    <g id="text_14">
     <!-- Num_Branches -->
     <g style="fill: #262626" transform="translate(32.070847 204.576875)rotate(-90)scale(0.12 -0.12)">
      <defs>
       <path id="ArialMT-4e" d="M 488 0 
L 488 4581 
L 1109 4581 
L 3516 984 
L 3516 4581 
L 4097 4581 
L 4097 0 
L 3475 0 
L 1069 3600 
L 1069 0 
L 488 0 
z
" transform="scale(0.015625)"/>
       <path id="ArialMT-75" d="M 2597 0 
L 2597 488 
Q 2209 -75 1544 -75 
Q 1250 -75 995 37 
Q 741 150 617 320 
Q 494 491 444 738 
Q 409 903 409 1263 
L 409 3319 
L 972 3319 
L 972 1478 
Q 972 1038 1006 884 
Q 1059 663 1231 536 
Q 1403 409 1656 409 
Q 1909 409 2131 539 
Q 2353 669 2445 892 
Q 2538 1116 2538 1541 
L 2538 3319 
L 3100 3319 
L 3100 0 
L 2597 0 
z
" transform="scale(0.015625)"/>
       <path id="ArialMT-6d" d="M 422 0 
L 422 3319 
L 925 3319 
L 925 2853 
Q 1081 3097 1340 3245 
Q 1600 3394 1931 3394 
Q 2300 3394 2536 3241 
Q 2772 3088 2869 2813 
Q 3263 3394 3894 3394 
Q 4388 3394 4653 3120 
Q 4919 2847 4919 2278 
L 4919 0 
L 4359 0 
L 4359 2091 
Q 4359 2428 4304 2576 
Q 4250 2725 4106 2815 
Q 3963 2906 3769 2906 
Q 3419 2906 3187 2673 
Q 2956 2441 2956 1928 
L 2956 0 
L 2394 0 
L 2394 2156 
Q 2394 2531 2256 2718 
Q 2119 2906 1806 2906 
Q 1569 2906 1367 2781 
Q 1166 2656 1075 2415 
Q 984 2175 984 1722 
L 984 0 
L 422 0 
z
" transform="scale(0.015625)"/>
       <path id="ArialMT-73" d="M 197 991 
L 753 1078 
Q 800 744 1014 566 
Q 1228 388 1613 388 
Q 2000 388 2187 545 
Q 2375 703 2375 916 
Q 2375 1106 2209 1216 
Q 2094 1291 1634 1406 
Q 1016 1563 777 1677 
Q 538 1791 414 1992 
Q 291 2194 291 2438 
Q 291 2659 392 2848 
Q 494 3038 669 3163 
Q 800 3259 1026 3326 
Q 1253 3394 1513 3394 
Q 1903 3394 2198 3281 
Q 2494 3169 2634 2976 
Q 2775 2784 2828 2463 
L 2278 2388 
Q 2241 2644 2061 2787 
Q 1881 2931 1553 2931 
Q 1166 2931 1000 2803 
Q 834 2675 834 2503 
Q 834 2394 903 2306 
Q 972 2216 1119 2156 
Q 1203 2125 1616 2013 
Q 2213 1853 2448 1751 
Q 2684 1650 2818 1456 
Q 2953 1263 2953 975 
Q 2953 694 2789 445 
Q 2625 197 2315 61 
Q 2006 -75 1616 -75 
Q 969 -75 630 194 
Q 291 463 197 991 
z
" transform="scale(0.015625)"/>
      </defs>
      <use xlink:href="#ArialMT-4e"/>
      <use xlink:href="#ArialMT-75" x="72.216797"/>
      <use xlink:href="#ArialMT-6d" x="127.832031"/>
      <use xlink:href="#ArialMT-5f" x="211.132812"/>
      <use xlink:href="#ArialMT-42" x="266.748047"/>
      <use xlink:href="#ArialMT-72" x="333.447266"/>
      <use xlink:href="#ArialMT-61" x="366.748047"/>
      <use xlink:href="#ArialMT-6e" x="422.363281"/>
      <use xlink:href="#ArialMT-63" x="477.978516"/>
      <use xlink:href="#ArialMT-68" x="527.978516"/>
      <use xlink:href="#ArialMT-65" x="583.59375"/>
      <use xlink:href="#ArialMT-73" x="639.208984"/>
     </g>
    </g>
   </g>
   <g id="PathCollection_1">
    <defs>
     <path id="m06ea0e63bc" d="M 0 3 
C 0.795609 3 1.55874 2.683901 2.12132 2.12132 
C 2.683901 1.55874 3 0.795609 3 0 
C 3 -0.795609 2.683901 -1.55874 2.12132 -2.12132 
C 1.55874 -2.683901 0.795609 -3 0 -3 
C -0.795609 -3 -1.55874 -2.683901 -2.12132 -2.12132 
C -2.683901 -1.55874 -3 -0.795609 -3 0 
C -3 0.795609 -2.683901 1.55874 -2.12132 2.12132 
C -1.55874 2.683901 -0.795609 3 0 3 
z
" style="stroke: #0173b2; stroke-opacity: 0.8"/>
    </defs>
    <g clip-path="url(#p83cf3ce521)">
     <use xlink:href="#m06ea0e63bc" x="342.508686" y="220.961032" style="fill: #0173b2; fill-opacity: 0.8; stroke: #0173b2; stroke-opacity: 0.8"/>
     <use xlink:href="#m06ea0e63bc" x="166.443903" y="191.062504" style="fill: #0173b2; fill-opacity: 0.8; stroke: #0173b2; stroke-opacity: 0.8"/>
     <use xlink:href="#m06ea0e63bc" x="238.539316" y="198.537136" style="fill: #0173b2; fill-opacity: 0.8; stroke: #0173b2; stroke-opacity: 0.8"/>
     <use xlink:href="#m06ea0e63bc" x="131.7567" y="201.02868" style="fill: #0173b2; fill-opacity: 0.8; stroke: #0173b2; stroke-opacity: 0.8"/>
     <use xlink:href="#m06ea0e63bc" x="159.772117" y="183.587872" style="fill: #0173b2; fill-opacity: 0.8; stroke: #0173b2; stroke-opacity: 0.8"/>
     <use xlink:href="#m06ea0e63bc" x="188.320715" y="210.994856" style="fill: #0173b2; fill-opacity: 0.8; stroke: #0173b2; stroke-opacity: 0.8"/>
     <use xlink:href="#m06ea0e63bc" x="143.751544" y="215.977944" style="fill: #0173b2; fill-opacity: 0.8; stroke: #0173b2; stroke-opacity: 0.8"/>
     <use xlink:href="#m06ea0e63bc" x="149.506835" y="193.554048" style="fill: #0173b2; fill-opacity: 0.8; stroke: #0173b2; stroke-opacity: 0.8"/>
     <use xlink:href="#m06ea0e63bc" x="150.853148" y="230.927208" style="fill: #0173b2; fill-opacity: 0.8; stroke: #0173b2; stroke-opacity: 0.8"/>
     <use xlink:href="#m06ea0e63bc" x="150.159001" y="206.011768" style="fill: #0173b2; fill-opacity: 0.8; stroke: #0173b2; stroke-opacity: 0.8"/>
     <use xlink:href="#m06ea0e63bc" x="265.948985" y="223.452576" style="fill: #0173b2; fill-opacity: 0.8; stroke: #0173b2; stroke-opacity: 0.8"/>
     <use xlink:href="#m06ea0e63bc" x="88.387498" y="101.366918" style="fill: #0173b2; fill-opacity: 0.8; stroke: #0173b2; stroke-opacity: 0.8"/>
     <use xlink:href="#m06ea0e63bc" x="172.312162" y="133.756991" style="fill: #0173b2; fill-opacity: 0.8; stroke: #0173b2; stroke-opacity: 0.8"/>
     <use xlink:href="#m06ea0e63bc" x="119.472635" y="136.248535" style="fill: #0173b2; fill-opacity: 0.8; stroke: #0173b2; stroke-opacity: 0.8"/>
     <use xlink:href="#m06ea0e63bc" x="105.182336" y="131.265447" style="fill: #0173b2; fill-opacity: 0.8; stroke: #0173b2; stroke-opacity: 0.8"/>
     <use xlink:href="#m06ea0e63bc" x="223.993344" y="203.520224" style="fill: #0173b2; fill-opacity: 0.8; stroke: #0173b2; stroke-opacity: 0.8"/>
     <use xlink:href="#m06ea0e63bc" x="233.662349" y="208.503312" style="fill: #0173b2; fill-opacity: 0.8; stroke: #0173b2; stroke-opacity: 0.8"/>
     <use xlink:href="#m06ea0e63bc" x="135.799773" y="93.892286" style="fill: #0173b2; fill-opacity: 0.8; stroke: #0173b2; stroke-opacity: 0.8"/>
     <use xlink:href="#m06ea0e63bc" x="113.767911" y="186.079416" style="fill: #0173b2; fill-opacity: 0.8; stroke: #0173b2; stroke-opacity: 0.8"/>
     <use xlink:href="#m06ea0e63bc" x="128.616758" y="176.113239" style="fill: #0173b2; fill-opacity: 0.8; stroke: #0173b2; stroke-opacity: 0.8"/>
    </g>
   </g>
   <g id="PolyCollection_1">
    <defs>
     <path id="me0f2dfcccf" d="M 88.387498 -236.385838 
L 88.387498 -179.005605 
L 90.954378 -178.486594 
L 93.521259 -177.923806 
L 96.08814 -177.370269 
L 98.65502 -176.940441 
L 101.221901 -176.511977 
L 103.788782 -176.087097 
L 106.355662 -175.662848 
L 108.922543 -175.227802 
L 111.489424 -174.809406 
L 114.056304 -174.380551 
L 116.623185 -173.951696 
L 119.190066 -173.52284 
L 121.756947 -173.093985 
L 124.323827 -172.66513 
L 126.890708 -172.216361 
L 129.457589 -171.748548 
L 132.024469 -171.283227 
L 134.59135 -170.565819 
L 137.158231 -170.24747 
L 139.725111 -169.624286 
L 142.291992 -169.001355 
L 144.858873 -168.378425 
L 147.425753 -167.754384 
L 149.992634 -167.125368 
L 152.559515 -166.594215 
L 155.126396 -166.162682 
L 157.693276 -165.734252 
L 160.260157 -164.808071 
L 162.827038 -164.136372 
L 165.393918 -163.605853 
L 167.960799 -162.826715 
L 170.52768 -161.929091 
L 173.09456 -160.723509 
L 175.661441 -159.642584 
L 178.228322 -158.421379 
L 180.795203 -157.843562 
L 183.362083 -157.075681 
L 185.928964 -156.38551 
L 188.495845 -155.166877 
L 191.062725 -153.944359 
L 193.629606 -153.545751 
L 196.196487 -152.170344 
L 198.763367 -151.099032 
L 201.330248 -149.950221 
L 203.897129 -148.555772 
L 206.464009 -147.015366 
L 209.03089 -145.443716 
L 211.597771 -144.129897 
L 214.164652 -142.710066 
L 216.731532 -141.604777 
L 219.298413 -139.8936 
L 221.865294 -138.356917 
L 224.432174 -136.726444 
L 226.999055 -135.311041 
L 229.565936 -133.641575 
L 232.132816 -131.967727 
L 234.699697 -130.293878 
L 237.266578 -128.62003 
L 239.833458 -126.946182 
L 242.400339 -125.272333 
L 244.96722 -123.397111 
L 247.534101 -121.479207 
L 250.100981 -119.779604 
L 252.667862 -118.094594 
L 255.234743 -116.6076 
L 257.801623 -115.200166 
L 260.368504 -113.560551 
L 262.935385 -111.893208 
L 265.502265 -110.376171 
L 268.069146 -108.941623 
L 270.636027 -107.507076 
L 273.202907 -105.782141 
L 275.769788 -104.031232 
L 278.336669 -102.280323 
L 280.90355 -100.532029 
L 283.47043 -98.836562 
L 286.037311 -97.381088 
L 288.604192 -95.925613 
L 291.171072 -94.470139 
L 293.737953 -92.759975 
L 296.304834 -90.954189 
L 298.871714 -89.148402 
L 301.438595 -87.342616 
L 304.005476 -85.536829 
L 306.572356 -83.731043 
L 309.139237 -81.927796 
L 311.706118 -80.393095 
L 314.272999 -78.71291 
L 316.839879 -77.049368 
L 319.40676 -75.158829 
L 321.973641 -73.404373 
L 324.540521 -71.729857 
L 327.107402 -70.05726 
L 329.674283 -68.384662 
L 332.241163 -66.724914 
L 334.808044 -65.085405 
L 337.374925 -63.445896 
L 339.941806 -61.806387 
L 342.508686 -60.167472 
L 342.508686 -136.28689 
L 342.508686 -136.28689 
L 339.941806 -136.673352 
L 337.374925 -137.084224 
L 334.808044 -137.483075 
L 332.241163 -138.149424 
L 329.674283 -138.583042 
L 327.107402 -139.008277 
L 324.540521 -139.432107 
L 321.973641 -139.855936 
L 319.40676 -140.275905 
L 316.839879 -140.875602 
L 314.272999 -141.55898 
L 311.706118 -142.066984 
L 309.139237 -142.579641 
L 306.572356 -143.48349 
L 304.005476 -144.127836 
L 301.438595 -144.643537 
L 298.871714 -145.402276 
L 296.304834 -146.052468 
L 293.737953 -146.776644 
L 291.171072 -147.373005 
L 288.604192 -147.994593 
L 286.037311 -148.626007 
L 283.47043 -149.257149 
L 280.90355 -149.899347 
L 278.336669 -150.620433 
L 275.769788 -151.492911 
L 273.202907 -152.276475 
L 270.636027 -153.015062 
L 268.069146 -153.779995 
L 265.502265 -154.483343 
L 262.935385 -155.390248 
L 260.368504 -156.147713 
L 257.801623 -156.966219 
L 255.234743 -157.73105 
L 252.667862 -158.717329 
L 250.100981 -159.484535 
L 247.534101 -160.252424 
L 244.96722 -161.30887 
L 242.400339 -162.327063 
L 239.833458 -163.381067 
L 237.266578 -164.432268 
L 234.699697 -165.350648 
L 232.132816 -166.168707 
L 229.565936 -167.071914 
L 226.999055 -167.975291 
L 224.432174 -168.889997 
L 221.865294 -169.765468 
L 219.298413 -170.640907 
L 216.731532 -171.549913 
L 214.164652 -172.665966 
L 211.597771 -173.957187 
L 209.03089 -175.062075 
L 206.464009 -176.02906 
L 203.897129 -177.06102 
L 201.330248 -178.001696 
L 198.763367 -178.989864 
L 196.196487 -180.054804 
L 193.629606 -181.188803 
L 191.062725 -182.46719 
L 188.495845 -183.685644 
L 185.928964 -184.719112 
L 183.362083 -185.748311 
L 180.795203 -186.863859 
L 178.228322 -187.953349 
L 175.661441 -188.994334 
L 173.09456 -190.195213 
L 170.52768 -191.263826 
L 167.960799 -192.421471 
L 165.393918 -193.555924 
L 162.827038 -194.73594 
L 160.260157 -195.943954 
L 157.693276 -197.093696 
L 155.126396 -198.470802 
L 152.559515 -199.765273 
L 149.992634 -201.009047 
L 147.425753 -202.139122 
L 144.858873 -203.622899 
L 142.291992 -205.165404 
L 139.725111 -206.265604 
L 137.158231 -207.679882 
L 134.59135 -209.15696 
L 132.024469 -210.39927 
L 129.457589 -211.852672 
L 126.890708 -213.170433 
L 124.323827 -214.61282 
L 121.756947 -216.195229 
L 119.190066 -217.668976 
L 116.623185 -219.375296 
L 114.056304 -220.802386 
L 111.489424 -222.193228 
L 108.922543 -223.54109 
L 106.355662 -224.888952 
L 103.788782 -226.426558 
L 101.221901 -228.317422 
L 98.65502 -229.725605 
L 96.08814 -231.615762 
L 93.521259 -233.52686 
L 90.954378 -235.074623 
L 88.387498 -236.385838 
z
" style="stroke: #ffffff; stroke-opacity: 0.15"/>
    </defs>
    <g clip-path="url(#p83cf3ce521)">
     <use xlink:href="#me0f2dfcccf" x="0" y="360" style="fill: #0173b2; fill-opacity: 0.15; stroke: #ffffff; stroke-opacity: 0.15"/>
    </g>
   </g>
   <g id="PathCollection_2">
    <defs>
     <path id="m3053dcbe90" d="M 0 3 
C 0.795609 3 1.55874 2.683901 2.12132 2.12132 
C 2.683901 1.55874 3 0.795609 3 0 
C 3 -0.795609 2.683901 -1.55874 2.12132 -2.12132 
C 1.55874 -2.683901 0.795609 -3 0 -3 
C -0.795609 -3 -1.55874 -2.683901 -2.12132 -2.12132 
C -2.683901 -1.55874 -3 -0.795609 -3 0 
C -3 0.795609 -2.683901 1.55874 -2.12132 2.12132 
C -1.55874 2.683901 -0.795609 3 0 3 
z
" style="stroke: #de8f05; stroke-opacity: 0.8"/>
    </defs>
    <g clip-path="url(#p83cf3ce521)">
     <use xlink:href="#m3053dcbe90" x="186.741256" y="233.418752" style="fill: #de8f05; fill-opacity: 0.8; stroke: #de8f05; stroke-opacity: 0.8"/>
     <use xlink:href="#m3053dcbe90" x="108.772059" y="121.29927" style="fill: #de8f05; fill-opacity: 0.8; stroke: #de8f05; stroke-opacity: 0.8"/>
     <use xlink:href="#m3053dcbe90" x="112.640409" y="173.621695" style="fill: #de8f05; fill-opacity: 0.8; stroke: #de8f05; stroke-opacity: 0.8"/>
     <use xlink:href="#m3053dcbe90" x="144.54827" y="168.638607" style="fill: #de8f05; fill-opacity: 0.8; stroke: #de8f05; stroke-opacity: 0.8"/>
     <use xlink:href="#m3053dcbe90" x="101.350067" y="128.773902" style="fill: #de8f05; fill-opacity: 0.8; stroke: #de8f05; stroke-opacity: 0.8"/>
     <use xlink:href="#m3053dcbe90" x="110.003755" y="168.638607" style="fill: #de8f05; fill-opacity: 0.8; stroke: #de8f05; stroke-opacity: 0.8"/>
     <use xlink:href="#m3053dcbe90" x="239.665084" y="215.977944" style="fill: #de8f05; fill-opacity: 0.8; stroke: #de8f05; stroke-opacity: 0.8"/>
     <use xlink:href="#m3053dcbe90" x="191.203793" y="213.4864" style="fill: #de8f05; fill-opacity: 0.8; stroke: #de8f05; stroke-opacity: 0.8"/>
     <use xlink:href="#m3053dcbe90" x="207.756373" y="196.045592" style="fill: #de8f05; fill-opacity: 0.8; stroke: #de8f05; stroke-opacity: 0.8"/>
     <use xlink:href="#m3053dcbe90" x="192.154107" y="206.011768" style="fill: #de8f05; fill-opacity: 0.8; stroke: #de8f05; stroke-opacity: 0.8"/>
     <use xlink:href="#m3053dcbe90" x="105.649919" y="78.943022" style="fill: #de8f05; fill-opacity: 0.8; stroke: #de8f05; stroke-opacity: 0.8"/>
     <use xlink:href="#m3053dcbe90" x="146.408788" y="153.689343" style="fill: #de8f05; fill-opacity: 0.8; stroke: #de8f05; stroke-opacity: 0.8"/>
     <use xlink:href="#m3053dcbe90" x="79.75241" y="26.620597" style="fill: #de8f05; fill-opacity: 0.8; stroke: #de8f05; stroke-opacity: 0.8"/>
     <use xlink:href="#m3053dcbe90" x="117.338845" y="178.604783" style="fill: #de8f05; fill-opacity: 0.8; stroke: #de8f05; stroke-opacity: 0.8"/>
     <use xlink:href="#m3053dcbe90" x="145.022245" y="163.655519" style="fill: #de8f05; fill-opacity: 0.8; stroke: #de8f05; stroke-opacity: 0.8"/>
     <use xlink:href="#m3053dcbe90" x="116.567385" y="161.163975" style="fill: #de8f05; fill-opacity: 0.8; stroke: #de8f05; stroke-opacity: 0.8"/>
     <use xlink:href="#m3053dcbe90" x="112.615006" y="188.57096" style="fill: #de8f05; fill-opacity: 0.8; stroke: #de8f05; stroke-opacity: 0.8"/>
     <use xlink:href="#m3053dcbe90" x="211.836716" y="223.452576" style="fill: #de8f05; fill-opacity: 0.8; stroke: #de8f05; stroke-opacity: 0.8"/>
     <use xlink:href="#m3053dcbe90" x="120.611665" y="171.130151" style="fill: #de8f05; fill-opacity: 0.8; stroke: #de8f05; stroke-opacity: 0.8"/>
     <use xlink:href="#m3053dcbe90" x="87.493463" y="136.248535" style="fill: #de8f05; fill-opacity: 0.8; stroke: #de8f05; stroke-opacity: 0.8"/>
    </g>
   </g>
   <g id="PolyCollection_2">
    <defs>
     <path id="m285e3a2447" d="M 79.75241 -277.780992 
L 79.75241 -215.100391 
L 81.36769 -214.320548 
L 82.982969 -213.481589 
L 84.598249 -212.612518 
L 86.213528 -211.788161 
L 87.828808 -210.980769 
L 89.444088 -210.176146 
L 91.059367 -209.371262 
L 92.674647 -208.563381 
L 94.289926 -207.748382 
L 95.905206 -206.925469 
L 97.520485 -206.102556 
L 99.135765 -205.279643 
L 100.751044 -204.458329 
L 102.366324 -203.638867 
L 103.981603 -202.819405 
L 105.596883 -201.999942 
L 107.212162 -201.18398 
L 108.827442 -200.43999 
L 110.442721 -199.656443 
L 112.058001 -198.817708 
L 113.673281 -197.964868 
L 115.28856 -197.096664 
L 116.90384 -196.251545 
L 118.519119 -195.406348 
L 120.134399 -194.553508 
L 121.749678 -193.700669 
L 123.364958 -192.847829 
L 124.980237 -191.995901 
L 126.595517 -191.166794 
L 128.210796 -190.289391 
L 129.826076 -189.436469 
L 131.441355 -188.583629 
L 133.056635 -187.672511 
L 134.671914 -186.743689 
L 136.287194 -185.625482 
L 137.902474 -184.419415 
L 139.517753 -183.26372 
L 141.133033 -182.157448 
L 142.748312 -181.13011 
L 144.363592 -180.134181 
L 145.978871 -178.829221 
L 147.594151 -177.719366 
L 149.20943 -176.609885 
L 150.82471 -175.31911 
L 152.439989 -174.146686 
L 154.055269 -172.567527 
L 155.670548 -170.984816 
L 157.285828 -169.436504 
L 158.901108 -168.043898 
L 160.516387 -166.792583 
L 162.131667 -165.052815 
L 163.746946 -163.41671 
L 165.362226 -161.937667 
L 166.977505 -160.366263 
L 168.592785 -158.867664 
L 170.208064 -157.348307 
L 171.823344 -155.616036 
L 173.438623 -153.722522 
L 175.053903 -151.819007 
L 176.669182 -149.914758 
L 178.284462 -147.999175 
L 179.899741 -146.217231 
L 181.515021 -144.23146 
L 183.130301 -142.333921 
L 184.74558 -140.423149 
L 186.36086 -138.53041 
L 187.976139 -136.705899 
L 189.591419 -135.158989 
L 191.206698 -133.615558 
L 192.821978 -131.905888 
L 194.437257 -129.836591 
L 196.052537 -127.937568 
L 197.667816 -126.303659 
L 199.283096 -124.609749 
L 200.898375 -122.801467 
L 202.513655 -121.086302 
L 204.128934 -119.371138 
L 205.744214 -117.655973 
L 207.359494 -115.874304 
L 208.974773 -114.06729 
L 210.590053 -112.260276 
L 212.205332 -110.453262 
L 213.820612 -108.646247 
L 215.435891 -106.839233 
L 217.051171 -104.785818 
L 218.66645 -102.689135 
L 220.28173 -100.986296 
L 221.897009 -99.293609 
L 223.512289 -97.473362 
L 225.127568 -95.475731 
L 226.742848 -93.552935 
L 228.358127 -91.721657 
L 229.973407 -89.89038 
L 231.588687 -88.029739 
L 233.203966 -86.036018 
L 234.819246 -83.956107 
L 236.434525 -81.876196 
L 238.049805 -79.796284 
L 239.665084 -77.716373 
L 239.665084 -137.835601 
L 239.665084 -137.835601 
L 238.049805 -138.800076 
L 236.434525 -139.764551 
L 234.819246 -140.618219 
L 233.203966 -141.404282 
L 231.588687 -142.188227 
L 229.973407 -142.970671 
L 228.358127 -143.897419 
L 226.742848 -144.856087 
L 225.127568 -145.809801 
L 223.512289 -146.763515 
L 221.897009 -147.673994 
L 220.28173 -148.547311 
L 218.66645 -149.420338 
L 217.051171 -150.290638 
L 215.435891 -151.192656 
L 213.820612 -152.16425 
L 212.205332 -152.938573 
L 210.590053 -153.773391 
L 208.974773 -154.643162 
L 207.359494 -155.500913 
L 205.744214 -156.37364 
L 204.128934 -157.261846 
L 202.513655 -158.134585 
L 200.898375 -159.218156 
L 199.283096 -160.200627 
L 197.667816 -161.260474 
L 196.052537 -162.15774 
L 194.437257 -163.126028 
L 192.821978 -164.125105 
L 191.206698 -165.274285 
L 189.591419 -166.428253 
L 187.976139 -167.701256 
L 186.36086 -168.652123 
L 184.74558 -169.64161 
L 183.130301 -170.75471 
L 181.515021 -172.073145 
L 179.899741 -173.391581 
L 178.284462 -174.552457 
L 176.669182 -175.87204 
L 175.053903 -177.025249 
L 173.438623 -178.438015 
L 171.823344 -179.811159 
L 170.208064 -181.095423 
L 168.592785 -182.54506 
L 166.977505 -183.946705 
L 165.362226 -185.421606 
L 163.746946 -186.983271 
L 162.131667 -188.542886 
L 160.516387 -189.946437 
L 158.901108 -191.551079 
L 157.285828 -192.989219 
L 155.670548 -194.582787 
L 154.055269 -196.298455 
L 152.439989 -198.077171 
L 150.82471 -199.730642 
L 149.20943 -201.255026 
L 147.594151 -202.752874 
L 145.978871 -204.36364 
L 144.363592 -206.005404 
L 142.748312 -207.638251 
L 141.133033 -209.2664 
L 139.517753 -210.889527 
L 137.902474 -212.430575 
L 136.287194 -214.142043 
L 134.671914 -215.736279 
L 133.056635 -217.396934 
L 131.441355 -219.024362 
L 129.826076 -220.515144 
L 128.210796 -222.156831 
L 126.595517 -223.911011 
L 124.980237 -225.541959 
L 123.364958 -227.464998 
L 121.749678 -229.104126 
L 120.134399 -231.049901 
L 118.519119 -232.792146 
L 116.90384 -234.666087 
L 115.28856 -236.428545 
L 113.673281 -238.205557 
L 112.058001 -239.867168 
L 110.442721 -241.565106 
L 108.827442 -243.282826 
L 107.212162 -245.314695 
L 105.596883 -246.997066 
L 103.981603 -248.970413 
L 102.366324 -250.976561 
L 100.751044 -252.980319 
L 99.135765 -254.984076 
L 97.520485 -256.987834 
L 95.905206 -258.991592 
L 94.289926 -260.995349 
L 92.674647 -262.994961 
L 91.059367 -264.992094 
L 89.444088 -266.69931 
L 87.828808 -268.341366 
L 86.213528 -270.275751 
L 84.598249 -271.996166 
L 82.982969 -273.84253 
L 81.36769 -275.69427 
L 79.75241 -277.780992 
z
" style="stroke: #ffffff; stroke-opacity: 0.15"/>
    </defs>
    <g clip-path="url(#p83cf3ce521)">
     <use xlink:href="#m285e3a2447" x="0" y="360" style="fill: #de8f05; fill-opacity: 0.15; stroke: #ffffff; stroke-opacity: 0.15"/>
    </g>
   </g>
   <g id="line2d_13">
    <path d="M 88.387498 152.36807 
L 90.954378 153.305784 
L 93.521259 154.243499 
L 96.08814 155.181214 
L 98.65502 156.118928 
L 101.221901 157.056643 
L 103.788782 157.994358 
L 106.355662 158.932072 
L 108.922543 159.869787 
L 111.489424 160.807502 
L 114.056304 161.745216 
L 116.623185 162.682931 
L 119.190066 163.620646 
L 121.756947 164.55836 
L 124.323827 165.496075 
L 126.890708 166.43379 
L 129.457589 167.371504 
L 132.024469 168.309219 
L 134.59135 169.246934 
L 137.158231 170.184648 
L 139.725111 171.122363 
L 142.291992 172.060078 
L 144.858873 172.997792 
L 147.425753 173.935507 
L 149.992634 174.873222 
L 152.559515 175.810936 
L 155.126396 176.748651 
L 157.693276 177.686366 
L 160.260157 178.62408 
L 162.827038 179.561795 
L 165.393918 180.49951 
L 167.960799 181.437224 
L 170.52768 182.374939 
L 173.09456 183.312654 
L 175.661441 184.250368 
L 178.228322 185.188083 
L 180.795203 186.125798 
L 183.362083 187.063512 
L 185.928964 188.001227 
L 188.495845 188.938942 
L 191.062725 189.876656 
L 193.629606 190.814371 
L 196.196487 191.752086 
L 198.763367 192.6898 
L 201.330248 193.627515 
L 203.897129 194.565229 
L 206.464009 195.502944 
L 209.03089 196.440659 
L 211.597771 197.378373 
L 214.164652 198.316088 
L 216.731532 199.253803 
L 219.298413 200.191517 
L 221.865294 201.129232 
L 224.432174 202.066947 
L 226.999055 203.004661 
L 229.565936 203.942376 
L 232.132816 204.880091 
L 234.699697 205.817805 
L 237.266578 206.75552 
L 239.833458 207.693235 
L 242.400339 208.630949 
L 244.96722 209.568664 
L 247.534101 210.506379 
L 250.100981 211.444093 
L 252.667862 212.381808 
L 255.234743 213.319523 
L 257.801623 214.257237 
L 260.368504 215.194952 
L 262.935385 216.132667 
L 265.502265 217.070381 
L 268.069146 218.008096 
L 270.636027 218.945811 
L 273.202907 219.883525 
L 275.769788 220.82124 
L 278.336669 221.758955 
L 280.90355 222.696669 
L 283.47043 223.634384 
L 286.037311 224.572099 
L 288.604192 225.509813 
L 291.171072 226.447528 
L 293.737953 227.385243 
L 296.304834 228.322957 
L 298.871714 229.260672 
L 301.438595 230.198387 
L 304.005476 231.136101 
L 306.572356 232.073816 
L 309.139237 233.011531 
L 311.706118 233.949245 
L 314.272999 234.88696 
L 316.839879 235.824675 
L 319.40676 236.762389 
L 321.973641 237.700104 
L 324.540521 238.637819 
L 327.107402 239.575533 
L 329.674283 240.513248 
L 332.241163 241.450963 
L 334.808044 242.388677 
L 337.374925 243.326392 
L 339.941806 244.264107 
L 342.508686 245.201821 
" clip-path="url(#p83cf3ce521)" style="fill: none; stroke: #0173b2; stroke-width: 2.25; stroke-linecap: round"/>
   </g>
   <g id="line2d_14">
    <path d="M 79.75241 114.940635 
L 81.36769 116.251977 
L 82.982969 117.563318 
L 84.598249 118.874659 
L 86.213528 120.186001 
L 87.828808 121.497342 
L 89.444088 122.808683 
L 91.059367 124.120025 
L 92.674647 125.431366 
L 94.289926 126.742707 
L 95.905206 128.054049 
L 97.520485 129.36539 
L 99.135765 130.676731 
L 100.751044 131.988073 
L 102.366324 133.299414 
L 103.981603 134.610755 
L 105.596883 135.922097 
L 107.212162 137.233438 
L 108.827442 138.544779 
L 110.442721 139.856121 
L 112.058001 141.167462 
L 113.673281 142.478803 
L 115.28856 143.790145 
L 116.90384 145.101486 
L 118.519119 146.412827 
L 120.134399 147.724169 
L 121.749678 149.03551 
L 123.364958 150.346851 
L 124.980237 151.658193 
L 126.595517 152.969534 
L 128.210796 154.280875 
L 129.826076 155.592217 
L 131.441355 156.903558 
L 133.056635 158.214899 
L 134.671914 159.526241 
L 136.287194 160.837582 
L 137.902474 162.148923 
L 139.517753 163.460265 
L 141.133033 164.771606 
L 142.748312 166.082947 
L 144.363592 167.394289 
L 145.978871 168.70563 
L 147.594151 170.016971 
L 149.20943 171.328313 
L 150.82471 172.639654 
L 152.439989 173.950995 
L 154.055269 175.262337 
L 155.670548 176.573678 
L 157.285828 177.885019 
L 158.901108 179.196361 
L 160.516387 180.507702 
L 162.131667 181.819043 
L 163.746946 183.130385 
L 165.362226 184.441726 
L 166.977505 185.753067 
L 168.592785 187.064409 
L 170.208064 188.37575 
L 171.823344 189.687091 
L 173.438623 190.998433 
L 175.053903 192.309774 
L 176.669182 193.621115 
L 178.284462 194.932457 
L 179.899741 196.243798 
L 181.515021 197.555139 
L 183.130301 198.866481 
L 184.74558 200.177822 
L 186.36086 201.489164 
L 187.976139 202.800505 
L 189.591419 204.111846 
L 191.206698 205.423188 
L 192.821978 206.734529 
L 194.437257 208.04587 
L 196.052537 209.357212 
L 197.667816 210.668553 
L 199.283096 211.979894 
L 200.898375 213.291236 
L 202.513655 214.602577 
L 204.128934 215.913918 
L 205.744214 217.22526 
L 207.359494 218.536601 
L 208.974773 219.847942 
L 210.590053 221.159284 
L 212.205332 222.470625 
L 213.820612 223.781966 
L 215.435891 225.093308 
L 217.051171 226.404649 
L 218.66645 227.71599 
L 220.28173 229.027332 
L 221.897009 230.338673 
L 223.512289 231.650014 
L 225.127568 232.961356 
L 226.742848 234.272697 
L 228.358127 235.584038 
L 229.973407 236.89538 
L 231.588687 238.206721 
L 233.203966 239.518062 
L 234.819246 240.829404 
L 236.434525 242.140745 
L 238.049805 243.452086 
L 239.665084 244.763428 
" clip-path="url(#p83cf3ce521)" style="fill: none; stroke: #de8f05; stroke-width: 2.25; stroke-linecap: round"/>
   </g>
   <g id="patch_3">
    <path d="M 66.614597 313.493125 
L 66.614597 12.96 
" style="fill: none; stroke: #ffffff; stroke-width: 1.25; stroke-linejoin: miter; stroke-linecap: square"/>
   </g>
   <g id="patch_4">
    <path d="M 66.614597 313.493125 
L 355.6465 313.493125 
" style="fill: none; stroke: #ffffff; stroke-width: 1.25; stroke-linejoin: miter; stroke-linecap: square"/>
   </g>
  </g>
  <g id="legend_1">
   <g id="text_15">
    <!-- Treatment -->
    <g style="fill: #262626" transform="translate(365.205781 167.542344)scale(0.12 -0.12)">
     <defs>
      <path id="ArialMT-54" d="M 1659 0 
L 1659 4041 
L 150 4041 
L 150 4581 
L 3781 4581 
L 3781 4041 
L 2266 4041 
L 2266 0 
L 1659 0 
z
" transform="scale(0.015625)"/>
     </defs>
     <use xlink:href="#ArialMT-54"/>
     <use xlink:href="#ArialMT-72" x="57.333984"/>
     <use xlink:href="#ArialMT-65" x="90.634766"/>
     <use xlink:href="#ArialMT-61" x="146.25"/>
     <use xlink:href="#ArialMT-74" x="201.865234"/>
     <use xlink:href="#ArialMT-6d" x="229.648438"/>
     <use xlink:href="#ArialMT-65" x="312.949219"/>
     <use xlink:href="#ArialMT-6e" x="368.564453"/>
     <use xlink:href="#ArialMT-74" x="424.179688"/>
    </g>
   </g>
   <g id="PathCollection_3">
    <g>
     <use xlink:href="#m06ea0e63bc" x="370.192187" y="180.413438" style="fill: #0173b2; fill-opacity: 0.8; stroke: #0173b2; stroke-opacity: 0.8"/>
    </g>
   </g>
   <g id="text_16">
    <!-- Control -->
    <g style="fill: #262626" transform="translate(389.992188 183.300938)scale(0.11 -0.11)">
     <defs>
      <path id="ArialMT-43" d="M 3763 1606 
L 4369 1453 
Q 4178 706 3683 314 
Q 3188 -78 2472 -78 
Q 1731 -78 1267 223 
Q 803 525 561 1097 
Q 319 1669 319 2325 
Q 319 3041 592 3573 
Q 866 4106 1370 4382 
Q 1875 4659 2481 4659 
Q 3169 4659 3637 4309 
Q 4106 3959 4291 3325 
L 3694 3184 
Q 3534 3684 3231 3912 
Q 2928 4141 2469 4141 
Q 1941 4141 1586 3887 
Q 1231 3634 1087 3207 
Q 944 2781 944 2328 
Q 944 1744 1114 1308 
Q 1284 872 1643 656 
Q 2003 441 2422 441 
Q 2931 441 3284 734 
Q 3638 1028 3763 1606 
z
" transform="scale(0.015625)"/>
      <path id="ArialMT-6f" d="M 213 1659 
Q 213 2581 725 3025 
Q 1153 3394 1769 3394 
Q 2453 3394 2887 2945 
Q 3322 2497 3322 1706 
Q 3322 1066 3130 698 
Q 2938 331 2570 128 
Q 2203 -75 1769 -75 
Q 1072 -75 642 372 
Q 213 819 213 1659 
z
M 791 1659 
Q 791 1022 1069 705 
Q 1347 388 1769 388 
Q 2188 388 2466 706 
Q 2744 1025 2744 1678 
Q 2744 2294 2464 2611 
Q 2184 2928 1769 2928 
Q 1347 2928 1069 2612 
Q 791 2297 791 1659 
z
" transform="scale(0.015625)"/>
      <path id="ArialMT-6c" d="M 409 0 
L 409 4581 
L 972 4581 
L 972 0 
L 409 0 
z
" transform="scale(0.015625)"/>
     </defs>
     <use xlink:href="#ArialMT-43"/>
     <use xlink:href="#ArialMT-6f" x="72.216797"/>
     <use xlink:href="#ArialMT-6e" x="127.832031"/>
     <use xlink:href="#ArialMT-74" x="183.447266"/>
     <use xlink:href="#ArialMT-72" x="211.230469"/>
     <use xlink:href="#ArialMT-6f" x="244.53125"/>
     <use xlink:href="#ArialMT-6c" x="300.146484"/>
    </g>
   </g>
   <g id="PathCollection_4">
    <g>
     <use xlink:href="#m3053dcbe90" x="370.192187" y="195.973281" style="fill: #de8f05; fill-opacity: 0.8; stroke: #de8f05; stroke-opacity: 0.8"/>
    </g>
   </g>
   <g id="text_17">
    <!-- DFO -->
    <g style="fill: #262626" transform="translate(389.992188 198.860781)scale(0.11 -0.11)">
     <defs>
      <path id="ArialMT-44" d="M 494 0 
L 494 4581 
L 2072 4581 
Q 2606 4581 2888 4516 
Q 3281 4425 3559 4188 
Q 3922 3881 4101 3404 
Q 4281 2928 4281 2316 
Q 4281 1794 4159 1391 
Q 4038 988 3847 723 
Q 3656 459 3429 307 
Q 3203 156 2883 78 
Q 2563 0 2147 0 
L 494 0 
z
M 1100 541 
L 2078 541 
Q 2531 541 2789 625 
Q 3047 709 3200 863 
Q 3416 1078 3536 1442 
Q 3656 1806 3656 2325 
Q 3656 3044 3420 3430 
Q 3184 3816 2847 3947 
Q 2603 4041 2063 4041 
L 1100 4041 
L 1100 541 
z
" transform="scale(0.015625)"/>
      <path id="ArialMT-46" d="M 525 0 
L 525 4581 
L 3616 4581 
L 3616 4041 
L 1131 4041 
L 1131 2622 
L 3281 2622 
L 3281 2081 
L 1131 2081 
L 1131 0 
L 525 0 
z
" transform="scale(0.015625)"/>
      <path id="ArialMT-4f" d="M 309 2231 
Q 309 3372 921 4017 
Q 1534 4663 2503 4663 
Q 3138 4663 3647 4359 
Q 4156 4056 4423 3514 
Q 4691 2972 4691 2284 
Q 4691 1588 4409 1038 
Q 4128 488 3612 205 
Q 3097 -78 2500 -78 
Q 1853 -78 1343 234 
Q 834 547 571 1087 
Q 309 1628 309 2231 
z
M 934 2222 
Q 934 1394 1379 917 
Q 1825 441 2497 441 
Q 3181 441 3623 922 
Q 4066 1403 4066 2288 
Q 4066 2847 3877 3264 
Q 3688 3681 3323 3911 
Q 2959 4141 2506 4141 
Q 1863 4141 1398 3698 
Q 934 3256 934 2222 
z
" transform="scale(0.015625)"/>
     </defs>
     <use xlink:href="#ArialMT-44"/>
     <use xlink:href="#ArialMT-46" x="72.216797"/>
     <use xlink:href="#ArialMT-4f" x="133.300781"/>
    </g>
   </g>
  </g>
 </g>
 <defs>
  <clipPath id="p83cf3ce521">
   <rect x="66.614597" y="12.96" width="289.031903" height="300.533125"/>
  </clipPath>
 </defs>
</svg>
